<?xml version="1.0" standalone="no"?>
<!DOCTYPE svg PUBLIC "-//W3C//DTD SVG 1.1//EN" "http://www.w3.org/Graphics/SVG/1.1/DTD/svg11.dtd" >
<svg xmlns="http://www.w3.org/2000/svg">
<metadata></metadata>
<defs>
<font id="ragnierragnier" horiz-adv-x="735" >
<font-face units-per-em="2048" ascent="1536" descent="-512" />
<missing-glyph horiz-adv-x="368" />
<glyph horiz-adv-x="0" />
<glyph unicode="&#xd;" horiz-adv-x="368" />
<glyph unicode=" "  horiz-adv-x="368" />
<glyph unicode="&#x09;" horiz-adv-x="368" />
<glyph unicode="&#xa0;" horiz-adv-x="368" />
<glyph unicode="!" horiz-adv-x="299" d="M74 82q0 35 22.5 57.5t55.5 22.5q31 0 53 -23.5t22 -58.5q-2 -35 -24.5 -58.5t-52.5 -21.5q-33 0 -55.5 23.5t-20.5 58.5zM74 358v828h151v-828h-151z" />
<glyph unicode="&#x22;" horiz-adv-x="528" d="M37 915q0 55 24.5 105.5t65.5 87.5t93.5 58.5t109.5 21.5q-29 0 -53.5 -21.5t-43 -58.5t-29.5 -87t-11 -106q0 -31 -23 -53t-55 -22q-33 0 -55.5 22.5t-22.5 52.5zM262 915q0 55 24.5 105.5t64.5 87.5t92.5 58.5t109.5 21.5q-29 0 -53.5 -21.5t-43 -58.5t-29.5 -87 t-11 -106q0 -31 -22.5 -53t-53.5 -22q-33 0 -55.5 22.5t-22.5 52.5z" />
<glyph unicode="#" horiz-adv-x="798" d="M29 238v102h145l47 338h-125v102h137l33 238h101l-31 -238h203l32 238h101l-31 -238h133v-102h-147l-45 -338h125v-102h-140l-30 -238h-103l33 238h-205l-31 -238h-102l33 238h-133zM276 340h203l47 338h-204z" />
<glyph unicode="&#x26;" horiz-adv-x="788" d="M72 272v68q0 55 24.5 104.5t64.5 86t92 58t107 21.5q-29 0 -53 -21.5t-42.5 -58t-29 -86t-10.5 -104.5v-68q0 -55 10.5 -105t29 -87t43 -58.5t52.5 -21.5q-55 0 -107 21.5t-92 58.5t-64.5 87t-24.5 105zM98 745v103q0 55 23.5 105.5t63.5 87t92.5 58t107.5 21.5 q-29 0 -53.5 -21.5t-43 -58t-28.5 -87t-10 -105.5v-103q0 -55 40 -95t95 -40h-25h-127q-57 0 -96 40t-39 95zM395 0q55 0 95 40t40 95v103v84q0 57 24 106t63.5 86t92 58.5t109.5 21.5q-29 0 -53.5 -21.5t-42.5 -58.5t-29.5 -86t-11.5 -106v-84v-103q0 -55 -39 -95t-96 -40 h-152zM395 1120h152q57 0 96 -40t39 -97q0 -31 -21.5 -53.5t-54.5 -22.5q-31 0 -53.5 22.5t-22.5 53.5q0 57 -39.5 97t-95.5 40zM412 602q0 33 22.5 54.5t52.5 21.5q55 0 105.5 11t87.5 29.5t58.5 43t21.5 53.5q0 -57 -21.5 -109.5t-58.5 -92.5t-87 -63.5t-106 -23.5 q-31 0 -53 22.5t-22 53.5z" />
<glyph unicode="'" horiz-adv-x="204" d="M19 1153.5q8 30.5 34 44.5q29 16 60 8t47 -37q29 -47 32 -102t-13.5 -106.5t-51.5 -96.5t-84 -73q25 14 35 44.5t8 71.5t-16.5 89t-42.5 98q-16 29 -8 59.5z" />
<glyph unicode="(" horiz-adv-x="378" d="M96 100v883q0 55 21.5 104.5t58.5 86t86 58t105 21.5q-29 0 -53.5 -21.5t-43 -58t-29 -86t-10.5 -104.5v-883q0 -55 10.5 -104t29 -86t43 -58.5t53.5 -21.5q-55 0 -104.5 21.5t-86.5 58.5t-58.5 86t-21.5 104z" />
<glyph unicode=")" horiz-adv-x="360" d="M14 -170q27 0 51.5 21.5t43 58.5t30 86t11.5 104v883q0 55 -11.5 104.5t-30 86t-43 58t-51.5 21.5q55 0 104.5 -21.5t86.5 -58t58.5 -86t21.5 -104.5v-883q0 -55 -21.5 -104t-58.5 -86t-86 -58.5t-105 -21.5z" />
<glyph unicode="+" horiz-adv-x="706" d="M14 289v102h289v287h103v-287h286v-102h-286v-289h-103v289h-289z" />
<glyph unicode="," horiz-adv-x="212" d="M-96 -195q29 0 53.5 21.5t42.5 58.5t29.5 87.5t11.5 105.5q0 31 22.5 53.5t55.5 22.5q31 0 53.5 -22.5t22.5 -53.5q0 -55 -25 -105.5t-64.5 -87.5t-92 -58.5t-109.5 -21.5z" />
<glyph unicode="-" horiz-adv-x="544" d="M70 289v102h407v-102h-407z" />
<glyph unicode="." horiz-adv-x="212" d="M31 78q0 33 22.5 54.5t55.5 21.5t54 -22.5t21 -55.5t-22.5 -54.5t-55.5 -21.5t-54 23.5t-21 54.5z" />
<glyph unicode="/" horiz-adv-x="700" d="M12 -203l543 1493h135l-543 -1493h-135z" />
<glyph unicode="0" horiz-adv-x="696" d="M43 272v576q0 55 24.5 105.5t64.5 87t92.5 58t107.5 21.5q-29 0 -53.5 -21.5t-43 -58t-28.5 -87t-10 -105.5v-135q0 -57 38.5 -96t96.5 -39h-135v-306q0 -55 10 -105t28.5 -87t43 -58.5t53.5 -21.5q-55 0 -107.5 21.5t-92.5 58.5t-64.5 87t-24.5 105zM367 0q27 0 51 21.5 t42.5 58.5t30 87t11.5 105v170q0 55 -40 95.5t-95 40.5h135v270q0 55 -11.5 105.5t-30 87t-43 58t-50.5 21.5q55 0 107 -21.5t92 -58t63.5 -87t23.5 -105.5v-576q0 -57 -23.5 -106t-63.5 -86t-92 -58.5t-107 -21.5z" />
<glyph unicode="1" horiz-adv-x="290" d="M-49 1120h153q55 0 95.5 -40t40.5 -97v-983h-154v983q0 57 -39 97t-96 40z" />
<glyph unicode="2" horiz-adv-x="673" d="M41 0v270v35q0 55 23.5 104.5t63.5 86t92 58t108 21.5q-29 0 -53.5 -21.5t-43 -58t-28.5 -86t-10 -104.5v-305h-152zM41 846q0 57 23.5 106t63.5 86t92 58.5t108 21.5q-29 0 -53.5 -21.5t-43 -58.5t-28.5 -86t-10 -106q0 -31 -21.5 -53.5t-54.5 -22.5t-54.5 22.5 t-21.5 53.5zM346 0q55 0 95 39t40 96q0 31 22.5 53.5t53.5 22.5q33 0 55.5 -29.5t22.5 -60.5q0 -57 -40 -89t-97 -32h-152zM346 575q27 0 51.5 21.5t43 58.5t29.5 86.5t11 104.5v2q0 55 -11 104t-29.5 86t-43 58.5t-51.5 21.5q55 0 107.5 -21.5t92.5 -58.5t63.5 -87 t23.5 -105t-23.5 -104.5t-63.5 -86.5t-92.5 -58.5t-107.5 -21.5z" />
<glyph unicode="3" horiz-adv-x="702" d="M39 270q0 33 21.5 54.5t54.5 21.5t54 -21.5t21 -54.5q0 -55 11.5 -104t30 -86t43 -58.5t53.5 -21.5q-57 0 -109.5 21.5t-92.5 58.5t-63.5 86t-23.5 104zM39 983q0 55 40 95t95 40h154q-57 0 -96 -40t-39 -95q0 -33 -23 -55.5t-53 -22.5q-33 0 -55.5 22.5t-22.5 55.5z M342 608q57 0 96 61.5t39 176.5v137q0 55 -39 95t-96 40h154q55 0 95 -40t40 -95v-137q0 -53 -20.5 -94t-55.5 -71t-80 -48.5t-96 -22.5q55 0 107.5 -22.5t91 -59t62.5 -86t24 -104.5v-68q0 -55 -24 -104t-63.5 -86t-92 -58.5t-107.5 -21.5q27 0 51.5 21.5t42.5 58.5 t29.5 86t11.5 104v68q0 113 -39 190.5t-94 81.5q-10 -2 -18.5 -2h-18.5z" />
<glyph unicode="4" horiz-adv-x="694" d="M-37 526q29 0 53.5 21.5t43 58.5t29.5 86t11 105v51q0 55 23.5 105.5t63.5 87t92.5 58t107.5 21.5q-29 0 -53.5 -21.5t-43 -58t-28.5 -87t-10 -105.5v-51q0 -55 -23.5 -104.5t-63.5 -86.5t-92.5 -58.5t-109.5 -21.5zM287 510q55 0 95 39t40 96v203q0 55 24.5 105.5 t64.5 87t92 58t108 21.5q-29 0 -53.5 -21.5t-43 -58t-29 -87t-10.5 -105.5l-2 -203q0 -57 -38.5 -96t-96.5 -39h-151zM338 0v356q0 57 39 96.5t96 39.5h152q-55 0 -95.5 -39t-40.5 -97v-356h-151z" />
<glyph unicode="5" horiz-adv-x="667" d="M43 135q0 31 22.5 53.5t55.5 22.5q31 0 53.5 -22.5t22.5 -53.5q0 -57 38.5 -96t96.5 -39h-152q-57 0 -97 39t-40 96zM74 678v440h153v-440h-153zM307 1118h154q55 0 95 -40t40 -95q0 -33 -22.5 -55.5t-53.5 -22.5q-33 0 -54.5 22.5t-21.5 55.5q0 55 -39.5 95t-97.5 40z M342 0q27 0 51.5 21.5t43 58.5t29.5 86t11 104v136q0 55 -11 105t-29.5 87t-43 58.5t-51.5 21.5q55 0 107.5 -21.5t92.5 -58.5t64.5 -87t24.5 -105v-136q0 -55 -24.5 -104t-64.5 -86t-92.5 -58.5t-107.5 -21.5z" />
<glyph unicode="6" horiz-adv-x="688" d="M43 272v576q0 55 23.5 105.5t63.5 87t92 58t108 21.5q-29 0 -53.5 -21.5t-43 -58t-28.5 -87t-10 -105.5v-576q0 -55 10 -105t28.5 -87t43 -58.5t53.5 -21.5q-55 0 -107.5 21.5t-92.5 58.5t-63.5 87t-23.5 105zM365 0q27 0 51 21.5t42.5 58.5t30 87t11.5 105v101 q0 57 -11.5 106t-30 86t-43 58.5t-50.5 21.5q55 0 107 -21.5t92 -58.5t63.5 -86t23.5 -106v-101q0 -55 -23.5 -105t-63.5 -87t-92 -58.5t-107 -21.5zM365 1120q55 0 107 -21.5t92 -58t63.5 -87t23.5 -105.5q0 -31 -21.5 -53.5t-54.5 -22.5q-31 0 -53 22.5t-22 53.5 q0 55 -11.5 105.5t-30 87t-43 58t-50.5 21.5z" />
<glyph unicode="7" horiz-adv-x="628" d="M27 983v2q0 55 38.5 95t96.5 40h151q-55 0 -95 -40t-40 -97q0 -31 -22.5 -53.5t-53.5 -22.5q-33 0 -54 22.5t-21 53.5zM43 0v373q0 57 23.5 106t63.5 86t92 58.5t110 21.5q-29 0 -53.5 -21.5t-43 -58.5t-29.5 -86t-11 -106v-373h-152zM313 645q29 0 53.5 21.5t43 58.5 t29 86t10.5 104v205h153v-205q0 -55 -24.5 -104t-64.5 -86t-92 -58.5t-108 -21.5z" />
<glyph unicode="8" horiz-adv-x="704" d="M37 272v84q0 55 24.5 105.5t64.5 87.5t92 58.5t108 21.5q-29 0 -53.5 -21.5t-43 -58.5t-29 -87t-10.5 -106v-84q0 -55 10.5 -105t29 -87t43 -58.5t53.5 -21.5q-55 0 -107.5 21.5t-92.5 58.5t-64.5 87t-24.5 105zM53 764v84q0 55 24.5 105.5t64.5 87t92.5 58t107.5 21.5 q-29 0 -53.5 -21.5t-43 -58t-28.5 -87t-10 -105.5v-84q0 -57 40 -96t95 -39h-152q-57 0 -97 39t-40 96zM360 629q27 0 51.5 21.5t43 58t30 86t11.5 104.5v86q0 55 -40 95t-96 40h152q57 0 96 -40t39 -95v-86q0 -55 -23.5 -104.5t-63.5 -86t-92 -58t-108 -21.5zM377 0 q27 0 51.5 21.5t42.5 58.5t29.5 87t11.5 105v84q0 55 -11.5 105.5t-29.5 87.5t-43 58.5t-51 21.5q55 0 107.5 -21.5t92 -58.5t64.5 -87t25 -106v-84q0 -55 -25 -105t-64.5 -87t-92 -58.5t-107.5 -21.5z" />
<glyph unicode="9" horiz-adv-x="651" d="M12 680v168q0 55 23.5 105.5t63.5 87t92.5 58t107.5 21.5q-29 0 -53.5 -21.5t-43 -58t-28.5 -87t-10 -105.5v-168q0 -57 40 -97t95 -40h-152q-57 0 -97 40t-38 97zM317 0q27 0 51.5 21.5t43 58.5t30 87t11.5 105v740q0 45 -40 76.5t-96 31.5h152q57 0 96 -31.5t39 -76.5 v-740q0 -55 -23.5 -105t-63.5 -87t-92 -58.5t-108 -21.5z" />
<glyph unicode=":" horiz-adv-x="190" d="M18 78q0 33 22.5 54.5t55.5 21.5t54.5 -22.5t21.5 -55.5t-22.5 -54.5t-55.5 -21.5t-54.5 22.5t-21.5 55.5zM18 602q0 33 22.5 55.5t55.5 20.5q33 0 54.5 -22.5t21.5 -55.5t-22.5 -54.5t-55.5 -21.5q-33 2 -54.5 24.5t-21.5 53.5z" />
<glyph unicode=";" horiz-adv-x="227" d="M-90 -195q29 0 54.5 21.5t44 58.5t29.5 87.5t11 105.5q0 31 21.5 53.5t54.5 22.5t55.5 -22.5t22.5 -53.5q0 -55 -24.5 -105.5t-64.5 -87.5t-93.5 -58.5t-110.5 -21.5zM49 602q0 33 22.5 55.5t55.5 20.5q33 0 54.5 -22.5t21.5 -55.5t-22.5 -54.5t-55.5 -21.5 q-33 2 -54.5 24.5t-21.5 53.5z" />
<glyph unicode="&#x3c;" horiz-adv-x="311" d="M2 348q29 0 53.5 21.5t43 58.5t28.5 86t10 104q0 33 22.5 55.5t55.5 22.5q31 0 53.5 -22.5t22.5 -55.5q0 -55 -24.5 -104t-64.5 -86t-92.5 -58.5t-107.5 -21.5zM2 348q55 0 107.5 -21.5t92.5 -58.5t64.5 -86t24.5 -106q0 -31 -22.5 -53.5t-53.5 -22.5q-33 0 -55.5 22.5 t-22.5 53.5q0 57 -10 106t-28.5 86t-43 58.5t-53.5 21.5z" />
<glyph unicode="=" horiz-adv-x="466" d="M39 203v102h407v-102h-407zM39 408v102h407v-102h-407z" />
<glyph unicode="&#x3e;" horiz-adv-x="311" d="M20 76q0 57 25 106t65 86t92 58.5t107 21.5q-29 0 -53.5 -21.5t-42.5 -58.5t-28.5 -86t-10.5 -106q0 -31 -22.5 -53.5t-53.5 -22.5q-33 0 -55.5 22.5t-22.5 53.5zM20 618q0 33 23 55.5t55 22.5q31 0 53.5 -22.5t22.5 -55.5q0 -55 10.5 -104t28.5 -86t43 -58.5t53 -21.5 q-55 0 -107 21.5t-92 58.5t-65 86t-25 104z" />
<glyph unicode="?" horiz-adv-x="770" d="M63 848q0 55 25 105.5t65 87t92 58t107 21.5q-29 0 -53.5 -21.5t-42.5 -58t-29.5 -87t-11.5 -105.5q0 -31 -21.5 -53.5t-54.5 -22.5q-31 0 -53.5 22.5t-22.5 53.5zM158 272h151q0 55 11.5 104.5t30 86.5t43 58.5t52.5 21.5q-57 0 -109 -21.5t-92 -58.5t-63.5 -86 t-23.5 -105zM180 76q0 33 22.5 55.5t53.5 22.5q33 0 55.5 -21.5t22.5 -54.5q2 -31 -20.5 -54.5t-53.5 -23.5q-33 0 -55.5 21.5t-24.5 54.5zM457 543q29 0 53.5 21.5t42.5 58t29.5 86t11.5 106.5v33q0 55 -11.5 105.5t-29.5 87t-43 58t-53 21.5q57 0 109 -21.5t92 -58 t63.5 -87t23.5 -105.5v-33q0 -57 -23.5 -106.5t-63.5 -86t-92 -58t-109 -21.5z" />
<glyph unicode="@" horiz-adv-x="1361" d="M35 70l51 577q6 55 31.5 104.5t65.5 86t91.5 58.5t106.5 22q-29 0 -54.5 -22t-47 -58.5t-37 -86t-21.5 -104.5l-51 -577q-4 -55 2 -104.5t21.5 -86.5t38 -58.5t51.5 -21.5q-55 0 -103.5 21.5t-82.5 58.5t-50 86t-12 105zM233 2q-4 -29 15.5 -53.5t54.5 -43t84 -28.5 t105 -10h372q55 0 106.5 10t89.5 28.5t61.5 43t27.5 53.5q-6 -55 -31.5 -104.5t-65.5 -86t-91.5 -58t-108.5 -21.5h-373q-55 0 -103 21.5t-81 58t-50.5 86t-11.5 104.5zM295 715q6 55 31.5 104t65.5 86t92.5 58.5t107.5 21.5h440q55 0 103.5 -21.5t82 -58.5t50 -86 t12.5 -104q2 27 -17.5 51.5t-54 42.5t-84 29.5t-104.5 11.5h-440q-55 0 -106.5 -11.5t-89.5 -29.5t-62.5 -43t-26.5 -51zM381 137l35 408q6 57 49 96t98 39h137q-57 0 -100 -39t-47 -96l-37 -408q-4 -55 32 -95t91 -40h-135q-57 0 -93 40t-30 95zM700 680h136q57 0 93 -39 t29 -96l-34 -408q-6 -55 29.5 -95t93.5 -40h-136q-57 0 -93 40t-32 95l37 408q4 57 -31.5 96t-91.5 39zM1047 2q29 0 50 21.5t36.5 58.5t24.5 87t13 105l23 238q4 55 -2 104.5t-21.5 86t-38 58t-51.5 21.5q55 0 103.5 -21.5t82 -58t50 -86t12.5 -104.5l-20 -238 q-6 -55 -26.5 -105t-54.5 -87t-80 -58.5t-101 -21.5z" />
<glyph unicode="A" horiz-adv-x="757" d="M72 0v848q0 55 24.5 104t66.5 86t95 58.5t109 21.5q-29 0 -53.5 -21.5t-43 -58.5t-29 -86t-10.5 -104v-389q6 -66 51.5 -109t110.5 -43h-162v-307h-159zM342 393h160v455q0 55 -10.5 104t-29 86t-43 58.5t-52.5 21.5q55 0 109 -21.5t95 -58.5t67 -86t26 -104v-848 q0 -55 10 -105.5t28.5 -87t43 -58t53.5 -21.5q-55 0 -109.5 21.5t-95.5 58t-66.5 87t-25.5 105.5v250q-8 61 -51 102t-109 41z" />
<glyph unicode="B" horiz-adv-x="829" d="M0 -268q27 0 51.5 21.5t43 58t29.5 86t11 104.5v981q0 57 40 96t95 39h162q-57 0 -97 -39t-40 -96v-981q0 -55 -24.5 -104.5t-66.5 -86t-95.5 -58t-108.5 -21.5zM430 559q29 0 53.5 21.5t43 58.5t28.5 86t10 106v287h162v-287q0 -57 -25.5 -106t-66.5 -86t-95.5 -58.5 t-109.5 -21.5zM461 0q57 0 96 39t39 96v289q0 55 -39 95t-96 40h162q55 0 95 -40t40 -95v-289q0 -57 -40 -96t-95 -39h-162z" />
<glyph unicode="C" horiz-adv-x="704" d="M72 270v578q0 55 24.5 104t66.5 86t95 58.5t109 21.5q-29 0 -53.5 -21.5t-43 -58.5t-29 -86t-10.5 -104v-578q0 -55 10.5 -104t29 -86t43 -58.5t53.5 -21.5q-55 0 -108.5 21.5t-95.5 58.5t-66.5 86t-24.5 104zM367 0q57 0 97 39t40 96q0 35 22.5 57.5t57.5 22.5 t57.5 -22.5t22.5 -57.5q0 -57 -39 -96t-97 -39h-161zM367 1118h161q57 0 96.5 -39t39.5 -96q0 -35 -23 -57.5t-57 -22.5q-35 0 -57.5 22.5t-22.5 57.5q0 57 -40 96t-97 39z" />
<glyph unicode="D" d="M72 0v983q0 57 39 96t96 39h160q-55 0 -95.5 -39t-40.5 -96v-983h-159zM367 0q29 0 53 21.5t42.5 58.5t30 86t11.5 104v578q0 55 -11.5 104t-30 86t-42.5 58.5t-53 21.5q55 0 109 -21.5t95 -58.5t67 -86t26 -104v-578q0 -55 -26 -104t-67 -86t-95 -58.5t-109 -21.5z" />
<glyph unicode="E" horiz-adv-x="706" d="M72 135v848q0 57 40 96t97 39h160q-55 0 -95.5 -39t-40.5 -96v-848q0 -57 40 -96t96 -39h-160q-57 0 -97 39t-40 96zM238 451q57 0 97 39.5t40 97.5q0 33 22.5 56.5t57.5 23.5q33 0 56.5 -23.5t23.5 -56.5q0 -57 -40 -97t-96 -40h-161zM369 0q57 0 96 39t39 96 q0 35 23.5 57.5t58.5 22.5q33 0 56.5 -22.5t23.5 -57.5q0 -57 -40 -96t-96 -39h-161zM369 1118h161q55 0 95.5 -39t40.5 -96q0 -35 -24 -57.5t-56 -22.5q-35 0 -58.5 22.5t-23.5 57.5q0 57 -39 96t-96 39z" />
<glyph unicode="F" horiz-adv-x="657" d="M-31 -272q29 0 53.5 21.5t43 58t29.5 87t11 105.5v983q0 57 39 96t97 39h159q-55 0 -95 -39t-40 -96v-983q0 -55 -25.5 -105.5t-66.5 -87t-95 -58t-110 -21.5zM270 463q57 0 97.5 39t40.5 96q0 33 22 56.5t57 23.5t57.5 -23.5t22.5 -56.5q0 -57 -40 -96t-95 -39h-162z M401 1118h162q55 0 95 -39t40 -96q0 -35 -23.5 -57.5t-56.5 -22.5q-35 0 -58 22.5t-23 57.5q0 57 -39 96t-97 39z" />
<glyph unicode="G" horiz-adv-x="718" d="M72 270v578q0 55 25.5 104t66.5 86t95.5 58.5t109.5 21.5q-29 0 -53.5 -21.5t-43 -58.5t-30 -86t-11.5 -104v-578q0 -55 11.5 -104t30 -86t43 -58.5t53.5 -21.5q-55 0 -109.5 21.5t-95.5 58.5t-66.5 86t-25.5 104zM369 393h159q57 0 96.5 -40t39.5 -95v-258 q0 -55 11 -105.5t29.5 -87t43 -58t53.5 -21.5q-57 0 -110.5 21.5t-95.5 58t-66.5 87t-24.5 105.5v258q0 55 -40 95t-95 40zM369 1118h159q57 0 96.5 -39t39.5 -96q0 -35 -23 -57.5t-57 -22.5q-35 0 -57.5 22.5t-22.5 57.5q0 57 -40 96t-95 39z" />
<glyph unicode="H" horiz-adv-x="800" d="M0 1118h162q55 0 95 -39t40 -96v-432q4 -66 49 -112t113 -46h-162v-393q0 -55 10 -105.5t28.5 -87t43 -58t53.5 -21.5q-55 0 -109.5 21.5t-95.5 58t-66.5 87t-25.5 105.5v983q0 57 -39 96t-96 39zM406 479h161v504q0 57 -39 96t-96 39h162q55 0 95 -39t40 -96v-983h-162 v313q-2 70 -47 118t-114 48z" />
<glyph unicode="I" horiz-adv-x="368" d="M0 1118h162q55 0 95 -39t40 -96v-983h-162v983q0 57 -39 96t-96 39z" />
<glyph unicode="J" horiz-adv-x="481" d="M0 983q0 57 40 96t95 39h162q-57 0 -96 -39t-39 -96q0 -35 -23.5 -57.5t-58.5 -22.5q-33 0 -56.5 22.5t-23.5 57.5zM92 -272q27 0 51.5 21.5t43 58t29.5 87t11 105.5v983q0 57 39 96t96 39h160q-55 0 -95 -39t-40 -96v-983q0 -55 -24.5 -105.5t-66.5 -87t-95.5 -58 t-108.5 -21.5z" />
<glyph unicode="K" horiz-adv-x="804" d="M-20 1118q55 0 108 -21.5t95 -58.5t66.5 -86t24.5 -104v-848h-159v848q0 55 -11.5 104t-30 86t-42.5 58.5t-51 21.5zM358 393q29 0 53.5 21.5t43 58.5t30 86t11.5 105v323q0 55 38.5 93t96.5 38h160q-55 0 -95.5 -38t-40.5 -93v-323q0 -55 -25.5 -104.5t-66.5 -86.5 t-95 -58.5t-110 -21.5zM414 393q55 0 109.5 -21.5t95 -58.5t66.5 -86t26 -106v-121q0 -55 10 -105.5t28.5 -87t43 -58t53.5 -21.5q-55 0 -108.5 21.5t-95.5 58t-66.5 87t-24.5 105.5v121q0 57 -11.5 106t-29.5 86t-43 58.5t-53 21.5z" />
<glyph unicode="L" horiz-adv-x="677" d="M0 1118q55 0 109.5 -21.5t95.5 -58.5t66.5 -86t25.5 -104v-848h-162v848q0 55 -10 104t-28.5 86t-43 58.5t-53.5 21.5zM381 0q57 0 97 39t40 96q0 35 22.5 57.5t57.5 22.5t57.5 -22.5t22.5 -57.5q0 -57 -40 -96t-95 -39h-162z" />
<glyph unicode="M" horiz-adv-x="1001" d="M-31 1118q57 0 110.5 -21.5t94.5 -58.5t66.5 -86t25.5 -104v-848h-160v848q0 55 -11 104t-29.5 86t-43 58.5t-53.5 21.5zM291 1118q55 0 109.5 -21.5t95.5 -58.5t66.5 -86t25.5 -104v-848h-162v848q0 55 -10 104t-28.5 86t-43 58.5t-53.5 21.5zM610 1118 q57 0 110.5 -21.5t94.5 -58.5t66.5 -86t25.5 -104v-848q0 -55 10.5 -105.5t29 -87t43 -58t52.5 -21.5q-55 0 -108 21.5t-95 58t-66.5 87t-24.5 105.5v848q0 55 -11.5 104t-30 86t-43 58.5t-53.5 21.5z" />
<glyph unicode="N" horiz-adv-x="849" d="M-31 1118q55 0 109.5 -21.5t95.5 -58.5t66.5 -86t25.5 -104v-848h-162v848q0 55 -10 104t-28.5 86t-43 58.5t-53.5 21.5zM276 642q0 46 19 89q-4 -11 -4 -22q0 -33 34 -74q46 -55 130 -90q43 -18 71.5 -52t43 -77t14.5 -90t-19 -88q4 11 4 22q0 33 -34 74q-46 55 -129 90 q-43 18 -72 52t-43.5 77t-14.5 89zM459 1118q55 0 109.5 -21.5t95.5 -58.5t66.5 -86t25.5 -104v-848q0 -55 10 -105.5t28.5 -87t43 -58t53.5 -21.5q-55 0 -109.5 21.5t-95.5 58t-66.5 87t-25.5 105.5v848q0 55 -10.5 104t-28.5 86t-43 58.5t-53 21.5z" />
<glyph unicode="O" d="M72 135v713q0 55 24.5 104t66.5 86t95 58.5t109 21.5q-29 0 -53.5 -21.5t-43 -58.5t-29 -86t-10.5 -104v-713q0 -57 40 -96t96 -39h-160q-57 0 -96 39t-39 96zM367 0q29 0 53 21.5t42.5 58.5t30 86t11.5 104v713q0 57 -40 96t-97 39h161q57 0 96.5 -39t39.5 -96v-713 q0 -55 -26 -104t-67 -86t-94 -58.5t-110 -21.5z" />
<glyph unicode="P" horiz-adv-x="677" d="M-31 1118q57 0 110.5 -21.5t94.5 -58.5t66.5 -86t25.5 -104v-848h-160v848q0 55 -11 104t-29.5 86t-43 58.5t-53.5 21.5zM350 393q29 0 53.5 21.5t43 58.5t28.5 86t10 105v323q0 55 -38.5 95t-96.5 40h162q55 0 95 -40t40 -95v-323q0 -55 -25.5 -104.5t-66.5 -86.5 t-95 -58.5t-110 -21.5z" />
<glyph unicode="Q" horiz-adv-x="757" d="M72 135v713q0 55 24.5 104t66.5 86t95 58.5t111 21.5q-29 0 -53.5 -21.5t-43 -58.5t-30 -86t-11.5 -104v-713q0 -57 40 -96t98 -39h-162q-57 0 -96 39t-39 96zM197 -6q8 -20 31.5 -31.5t55.5 -12.5h7q30 0 65 8q39 8 80 26q37 16 76 16h9q44 -2 84 -19.5t72 -48t50 -71.5 q-8 20 -31.5 31.5t-56.5 12.5h-7q-30 0 -65 -7q-39 -9 -80 -27q-37 -16 -76 -16h-9q-44 2 -83.5 19t-71.5 48t-50 72zM369 0q27 0 51 21.5t42.5 58.5t30 86t11.5 104v713q0 57 -40 96t-95 39h159q57 0 96.5 -39t39.5 -96v-713q0 -55 -25 -104t-67 -86t-95 -58.5t-108 -21.5z " />
<glyph unicode="R" horiz-adv-x="749" d="M72 0v848q0 55 25.5 104t66.5 86t95 58.5t110 21.5q-29 0 -53.5 -21.5t-43 -58.5t-29 -86t-10.5 -104v-848h-161zM369 393q27 0 51 21.5t42.5 58.5t30 86t11.5 105v319q0 57 -40 96t-95 39h159q57 0 97.5 -39t40.5 -96v-319q0 -55 -26 -104.5t-67 -86.5t-95 -58.5 t-109 -21.5zM369 393q55 0 109 -21.5t95 -58.5t67 -86t26 -106v-121q0 -55 10 -105.5t28.5 -87t43 -58t53.5 -21.5q-55 0 -109.5 21.5t-95.5 58t-66.5 87t-25.5 105.5v121q0 57 -11.5 106t-30 86t-43 58.5t-50.5 21.5z" />
<glyph unicode="S" horiz-adv-x="737" d="M72 135q0 35 23.5 57.5t56.5 22.5q35 0 58 -22.5t23 -57.5q0 -57 39 -96t97 -39h-162q-55 0 -95 39t-40 96zM74 694v154q0 55 24.5 104t66.5 86t95 58.5t109 21.5q-29 0 -53.5 -21.5t-43 -58.5t-29 -86t-10.5 -104l-2 -154q0 -55 40 -95t98 -40h-160q-55 0 -95 40t-40 95 zM369 0q29 0 53 21.5t42.5 58.5t29 86t10.5 104l2 154q0 55 -39 95t-96 40h157q57 0 96.5 -40t39.5 -95l2 -154q0 -55 -26 -104t-67 -86t-95 -58.5t-109 -21.5zM369 1118h161q55 0 95.5 -39t40.5 -96q0 -35 -24 -57.5t-56 -22.5q-35 0 -58.5 22.5t-23.5 57.5q0 57 -39 96 t-96 39z" />
<glyph unicode="T" horiz-adv-x="753" d="M0 983q0 57 40 96t95 39h162q-57 0 -96 -39t-39 -96q0 -35 -23.5 -57.5t-58.5 -22.5q-33 0 -56.5 22.5t-23.5 57.5zM297 0v1118h160v-1118h-160zM457 1118h161q55 0 95.5 -39t40.5 -96q0 -35 -23.5 -57.5t-56.5 -22.5q-35 0 -57.5 22.5t-22.5 57.5q0 57 -40 96t-97 39 h161q55 0 95.5 -39t40.5 -96q0 -35 -23.5 -57.5t-56.5 -22.5q-35 0 -57.5 22.5t-22.5 57.5q0 57 -40 96t-97 39z" />
<glyph unicode="U" horiz-adv-x="731" d="M72 135v983h157v-983q0 -57 40 -96t96 -39h-158q-57 0 -96 39t-39 96zM365 0q57 0 97 39t40 96v983h157v-983q0 -57 -39.5 -96t-95.5 -39h-159z" />
<glyph unicode="V" horiz-adv-x="821" d="M-20 1118q55 0 108 -21.5t95 -58.5t66.5 -86t24.5 -104v-578q0 -55 10.5 -104t29 -86t43 -58.5t53.5 -21.5q-55 0 -108.5 21.5t-95.5 58.5t-66.5 86t-24.5 104v578q0 55 -11.5 104t-30 86t-43 58.5t-50.5 21.5zM410 0q29 0 53 21.5t42.5 58.5t30 86t11.5 104v578 q0 55 24.5 104t66.5 86t95.5 58.5t108.5 21.5q-29 0 -53.5 -21.5t-43 -58.5t-29.5 -86t-11 -104v-578q0 -55 -25 -104t-67 -86t-95 -58.5t-108 -21.5z" />
<glyph unicode="W" horiz-adv-x="1132" d="M0 1118h160q57 0 96 -39t39 -96l2 -848q0 -57 39 -96t96 -39h-160q-57 0 -96 39t-39 96v848q0 57 -40 96t-97 39zM427 312q5 56 36 102l74 116q31 47 48 95.5t21 89.5q1 13 1 24q0 26 -6 48q-9 31 -34 47q47 -31 81 -77q34 -47 50 -101q11 -40 11 -80q1 -14 -1 -29 q-6 -55 -36 -103l-74 -116q-31 -47 -48.5 -95.5t-21.5 -89.5q-1 -12 -1 -23q1 -26 7 -48q10 -30 33 -45q-47 31 -81 77q-32 46 -48 99q-12 40 -12 82q0 13 1 27zM702 0q27 0 51.5 21.5t43 58.5t30 86t11.5 104v713q0 57 40 96t97 39h158q-55 0 -95.5 -39t-40.5 -96v-713 q0 -55 -24.5 -104t-66.5 -86t-95 -58.5t-109 -21.5z" />
<glyph unicode="X" horiz-adv-x="864" d="M0 0q55 0 95 38t40 93v158q0 55 24.5 104t66.5 86t95.5 58.5t110.5 21.5q-29 0 -53.5 -21.5t-43 -58.5t-29.5 -86t-11 -104v-158q0 -55 -39 -93t-96 -38h-160zM0 1118q55 0 108.5 -21.5t95.5 -58.5t66.5 -86t24.5 -104v-156q0 -57 40 -95t97 -38h-162q-55 0 -95 38 t-40 95v156q0 55 -11 104t-29.5 86t-43 58.5t-51.5 21.5zM432 559q27 0 51.5 21.5t43 58.5t29.5 86t11 106v156q0 55 39 93t96 38h162q-57 0 -97 -38t-40 -93v-156q0 -57 -24.5 -106t-66.5 -86t-95.5 -58.5t-108.5 -21.5zM438 559q55 0 108.5 -21.5t95.5 -58.5t66.5 -86 t24.5 -104v-289h-160v289q0 55 -11 104t-29.5 86t-43 58.5t-51.5 21.5z" />
<glyph unicode="Y" horiz-adv-x="747" d="M-31 1118q57 0 110.5 -21.5t94.5 -58.5t65.5 -86t24.5 -104v-268q0 -57 40 -96.5t97 -39.5h-159q-57 0 -96.5 39t-39.5 97v268q0 55 -11 104t-29.5 86t-43 58.5t-53.5 21.5zM88 -139q0 57 21.5 110.5t58.5 94t86 66.5t104 26t105.5 10t87.5 28.5t58.5 43t21.5 53.5 q0 -55 -21.5 -108.5t-58.5 -95.5t-87 -66.5t-106 -24.5q-55 0 -104 -11.5t-86 -29.5t-58.5 -43t-21.5 -53zM129 88q0 55 21.5 109.5t58.5 95.5t86 66.5t106 25.5q55 0 104.5 10.5t86.5 28.5t58.5 43t21.5 53q0 -55 -21.5 -109.5t-58.5 -95.5t-86 -66.5t-105 -25.5 q-57 0 -106 -10t-86 -28.5t-58.5 -43t-21.5 -53.5zM401 444q27 0 51.5 21.5t43 58.5t30 86t11.5 105v403h159v-403q0 -55 -24.5 -104.5t-66.5 -86.5t-95 -58.5t-109 -21.5z" />
<glyph unicode="Z" d="M72 0v201q0 55 24.5 104t66.5 86t95 58.5t109 21.5q-29 0 -53.5 -21.5t-43 -58.5t-29 -86t-10.5 -104v-201h-159zM72 983q0 57 39 96t96 39h160q-55 0 -95.5 -39t-40.5 -96q0 -35 -23 -57.5t-56 -22.5q-35 0 -57.5 22.5t-22.5 57.5zM100 494q18 41 51 71.5t73 48.5t83 18 q1 0 2 -1q42 0 82 -17q77 -33 143 -33q6 1 10 1q70 2 89 43q-18 -41 -51 -72t-73 -48.5t-83 -18.5h-4q-41 0 -80 18q-78 33 -145 33h-7q-70 -2 -90 -43zM367 0q55 0 95 39t40 96q0 35 23.5 57.5t56.5 22.5q35 0 58.5 -22.5t23.5 -57.5q0 -57 -40 -96t-98 -39h-159zM367 647 q29 0 53 21.5t42.5 58.5t29 86t10.5 105v200h160v-200q0 -55 -25 -104.5t-67 -86.5t-95 -58.5t-108 -21.5z" />
<glyph unicode="[" horiz-adv-x="366" d="M88 -102v1288q0 57 40 96t97 39h135q-57 0 -96 -39t-39 -96v-1288q0 -57 39 -96.5t96 -39.5h-135q-57 0 -97 39t-40 97z" />
<glyph unicode="\" horiz-adv-x="702" d="M10 1290h135l545 -1493h-137z" />
<glyph unicode="]" horiz-adv-x="409" d="M6 -238q57 0 97 39t40 97v1288q0 57 -40 96t-97 39h137q55 0 95.5 -39t40.5 -96v-1288q0 -57 -40 -96.5t-96 -39.5h-137z" />
<glyph unicode="^" horiz-adv-x="815" d="M59 1110q0 31 22.5 53.5t53.5 22.5q57 0 106.5 10t86.5 28.5t58.5 43t21.5 53.5q0 -55 -21.5 -107.5t-58.5 -92.5t-86 -63.5t-107 -23.5q-31 0 -53.5 21.5t-22.5 54.5zM408 1321q0 -29 21.5 -53.5t58 -43t86 -28.5t104.5 -10q33 0 55.5 -22.5t22.5 -53.5 q0 -33 -22.5 -54.5t-55.5 -21.5q-55 0 -104.5 23.5t-86 63.5t-58 92.5t-21.5 107.5z" />
<glyph unicode="_" horiz-adv-x="1001" d="M127 -102h745v-101h-745v101z" />
<glyph unicode="`" horiz-adv-x="317" d="M102 985v135q0 -55 40 -95t96 -40q29 0 48 -19.5t19 -47.5q0 -29 -19.5 -48.5t-47.5 -19.5q-55 0 -95.5 39t-40.5 96v135q0 -55 40 -95t96 -40q29 0 48 -19.5t19 -47.5q0 -29 -19.5 -48.5t-47.5 -19.5q-55 0 -95.5 39t-40.5 96v135q0 -55 40 -95t96 -40q29 0 48 -19.5 t19 -47.5q0 -29 -19.5 -48.5t-47.5 -19.5q-55 0 -95.5 39t-40.5 96v135q0 -55 40 -95t96 -40q29 0 48 -19.5t19 -47.5q0 -29 -19.5 -48.5t-47.5 -19.5q-55 0 -95.5 39t-40.5 96z" />
<glyph unicode="a" horiz-adv-x="794" d="M72 137v121q0 57 40 96t95 39h160q-57 0 -97.5 -39t-40.5 -96v-121q0 -57 40 -97t98 -40h-160q-55 0 -95 40t-40 97zM92 543q0 57 40 96t95 39h162q-57 0 -97 -39t-40 -96q0 -33 -22.5 -56.5t-57.5 -23.5t-57.5 23.5t-22.5 56.5zM389 678h166q55 0 95 -39t40 -96v-406 q0 -57 40 -97t95 -40h-166q-57 0 -96 40t-39 97v406q0 57 -40 96t-95 39z" />
<glyph unicode="b" horiz-adv-x="757" d="M-41 1188q57 0 110.5 -21.5t94.5 -58.5t66.5 -87t25.5 -106v-778q0 -57 40 -97t95 -40h-160q-57 0 -96 40t-39 97v778q0 55 -11 105.5t-29.5 87.5t-43 58.5t-53.5 21.5zM391 0q57 0 97 40t40 97v406q0 57 -39.5 96t-97.5 39h160q57 0 96 -39t39 -96v-406q0 -57 -39 -97 t-96 -40h-160z" />
<glyph unicode="c" horiz-adv-x="704" d="M72 137v406q0 57 40 96t95 39h160q-57 0 -96.5 -39t-39.5 -96v-406q0 -57 39 -97t97 -40h-160q-55 0 -95 40t-40 97zM367 0q55 0 95 40t40 97q0 33 23.5 56.5t56.5 23.5q35 0 58.5 -23.5t23.5 -56.5q0 -57 -40 -97t-98 -40h-159zM367 678h159q57 0 97.5 -39t40.5 -96 q0 -33 -24 -56.5t-58 -23.5q-33 0 -56.5 23.5t-23.5 56.5q0 57 -40 96t-95 39z" />
<glyph unicode="d" horiz-adv-x="743" d="M72 137v406q0 57 40 96t95 39h160q-57 0 -96.5 -39t-39.5 -96v-406q0 -57 39 -97t97 -40h-160q-55 0 -95 40t-40 97zM334 1188q55 0 108.5 -21.5t95.5 -58.5t66.5 -87t24.5 -106v-780q0 -55 40 -95t97 -40h-162q-55 0 -95 40t-40 95v780q0 55 -11.5 105.5t-29.5 87.5 t-43 58.5t-51 21.5z" />
<glyph unicode="e" d="M72 137v406q0 57 40 96t95 39h160q-57 0 -96.5 -39t-39.5 -96v-406q0 -57 39 -97t97 -40h-160q-55 0 -95 40t-40 97zM367 0q55 0 95 40t40 97q0 33 23.5 56.5t56.5 23.5q35 0 58.5 -23.5t23.5 -56.5q0 -57 -40 -97t-98 -40h-159zM367 285q55 0 95 40t40 97v121 q0 57 -40 96t-95 39h157q57 0 96 -39t39 -96v-121q0 -57 -38.5 -97t-96.5 -40h-157z" />
<glyph unicode="f" horiz-adv-x="425" d="M0 0q57 0 96 40t39 95v780q0 55 25.5 105.5t66.5 87.5t95.5 58.5t109.5 21.5q-29 0 -53.5 -21.5t-43 -58.5t-28.5 -87t-10 -106v-204h160q-66 0 -112 -46.5t-48 -111.5v-418q0 -55 -40 -95t-95 -40h-162z" />
<glyph unicode="g" horiz-adv-x="751" d="M72 -49q0 -29 21.5 -53.5t58 -43t86 -28.5t106.5 -10h191q57 0 96 -38t39 -93v-162q0 57 -39 96t-96 39h-191q-57 0 -106.5 24.5t-86 65.5t-58 94.5t-21.5 108.5zM72 336v176q0 57 40 96t95 39h162q-57 0 -96.5 -39t-39.5 -96v-176q0 -55 39 -95t97 -40h-162 q-55 0 -95 40t-40 95zM121 68v151q0 -55 39 -95t96 -40h283q55 0 95 -40t40 -95v-152q0 55 -40 95t-95 40h-283q-57 0 -96 40t-39 96zM338 168q57 0 97 39t40 96v270q0 57 39 97.5t96 40.5h162q-57 0 -96 -40t-39 -98v-270q0 -57 -40 -96t-95 -39h-164z" />
<glyph unicode="h" horiz-adv-x="737" d="M-31 1188q55 0 109.5 -21.5t95.5 -59.5t66.5 -88t25.5 -106v-913h-160v913q0 55 -11 105.5t-29.5 88.5t-43 59.5t-53.5 21.5zM371 678h159q57 0 96.5 -39t39.5 -96v-543h-158v543q0 57 -40 96t-97 39z" />
<glyph unicode="i" horiz-adv-x="309" d="M72 934q0 35 23.5 59.5t58.5 24.5t59.5 -24.5t24.5 -59.5t-24.5 -58.5t-59.5 -23.5t-58.5 23.5t-23.5 58.5zM78 0v678h153v-678h-153z" />
<glyph unicode="j" horiz-adv-x="305" d="M-61 -477q29 0 53 21.5t42.5 58.5t29 87t10.5 107v881h155v-678v-203q0 -57 -24.5 -107t-64.5 -87t-93 -58.5t-108 -21.5zM68 934q0 35 24.5 59.5t59.5 24.5t58 -24.5t23 -59.5t-23 -58.5t-58 -23.5t-59.5 23.5t-24.5 58.5z" />
<glyph unicode="k" horiz-adv-x="759" d="M-31 1188q55 0 109.5 -21.5t95.5 -58.5t66.5 -87t25.5 -106v-915h-160v915q0 55 -11 105.5t-29.5 87.5t-43 58.5t-53.5 21.5zM309 408q55 0 95 39.5t40 95.5q0 57 39 96t97 39h159q-57 0 -97 -39t-40 -96h2q0 -55 -40 -95t-97 -40h70q57 0 97 -40t40 -96v-272h-160v272 q0 55 -40 95.5t-95 40.5h-70z" />
<glyph unicode="l" horiz-adv-x="368" d="M-31 1188q55 0 108.5 -21.5t95.5 -58.5t66.5 -87t24.5 -106v-780q0 -55 40 -95t95 -40h-159q-57 0 -96.5 40t-39.5 95v780q0 55 -11 105.5t-29.5 87.5t-43 58.5t-51.5 21.5z" />
<glyph unicode="m" horiz-adv-x="923" d="M-31 678h158q57 0 97 -39t40 -96v-543h-160v543q0 57 -38.5 96t-96.5 39zM264 678h158q57 0 96 -39t39 -96v-543h-158v543q0 57 -40 96t-95 39zM557 678h160q55 0 95 -39t40 -96v-543h-160v543q0 57 -39 96t-96 39z" />
<glyph unicode="n" horiz-adv-x="731" d="M72 0v543q0 57 40 96t95 39h160q-57 0 -97.5 -39t-40.5 -96v-543h-157zM367 678h157q57 0 96 -39t39 -96v-543h-157v543q0 57 -40 96t-95 39z" />
<glyph unicode="o" horiz-adv-x="733" d="M72 137v406q0 57 40 96t95 39h160q-55 0 -95.5 -39t-40.5 -96v-406q0 -57 40 -97t96 -40h-160q-55 0 -95 40t-40 97zM367 0q57 0 96 40t39 97v406q0 57 -39 96t-96 39h159q57 0 96.5 -39t39.5 -96v-406q0 -57 -39 -97t-97 -40h-159z" />
<glyph unicode="p" horiz-adv-x="745" d="M-31 678h160q57 0 97 -39t40 -96v-750q0 -55 10.5 -104t29 -86t43 -58.5t52.5 -21.5q-55 0 -109 21.5t-95 58.5t-67 86t-26 104v750q0 57 -38.5 96t-96.5 39zM369 0q55 0 95 40t40 95v408q0 57 -40 96t-95 39h157q57 0 97.5 -39t40.5 -96v-408q0 -55 -40 -95t-98 -40 h-157z" />
<glyph unicode="q" horiz-adv-x="733" d="M82 135v408q0 57 40 96t97 39h158q-55 0 -95 -39t-40 -96v-408q0 -55 40 -95t95 -40h-158q-57 0 -97 40t-40 95zM354 -477q29 0 53.5 21.5t43 58.5t28.5 86t10 104v885h162v-885q0 -55 -25.5 -104t-66.5 -86t-95 -58.5t-110 -21.5z" />
<glyph unicode="r" horiz-adv-x="575" d="M-20 678q55 0 108 -21.5t95 -58.5t66.5 -86t24.5 -104v-408h-159v408q0 55 -10.5 104t-29 86t-42.5 58.5t-53 21.5zM236 543l112 112q41 41 96.5 41t96.5 -41q23 -23 23 -55q0 -34 -23 -57t-56.5 -23t-58.5 23q-39 41 -94.5 41t-95.5 -41z" />
<glyph unicode="s" horiz-adv-x="739" d="M72 463v80q0 57 40 96t97 39h158q-57 0 -96.5 -39t-39.5 -96v-80q0 -57 39 -97t97 -40h-158q-57 0 -97 40t-40 97zM78 137q0 33 23.5 56.5t58.5 23.5q33 0 56.5 -23.5t23.5 -56.5q0 -57 39.5 -97t95.5 -40h-160q-57 0 -97 40t-40 97zM367 678h159q57 0 96.5 -39t39.5 -96 q0 -33 -23 -56.5t-57 -23.5q-33 0 -56.5 23.5t-23.5 56.5q0 57 -40 96t-95 39zM375 0q57 0 96 40t39 97v84q0 57 -39 96t-96 39h157q57 0 96.5 -38.5t39.5 -96.5v-84q0 -57 -39 -97t-97 -40h-157z" />
<glyph unicode="t" horiz-adv-x="389" d="M-72 711h162v204q0 55 -11 105.5t-29.5 87.5t-43 58.5t-51.5 21.5q55 0 108.5 -21.5t95.5 -58.5t66.5 -87t24.5 -106v-204h160q-61 0 -106.5 -42t-53.5 -102v-432q0 -55 40 -95t97 -40h-162q-57 0 -96 40t-39 95v418q-2 63 -49 110.5t-113 47.5z" />
<glyph unicode="u" horiz-adv-x="731" d="M72 137v541h157v-541q0 -57 40 -97t96 -40h-158q-57 0 -96 40t-39 97zM365 0q57 0 97 40t40 97v541h157v-541q0 -57 -39.5 -97t-95.5 -40h-159z" />
<glyph unicode="v" horiz-adv-x="741" d="M-20 678h159q55 0 95 -39t40 -96v-406q0 -57 40 -97t96 -40h-160q-55 0 -95 40t-40 97v406q0 57 -39 96t-96 39zM330 29q29 0 53.5 21.5t42.5 58t28.5 86t10.5 104.5v139q0 55 25.5 105.5t66.5 87.5t95.5 58.5t109.5 21.5q-29 0 -53.5 -21.5t-43 -58.5t-28.5 -87 t-10 -106v-139q0 -55 -26 -104.5t-66.5 -86t-95 -58t-109.5 -21.5z" />
<glyph unicode="w" horiz-adv-x="1015" d="M-20 678h159q55 0 95 -39t40 -96v-406q0 -57 40 -97t96 -40h-158q-57 0 -97 40t-40 97v406q0 57 -39 96t-96 39zM319 57q29 0 53.5 21.5t43 58.5t30 86t11.5 105q0 35 22.5 57.5t57.5 22.5t57 -23t22 -57q0 -55 -25.5 -104.5t-66.5 -86.5t-94 -58.5t-111 -21.5zM639 0 q29 0 53.5 21.5t43 58.5t28.5 87t10 105v166q0 55 -10 105.5t-28.5 87.5t-43 58.5t-53.5 21.5q55 0 109.5 -21.5t95.5 -58.5t66.5 -87t25.5 -106v-166q0 -55 -25.5 -105t-66.5 -87t-95.5 -58.5t-109.5 -21.5z" />
<glyph unicode="x" d="M72 0v102q0 55 25.5 104.5t66.5 86.5t95 58.5t110 21.5h159q55 0 95.5 -39t40.5 -96v-238h-160v238q0 57 -39 96t-96 39q-29 0 -53.5 -21.5t-43 -58.5t-29 -86t-10.5 -105v-102h-161zM74 510v168h157l2 -168q0 -57 39 -97t97 -40h-160q-57 0 -96 40t-39 97zM369 373 q27 0 51 21.5t42.5 58t30 87t11.5 105.5v33h160v-33q0 -55 -25 -105.5t-67 -87t-95 -58t-108 -21.5z" />
<glyph unicode="y" d="M72 -270q0 35 23.5 58.5t56.5 23.5q35 0 58 -23.5t23 -58.5q0 -55 39 -95.5t97 -40.5h-162q-55 0 -95 40t-40 96zM96 135v543h160v-543q0 -55 39 -95t96 -40h-160q-55 0 -95 40t-40 95zM369 -406q27 0 51 22t42.5 58.5t30 86t11.5 104.5v813h160v-813q0 -55 -25 -104.5 t-67 -86t-95 -58.5t-108 -22z" />
<glyph unicode="z" horiz-adv-x="704" d="M61 0v102q0 55 25 104.5t67 86.5t95 58.5t108 21.5q29 0 53.5 21.5t43 58t29 87t10.5 105.5v33h161v-33q0 -55 -25.5 -105.5t-66.5 -87t-95.5 -58t-109.5 -21.5q-29 0 -53 -21.5t-42.5 -58.5t-29 -86t-10.5 -105v-102h-160zM74 543q0 57 39 96t96 39h160q-55 0 -95.5 -39 t-40.5 -96q0 -33 -22 -56.5t-57 -23.5t-57.5 23.5t-22.5 56.5zM344 0q55 0 95 40t40 97q0 33 23.5 56.5t56.5 23.5q35 0 58.5 -23.5t23.5 -56.5q0 -57 -40 -97t-97 -40h-160z" />
<glyph unicode="{" horiz-adv-x="460" d="M16 541h136q55 0 95 -39t40 -96v-306q0 -55 10 -104t28.5 -86t43 -58.5t53.5 -21.5q-55 0 -104.5 21.5t-86 58.5t-58 86t-21.5 104v306q0 57 -40 96t-96 39zM16 541q55 0 95.5 40t40.5 97v305q0 55 21.5 104.5t58 86t86 58t104.5 21.5q-29 0 -53.5 -21.5t-43 -58 t-28.5 -86t-10 -104.5v-305q0 -57 -40 -97t-95 -40h-136z" />
<glyph unicode="|" horiz-adv-x="403" d="M127 -205v1493h135v-1493h-135z" />
<glyph unicode="}" horiz-adv-x="466" d="M43 -170q29 0 53.5 21.5t43 58.5t29.5 86t11 104v306q0 57 39 96t96 39h136q-57 0 -96.5 -39t-39.5 -96v-306q0 -55 -21.5 -104t-58 -86t-86 -58.5t-106.5 -21.5zM43 1253q57 0 106.5 -21.5t86 -58t58 -86t21.5 -104.5v-305q0 -57 39 -97t97 -40h-136q-57 0 -96 40 t-39 97v305q0 55 -11 104.5t-29.5 86t-43 58t-53.5 21.5z" />
<glyph unicode="~" horiz-adv-x="686" d="M80 858q18 41 50 69.5t70 43t80 13.5t82 -19q82 -37 152 -35t88 43q-18 -41 -50 -70t-70 -43t-81 -13t-82 19q-82 37 -151.5 35t-87.5 -43z" />
<glyph unicode="&#xa1;" horiz-adv-x="296" d="M72 -238v828h153v-828h-153zM72 868q0 35 22.5 58.5t55.5 21.5q33 0 54 -23.5t21 -58.5t-22.5 -58.5t-55.5 -21.5q-33 0 -54 24t-21 58z" />
<glyph unicode="&#xa8;" horiz-adv-x="460" d="M0 981q0 35 23.5 59.5t58.5 24.5t59.5 -24.5t24.5 -59.5t-24.5 -58.5t-59.5 -23.5t-58.5 23.5t-23.5 58.5zM295 981q0 35 23.5 59.5t58.5 24.5t59.5 -24.5t24.5 -59.5t-24.5 -58.5t-59.5 -23.5t-58.5 23.5t-23.5 58.5z" />
<glyph unicode="&#xaa;" horiz-adv-x="329" d="M18 813v35q0 29 19.5 52.5t48.5 23.5h68q-29 0 -48.5 -23.5t-19.5 -52.5v-35q0 -29 19.5 -47t48.5 -18h-68q-29 0 -48.5 18t-19.5 47zM35 993q0 29 19.5 48.5t47.5 19.5h68q-29 0 -48.5 -19.5t-19.5 -48.5q0 -33 -34 -32q-33 -1 -33 32zM170 1061h68q29 0 48 -19.5 t19 -48.5v-245h-67v245q0 29 -19.5 48.5t-48.5 19.5z" />
<glyph unicode="&#xab;" horiz-adv-x="825" d="M59 348q29 0 53.5 21.5t43 58.5t29 86t10.5 104q0 33 22.5 55.5t54.5 22.5q31 0 53.5 -22.5t22.5 -55.5q0 -55 -24.5 -104t-64.5 -86t-92 -58.5t-108 -21.5zM59 348q55 0 107.5 -21.5t92.5 -58.5t64.5 -86t24.5 -104q0 -33 -22.5 -55.5t-53.5 -22.5q-33 0 -55 22.5 t-22 55.5q0 55 -10.5 104t-29 86t-43 58.5t-53.5 21.5zM414 348q29 0 53.5 21.5t42.5 58.5t28.5 86t10.5 104q0 33 22.5 55.5t55.5 22.5q31 0 53 -22.5t22 -55.5q0 -55 -24.5 -104t-64.5 -86t-92 -58.5t-107 -21.5zM414 348q55 0 107 -21.5t92 -58.5t64.5 -86t24.5 -104 q0 -33 -22.5 -55.5t-52.5 -22.5q-33 0 -55.5 22.5t-22.5 55.5q0 55 -10.5 104t-28.5 86t-43 58.5t-53 21.5z" />
<glyph unicode="&#xad;" horiz-adv-x="544" d="M70 289v102h407v-102h-407z" />
<glyph unicode="&#xb4;" horiz-adv-x="321" d="M14 918q0 29 19.5 48t48.5 19q55 0 95 40t40 95v-135q0 -57 -40 -96t-95 -39q-29 0 -48.5 19.5t-19.5 48.5zM14 918q0 29 19.5 48t48.5 19q55 0 95 40t40 95v-135q0 -57 -40 -96t-95 -39q-29 0 -48.5 19.5t-19.5 48.5zM14 918q0 29 19.5 48t48.5 19q55 0 95 40t40 95 v-135q0 -57 -40 -96t-95 -39q-29 0 -48.5 19.5t-19.5 48.5zM14 918q0 29 19.5 48t48.5 19q55 0 95 40t40 95v-135q0 -57 -40 -96t-95 -39q-29 0 -48.5 19.5t-19.5 48.5z" />
<glyph unicode="&#xb7;" horiz-adv-x="194" d="M20 340q0 33 22.5 55.5t55.5 20.5q33 0 54.5 -22.5t21.5 -55.5q0 -31 -22.5 -53.5t-55.5 -22.5q-33 2 -54.5 24.5t-21.5 53.5z" />
<glyph unicode="&#xb8;" horiz-adv-x="321" d="M14 -203q0 29 19.5 48.5t48.5 19.5q57 0 97 40t40 95v-135q0 -55 -40 -95t-97 -40q-29 0 -48.5 19.5t-19.5 47.5z" />
<glyph unicode="&#xba;" horiz-adv-x="309" d="M20 815v170q0 29 19.5 48.5t48.5 19.5h68q-29 0 -48.5 -19.5t-19.5 -48.5v-170q0 -29 19.5 -48t48.5 -19h-68q-29 0 -48.5 19t-19.5 48zM156 748q29 0 48 19t19 48v170q0 29 -19.5 48.5t-47.5 19.5h67q29 0 48.5 -19.5t19.5 -48.5v-170q0 -29 -19.5 -48t-48.5 -19h-67z " />
<glyph unicode="&#xbb;" horiz-adv-x="823" d="M123 78q0 55 24.5 104t64.5 86t92 58.5t108 21.5q-29 0 -53.5 -21.5t-43 -58.5t-29 -86t-10.5 -104q0 -33 -22.5 -55.5t-54.5 -22.5q-31 0 -53.5 22.5t-22.5 55.5zM123 618q0 33 22.5 55.5t53.5 22.5q33 0 55 -22.5t22 -55.5q0 -55 10.5 -104t29 -86t43 -58.5t53.5 -21.5 q-55 0 -107.5 21.5t-92.5 58.5t-64.5 86t-24.5 104zM477 78q0 55 24.5 104t64.5 86t92.5 58.5t107.5 21.5q-29 0 -53.5 -21.5t-43 -58.5t-28.5 -86t-10 -104q0 -33 -22.5 -55.5t-55.5 -22.5q-31 0 -53.5 22.5t-22.5 55.5zM477 618q0 33 22.5 55.5t53.5 22.5q33 0 55.5 -22.5 t22.5 -55.5q0 -55 10 -104t28.5 -86t43 -58.5t53.5 -21.5q-55 0 -107.5 21.5t-92.5 58.5t-64.5 86t-24.5 104z" />
<glyph unicode="&#xbf;" horiz-adv-x="772" d="M27 0v35q0 55 24.5 104t64.5 86t92 58.5t107 21.5q-29 0 -53 -21.5t-42.5 -58.5t-29 -86t-10.5 -104v-35q0 -55 10.5 -104.5t29 -86t43 -58t52.5 -21.5q-55 0 -107 21.5t-92 58t-64.5 86t-24.5 104.5zM328 305q55 0 107 21.5t92 58.5t64.5 86t24.5 107h-153 q0 -57 -11.5 -106.5t-30 -86.5t-43 -58.5t-50.5 -21.5zM422 -270q27 0 51.5 21.5t43 58t29.5 86t11 104.5q0 33 22.5 54.5t53.5 21.5q33 0 54.5 -21.5t21.5 -54.5q0 -55 -23.5 -104.5t-63.5 -86t-92.5 -58t-107.5 -21.5zM438 770q0 33 21.5 55.5t54.5 22.5t55.5 -21.5 t22.5 -54.5t-21.5 -55.5t-54.5 -22.5t-55.5 21.5t-22.5 54.5z" />
<glyph unicode="&#xc0;" horiz-adv-x="757" d="M72 0v848q0 55 24.5 104t66.5 86t95 58.5t109 21.5q-29 0 -53.5 -21.5t-43 -58.5t-29 -86t-10.5 -104v-389q6 -66 51.5 -109t110.5 -43h-162v-307h-159zM266 1403v135q0 -55 40 -95t96 -40q29 0 48 -19.5t19 -47.5q0 -29 -19.5 -48.5t-47.5 -19.5q-55 0 -95.5 39 t-40.5 96v135q0 -55 40 -95t96 -40q29 0 48 -19.5t19 -47.5q0 -29 -19.5 -48.5t-47.5 -19.5q-55 0 -95.5 39t-40.5 96v135q0 -55 40 -95t96 -40q29 0 48 -19.5t19 -47.5q0 -29 -19.5 -48.5t-47.5 -19.5q-55 0 -95.5 39t-40.5 96v135q0 -55 40 -95t96 -40q29 0 48 -19.5 t19 -47.5q0 -29 -19.5 -48.5t-47.5 -19.5q-55 0 -95.5 39t-40.5 96zM342 393h160v455q0 55 -10.5 104t-29 86t-43 58.5t-52.5 21.5q55 0 109 -21.5t95 -58.5t67 -86t26 -104v-848q0 -55 10 -105.5t28.5 -87t43 -58t53.5 -21.5q-55 0 -109.5 21.5t-95.5 58t-66.5 87 t-25.5 105.5v250q-8 61 -51 102t-109 41z" />
<glyph unicode="&#xc1;" horiz-adv-x="757" d="M72 0v848q0 55 24.5 104t66.5 86t95 58.5t109 21.5q-29 0 -53.5 -21.5t-43 -58.5t-29 -86t-10.5 -104v-389q6 -66 51.5 -109t110.5 -43h-162v-307h-159zM264 1336q0 29 19.5 48t48.5 19q55 0 95 40t40 95v-135q0 -57 -40 -96t-95 -39q-29 0 -48.5 19.5t-19.5 48.5z M264 1336q0 29 19.5 48t48.5 19q55 0 95 40t40 95v-135q0 -57 -40 -96t-95 -39q-29 0 -48.5 19.5t-19.5 48.5zM264 1336q0 29 19.5 48t48.5 19q55 0 95 40t40 95v-135q0 -57 -40 -96t-95 -39q-29 0 -48.5 19.5t-19.5 48.5zM264 1336q0 29 19.5 48t48.5 19q55 0 95 40t40 95 v-135q0 -57 -40 -96t-95 -39q-29 0 -48.5 19.5t-19.5 48.5zM342 393h160v455q0 55 -10.5 104t-29 86t-43 58.5t-52.5 21.5q55 0 109 -21.5t95 -58.5t67 -86t26 -104v-848q0 -55 10 -105.5t28.5 -87t43 -58t53.5 -21.5q-55 0 -109.5 21.5t-95.5 58t-66.5 87t-25.5 105.5v250 q-8 61 -51 102t-109 41z" />
<glyph unicode="&#xc2;" horiz-adv-x="757" d="M72 0v848q0 55 24.5 104t66.5 86t95 58.5t109 21.5q-29 0 -53.5 -21.5t-43 -58.5t-29 -86t-10.5 -104v-389q6 -66 51.5 -109t110.5 -43h-162v-307h-159zM164 1333q0 29 19.5 49.5t48.5 20.5q55 0 95 39t40 96q0 -57 39 -96t96 -39q29 0 48.5 -20.5t19.5 -49.5t-19.5 -48 t-48.5 -19q-57 0 -96 40t-39 97q0 -57 -40 -97t-95 -40q-29 0 -48.5 19.5t-19.5 47.5zM342 393h160v455q0 55 -10.5 104t-29 86t-43 58.5t-52.5 21.5q55 0 109 -21.5t95 -58.5t67 -86t26 -104v-848q0 -55 10 -105.5t28.5 -87t43 -58t53.5 -21.5q-55 0 -109.5 21.5t-95.5 58 t-66.5 87t-25.5 105.5v250q-8 61 -51 102t-109 41z" />
<glyph unicode="&#xc3;" horiz-adv-x="757" d="M72 0v848q0 55 24.5 104t66.5 86t95 58.5t109 21.5q-29 0 -53.5 -21.5t-43 -58.5t-29 -86t-10.5 -104v-389q6 -66 51.5 -109t110.5 -43h-162v-307h-159zM100 1435q18 -41 89 -44t153 34q41 18 84 16.5t83 -19t72.5 -48.5t51.5 -72q-18 41 -89 44t-153 -33 q-41 -18 -84 -16.5t-83 19t-72.5 48t-51.5 71.5zM342 393h160v455q0 55 -10.5 104t-29 86t-43 58.5t-52.5 21.5q55 0 109 -21.5t95 -58.5t67 -86t26 -104v-848q0 -55 10 -105.5t28.5 -87t43 -58t53.5 -21.5q-55 0 -109.5 21.5t-95.5 58t-66.5 87t-25.5 105.5v250 q-8 61 -51 102t-109 41z" />
<glyph unicode="&#xc4;" horiz-adv-x="757" d="M72 0v848q0 55 24.5 104t66.5 86t95 58.5t109 21.5q-29 0 -53.5 -21.5t-43 -58.5t-29 -86t-10.5 -104v-389q6 -66 51.5 -109t110.5 -43h-162v-307h-159zM137 1346q0 35 23.5 59.5t58.5 24.5t59.5 -24.5t24.5 -59.5t-24.5 -58.5t-59.5 -23.5t-58.5 23.5t-23.5 58.5z M342 393h160v455q0 55 -10.5 104t-29 86t-43 58.5t-52.5 21.5q55 0 109 -21.5t95 -58.5t67 -86t26 -104v-848q0 -55 10 -105.5t28.5 -87t43 -58t53.5 -21.5q-55 0 -109.5 21.5t-95.5 58t-66.5 87t-25.5 105.5v250q-8 61 -51 102t-109 41zM432 1346q0 35 23.5 59.5t58.5 24.5 t59.5 -24.5t24.5 -59.5t-24.5 -58.5t-59.5 -23.5t-58.5 23.5t-23.5 58.5z" />
<glyph unicode="&#xc7;" horiz-adv-x="704" d="M72 270v578q0 55 24.5 104t66.5 86t95 58.5t109 21.5q-29 0 -53.5 -21.5t-43 -58.5t-29 -86t-10.5 -104v-578q0 -55 10.5 -104t29 -86t43 -58.5t53.5 -21.5q-55 0 -108.5 21.5t-95.5 58.5t-66.5 86t-24.5 104zM250 -203q0 29 19.5 48.5t48.5 19.5q57 0 97 40t40 95v-135 q0 -55 -40 -95t-97 -40q-29 0 -48.5 19.5t-19.5 47.5zM367 0q57 0 97 39t40 96q0 35 22.5 57.5t57.5 22.5t57.5 -22.5t22.5 -57.5q0 -57 -39 -96t-97 -39h-161zM367 1118h161q57 0 96.5 -39t39.5 -96q0 -35 -23 -57.5t-57 -22.5q-35 0 -57.5 22.5t-22.5 57.5q0 57 -40 96 t-97 39z" />
<glyph unicode="&#xc8;" horiz-adv-x="706" d="M72 135v848q0 57 40 96t97 39h160q-55 0 -95.5 -39t-40.5 -96v-848q0 -57 40 -96t96 -39h-160q-57 0 -97 39t-40 96zM238 451q57 0 97 39.5t40 97.5q0 33 22.5 56.5t57.5 23.5q33 0 56.5 -23.5t23.5 -56.5q0 -57 -40 -97t-96 -40h-161zM252 1403v135q0 -55 40 -95t96 -40 q29 0 48 -19.5t19 -47.5q0 -29 -19.5 -48.5t-47.5 -19.5q-55 0 -95.5 39t-40.5 96v135q0 -55 40 -95t96 -40q29 0 48 -19.5t19 -47.5q0 -29 -19.5 -48.5t-47.5 -19.5q-55 0 -95.5 39t-40.5 96v135q0 -55 40 -95t96 -40q29 0 48 -19.5t19 -47.5q0 -29 -19.5 -48.5 t-47.5 -19.5q-55 0 -95.5 39t-40.5 96v135q0 -55 40 -95t96 -40q29 0 48 -19.5t19 -47.5q0 -29 -19.5 -48.5t-47.5 -19.5q-55 0 -95.5 39t-40.5 96zM369 0q57 0 96 39t39 96q0 35 23.5 57.5t58.5 22.5q33 0 56.5 -22.5t23.5 -57.5q0 -57 -40 -96t-96 -39h-161zM369 1118h161 q55 0 95.5 -39t40.5 -96q0 -35 -24 -57.5t-56 -22.5q-35 0 -58.5 22.5t-23.5 57.5q0 57 -39 96t-96 39z" />
<glyph unicode="&#xc9;" horiz-adv-x="706" d="M72 135v848q0 57 40 96t97 39h160q-55 0 -95.5 -39t-40.5 -96v-848q0 -57 40 -96t96 -39h-160q-57 0 -97 39t-40 96zM238 451q57 0 97 39.5t40 97.5q0 33 22.5 56.5t57.5 23.5q33 0 56.5 -23.5t23.5 -56.5q0 -57 -40 -97t-96 -40h-161zM252 1336q0 29 19.5 48t48.5 19 q55 0 95 40t40 95v-135q0 -57 -40 -96t-95 -39q-29 0 -48.5 19.5t-19.5 48.5zM252 1336q0 29 19.5 48t48.5 19q55 0 95 40t40 95v-135q0 -57 -40 -96t-95 -39q-29 0 -48.5 19.5t-19.5 48.5zM252 1336q0 29 19.5 48t48.5 19q55 0 95 40t40 95v-135q0 -57 -40 -96t-95 -39 q-29 0 -48.5 19.5t-19.5 48.5zM252 1336q0 29 19.5 48t48.5 19q55 0 95 40t40 95v-135q0 -57 -40 -96t-95 -39q-29 0 -48.5 19.5t-19.5 48.5zM369 0q57 0 96 39t39 96q0 35 23.5 57.5t58.5 22.5q33 0 56.5 -22.5t23.5 -57.5q0 -57 -40 -96t-96 -39h-161zM369 1118h161 q55 0 95.5 -39t40.5 -96q0 -35 -24 -57.5t-56 -22.5q-35 0 -58.5 22.5t-23.5 57.5q0 57 -39 96t-96 39z" />
<glyph unicode="&#xca;" horiz-adv-x="706" d="M72 135v848q0 57 40 96t97 39h160q-55 0 -95.5 -39t-40.5 -96v-848q0 -57 40 -96t96 -39h-160q-57 0 -97 39t-40 96zM149 1333q0 29 19.5 49.5t48.5 20.5q55 0 95 39t40 96q0 -57 39 -96t96 -39q29 0 48.5 -20.5t19.5 -49.5t-19.5 -48t-48.5 -19q-57 0 -96 40t-39 97 q0 -57 -40 -97t-95 -40q-29 0 -48.5 19.5t-19.5 47.5zM238 451q57 0 97 39.5t40 97.5q0 33 22.5 56.5t57.5 23.5q33 0 56.5 -23.5t23.5 -56.5q0 -57 -40 -97t-96 -40h-161zM369 0q57 0 96 39t39 96q0 35 23.5 57.5t58.5 22.5q33 0 56.5 -22.5t23.5 -57.5q0 -57 -40 -96 t-96 -39h-161zM369 1118h161q55 0 95.5 -39t40.5 -96q0 -35 -24 -57.5t-56 -22.5q-35 0 -58.5 22.5t-23.5 57.5q0 57 -39 96t-96 39z" />
<glyph unicode="&#xcb;" horiz-adv-x="706" d="M72 135v848q0 57 40 96t97 39h160q-55 0 -95.5 -39t-40.5 -96v-848q0 -57 40 -96t96 -39h-160q-57 0 -97 39t-40 96zM123 1346q0 35 23.5 59.5t58.5 24.5t59.5 -24.5t24.5 -59.5t-24.5 -58.5t-59.5 -23.5t-58.5 23.5t-23.5 58.5zM238 451q57 0 97 39.5t40 97.5 q0 33 22.5 56.5t57.5 23.5q33 0 56.5 -23.5t23.5 -56.5q0 -57 -40 -97t-96 -40h-161zM369 0q57 0 96 39t39 96q0 35 23.5 57.5t58.5 22.5q33 0 56.5 -22.5t23.5 -57.5q0 -57 -40 -96t-96 -39h-161zM369 1118h161q55 0 95.5 -39t40.5 -96q0 -35 -24 -57.5t-56 -22.5 q-35 0 -58.5 22.5t-23.5 57.5q0 57 -39 96t-96 39zM418 1346q0 35 23.5 59.5t58.5 24.5t59.5 -24.5t24.5 -59.5t-24.5 -58.5t-59.5 -23.5t-58.5 23.5t-23.5 58.5z" />
<glyph unicode="&#xcc;" horiz-adv-x="368" d="M0 1118h162q55 0 95 -39t40 -96v-983h-162v983q0 57 -39 96t-96 39zM86 1403v135q0 -55 40 -95t96 -40q29 0 48 -19.5t19 -47.5q0 -29 -19.5 -48.5t-47.5 -19.5q-55 0 -95.5 39t-40.5 96v135q0 -55 40 -95t96 -40q29 0 48 -19.5t19 -47.5q0 -29 -19.5 -48.5t-47.5 -19.5 q-55 0 -95.5 39t-40.5 96v135q0 -55 40 -95t96 -40q29 0 48 -19.5t19 -47.5q0 -29 -19.5 -48.5t-47.5 -19.5q-55 0 -95.5 39t-40.5 96v135q0 -55 40 -95t96 -40q29 0 48 -19.5t19 -47.5q0 -29 -19.5 -48.5t-47.5 -19.5q-55 0 -95.5 39t-40.5 96z" />
<glyph unicode="&#xcd;" horiz-adv-x="368" d="M0 1118h162q55 0 95 -39t40 -96v-983h-162v983q0 57 -39 96t-96 39zM82 1336q0 29 19.5 48t48.5 19q55 0 95 40t40 95v-135q0 -57 -40 -96t-95 -39q-29 0 -48.5 19.5t-19.5 48.5zM82 1336q0 29 19.5 48t48.5 19q55 0 95 40t40 95v-135q0 -57 -40 -96t-95 -39 q-29 0 -48.5 19.5t-19.5 48.5zM82 1336q0 29 19.5 48t48.5 19q55 0 95 40t40 95v-135q0 -57 -40 -96t-95 -39q-29 0 -48.5 19.5t-19.5 48.5zM82 1336q0 29 19.5 48t48.5 19q55 0 95 40t40 95v-135q0 -57 -40 -96t-95 -39q-29 0 -48.5 19.5t-19.5 48.5z" />
<glyph unicode="&#xce;" horiz-adv-x="368" d="M-17 1333q0 29 19.5 49.5t48.5 20.5q55 0 95 39t40 96q0 -57 39 -96t96 -39q29 0 48.5 -20.5t19.5 -49.5t-19.5 -48t-48.5 -19q-57 0 -96 40t-39 97q0 -57 -40 -97t-95 -40q-29 0 -48.5 19.5t-19.5 47.5zM0 1118h162q55 0 95 -39t40 -96v-983h-162v983q0 57 -39 96 t-96 39z" />
<glyph unicode="&#xcf;" horiz-adv-x="368" d="M-43 1346q0 35 23.5 59.5t58.5 24.5t59.5 -24.5t24.5 -59.5t-24.5 -58.5t-59.5 -23.5t-58.5 23.5t-23.5 58.5zM0 1118h162q55 0 95 -39t40 -96v-983h-162v983q0 57 -39 96t-96 39zM252 1346q0 35 23.5 59.5t58.5 24.5t59.5 -24.5t24.5 -59.5t-24.5 -58.5t-59.5 -23.5 t-58.5 23.5t-23.5 58.5z" />
<glyph unicode="&#xd1;" horiz-adv-x="849" d="M-31 1118q55 0 109.5 -21.5t95.5 -58.5t66.5 -86t25.5 -104v-848h-162v848q0 55 -10 104t-28.5 86t-43 58.5t-53.5 21.5zM141 1450q18 -41 89 -44t153 34q41 18 84 16.5t83 -19t72.5 -48.5t51.5 -72q-18 41 -89 44t-153 -33q-41 -18 -84 -16.5t-83 19t-72.5 48 t-51.5 71.5zM276 642q0 46 19 89q-16 -41 30 -96t130 -90q43 -18 71.5 -52t43 -77t14.5 -90t-19 -88q16 41 -30 96t-129 90q-43 18 -72 52t-43.5 77t-14.5 89zM459 1118q55 0 109.5 -21.5t95.5 -58.5t66.5 -86t25.5 -104v-848q0 -55 10 -105.5t28.5 -87t43 -58t53.5 -21.5 q-55 0 -109.5 21.5t-95.5 58t-66.5 87t-25.5 105.5v848q0 55 -10.5 104t-28.5 86t-43 58.5t-53 21.5z" />
<glyph unicode="&#xd2;" d="M72 135v713q0 55 24.5 104t66.5 86t95 58.5t109 21.5q-29 0 -53.5 -21.5t-43 -58.5t-29 -86t-10.5 -104v-713q0 -57 40 -96t96 -39h-160q-57 0 -96 39t-39 96zM266 1403v135q0 -55 40 -95t96 -40q29 0 48 -19.5t19 -47.5q0 -29 -19.5 -48.5t-47.5 -19.5q-55 0 -95.5 39 t-40.5 96v135q0 -55 40 -95t96 -40q29 0 48 -19.5t19 -47.5q0 -29 -19.5 -48.5t-47.5 -19.5q-55 0 -95.5 39t-40.5 96v135q0 -55 40 -95t96 -40q29 0 48 -19.5t19 -47.5q0 -29 -19.5 -48.5t-47.5 -19.5q-55 0 -95.5 39t-40.5 96v135q0 -55 40 -95t96 -40q29 0 48 -19.5 t19 -47.5q0 -29 -19.5 -48.5t-47.5 -19.5q-55 0 -95.5 39t-40.5 96zM367 0q29 0 53 21.5t42.5 58.5t30 86t11.5 104v713q0 57 -40 96t-97 39h161q57 0 96.5 -39t39.5 -96v-713q0 -55 -26 -104t-67 -86t-94 -58.5t-110 -21.5z" />
<glyph unicode="&#xd3;" d="M72 135v713q0 55 24.5 104t66.5 86t95 58.5t109 21.5q-29 0 -53.5 -21.5t-43 -58.5t-29 -86t-10.5 -104v-713q0 -57 40 -96t96 -39h-160q-57 0 -96 39t-39 96zM266 1336q0 29 19.5 48t48.5 19q55 0 95 40t40 95v-135q0 -57 -40 -96t-95 -39q-29 0 -48.5 19.5t-19.5 48.5z M266 1336q0 29 19.5 48t48.5 19q55 0 95 40t40 95v-135q0 -57 -40 -96t-95 -39q-29 0 -48.5 19.5t-19.5 48.5zM266 1336q0 29 19.5 48t48.5 19q55 0 95 40t40 95v-135q0 -57 -40 -96t-95 -39q-29 0 -48.5 19.5t-19.5 48.5zM266 1336q0 29 19.5 48t48.5 19q55 0 95 40t40 95 v-135q0 -57 -40 -96t-95 -39q-29 0 -48.5 19.5t-19.5 48.5zM367 0q29 0 53 21.5t42.5 58.5t30 86t11.5 104v713q0 57 -40 96t-97 39h161q57 0 96.5 -39t39.5 -96v-713q0 -55 -26 -104t-67 -86t-94 -58.5t-110 -21.5z" />
<glyph unicode="&#xd4;" d="M72 135v713q0 55 24.5 104t66.5 86t95 58.5t109 21.5q-29 0 -53.5 -21.5t-43 -58.5t-29 -86t-10.5 -104v-713q0 -57 40 -96t96 -39h-160q-57 0 -96 39t-39 96zM164 1333q0 29 19.5 49.5t48.5 20.5q55 0 95 39t40 96q0 -57 39 -96t96 -39q29 0 48.5 -20.5t19.5 -49.5 t-19.5 -48t-48.5 -19q-57 0 -96 40t-39 97q0 -57 -40 -97t-95 -40q-29 0 -48.5 19.5t-19.5 47.5zM367 0q29 0 53 21.5t42.5 58.5t30 86t11.5 104v713q0 57 -40 96t-97 39h161q57 0 96.5 -39t39.5 -96v-713q0 -55 -26 -104t-67 -86t-94 -58.5t-110 -21.5z" />
<glyph unicode="&#xd5;" d="M72 135v713q0 55 24.5 104t66.5 86t95 58.5t109 21.5q-29 0 -53.5 -21.5t-43 -58.5t-29 -86t-10.5 -104v-713q0 -57 40 -96t96 -39h-160q-57 0 -96 39t-39 96zM100 1450q18 -41 89 -44t153 34q41 18 84 16.5t83 -19t72.5 -48.5t51.5 -72q-18 41 -89 44t-153 -33 q-41 -18 -84 -16.5t-83 19t-72.5 48t-51.5 71.5zM367 0q29 0 53 21.5t42.5 58.5t30 86t11.5 104v713q0 57 -40 96t-97 39h161q57 0 96.5 -39t39.5 -96v-713q0 -55 -26 -104t-67 -86t-94 -58.5t-110 -21.5z" />
<glyph unicode="&#xd6;" d="M72 135v713q0 55 24.5 104t66.5 86t95 58.5t109 21.5q-29 0 -53.5 -21.5t-43 -58.5t-29 -86t-10.5 -104v-713q0 -57 40 -96t96 -39h-160q-57 0 -96 39t-39 96zM137 1346q0 35 23.5 59.5t58.5 24.5t59.5 -24.5t24.5 -59.5t-24.5 -58.5t-59.5 -23.5t-58.5 23.5t-23.5 58.5z M367 0q29 0 53 21.5t42.5 58.5t30 86t11.5 104v713q0 57 -40 96t-97 39h161q57 0 96.5 -39t39.5 -96v-713q0 -55 -26 -104t-67 -86t-94 -58.5t-110 -21.5zM432 1346q0 35 23.5 59.5t58.5 24.5t59.5 -24.5t24.5 -59.5t-24.5 -58.5t-59.5 -23.5t-58.5 23.5t-23.5 58.5z" />
<glyph unicode="&#xd9;" horiz-adv-x="731" d="M72 135v983h157v-983q0 -57 40 -96t96 -39h-158q-57 0 -96 39t-39 96zM264 1403v135q0 -55 40 -95t96 -40q29 0 48 -19.5t19 -47.5q0 -29 -19.5 -48.5t-47.5 -19.5q-55 0 -95.5 39t-40.5 96v135q0 -55 40 -95t96 -40q29 0 48 -19.5t19 -47.5q0 -29 -19.5 -48.5 t-47.5 -19.5q-55 0 -95.5 39t-40.5 96v135q0 -55 40 -95t96 -40q29 0 48 -19.5t19 -47.5q0 -29 -19.5 -48.5t-47.5 -19.5q-55 0 -95.5 39t-40.5 96v135q0 -55 40 -95t96 -40q29 0 48 -19.5t19 -47.5q0 -29 -19.5 -48.5t-47.5 -19.5q-55 0 -95.5 39t-40.5 96zM365 0 q57 0 97 39t40 96v983h157v-983q0 -57 -39.5 -96t-95.5 -39h-159z" />
<glyph unicode="&#xda;" horiz-adv-x="731" d="M72 135v983h157v-983q0 -57 40 -96t96 -39h-158q-57 0 -96 39t-39 96zM264 1336q0 29 19.5 48t48.5 19q55 0 95 40t40 95v-135q0 -57 -40 -96t-95 -39q-29 0 -48.5 19.5t-19.5 48.5zM264 1336q0 29 19.5 48t48.5 19q55 0 95 40t40 95v-135q0 -57 -40 -96t-95 -39 q-29 0 -48.5 19.5t-19.5 48.5zM264 1336q0 29 19.5 48t48.5 19q55 0 95 40t40 95v-135q0 -57 -40 -96t-95 -39q-29 0 -48.5 19.5t-19.5 48.5zM264 1336q0 29 19.5 48t48.5 19q55 0 95 40t40 95v-135q0 -57 -40 -96t-95 -39q-29 0 -48.5 19.5t-19.5 48.5zM365 0q57 0 97 39 t40 96v983h157v-983q0 -57 -39.5 -96t-95.5 -39h-159z" />
<glyph unicode="&#xdb;" horiz-adv-x="731" d="M72 135v983h157v-983q0 -57 40 -96t96 -39h-158q-57 0 -96 39t-39 96zM161 1333q0 29 19.5 49.5t48.5 20.5q55 0 95 39t40 96q0 -57 39 -96t96 -39q29 0 48.5 -20.5t19.5 -49.5t-19.5 -48t-48.5 -19q-57 0 -96 40t-39 97q0 -57 -40 -97t-95 -40q-29 0 -48.5 19.5 t-19.5 47.5zM365 0q57 0 97 39t40 96v983h157v-983q0 -57 -39.5 -96t-95.5 -39h-159z" />
<glyph unicode="&#xdc;" horiz-adv-x="731" d="M72 135v983h157v-983q0 -57 40 -96t96 -39h-158q-57 0 -96 39t-39 96zM135 1346q0 35 23.5 59.5t58.5 24.5t59.5 -24.5t24.5 -59.5t-24.5 -58.5t-59.5 -23.5t-58.5 23.5t-23.5 58.5zM365 0q57 0 97 39t40 96v983h157v-983q0 -57 -39.5 -96t-95.5 -39h-159zM430 1346 q0 35 23.5 59.5t58.5 24.5t59.5 -24.5t24.5 -59.5t-24.5 -58.5t-59.5 -23.5t-58.5 23.5t-23.5 58.5z" />
<glyph unicode="&#xe0;" horiz-adv-x="794" d="M72 137v121q0 57 40 96t95 39h160q-57 0 -97.5 -39t-40.5 -96v-121q0 -57 40 -97t98 -40h-160q-55 0 -95 40t-40 97zM92 543q0 57 40 96t95 39h162q-57 0 -97 -39t-40 -96q0 -33 -22.5 -56.5t-57.5 -23.5t-57.5 23.5t-22.5 56.5zM288 985v135q0 -55 40 -95t96 -40 q29 0 48 -19.5t19 -47.5q0 -29 -19.5 -48.5t-47.5 -19.5q-55 0 -95.5 39t-40.5 96v135q0 -55 40 -95t96 -40q29 0 48 -19.5t19 -47.5q0 -29 -19.5 -48.5t-47.5 -19.5q-55 0 -95.5 39t-40.5 96v135q0 -55 40 -95t96 -40q29 0 48 -19.5t19 -47.5q0 -29 -19.5 -48.5 t-47.5 -19.5q-55 0 -95.5 39t-40.5 96v135q0 -55 40 -95t96 -40q29 0 48 -19.5t19 -47.5q0 -29 -19.5 -48.5t-47.5 -19.5q-55 0 -95.5 39t-40.5 96zM389 678h166q55 0 95 -39t40 -96v-406q0 -57 40 -97t95 -40h-166q-57 0 -96 40t-39 97v406q0 57 -40 96t-95 39z" />
<glyph unicode="&#xe1;" horiz-adv-x="794" d="M72 137v121q0 57 40 96t95 39h160q-57 0 -97.5 -39t-40.5 -96v-121q0 -57 40 -97t98 -40h-160q-55 0 -95 40t-40 97zM92 543q0 57 40 96t95 39h162q-57 0 -97 -39t-40 -96q0 -33 -22.5 -56.5t-57.5 -23.5t-57.5 23.5t-22.5 56.5zM288 918q0 29 19.5 48t48.5 19 q55 0 95 40t40 95v-135q0 -57 -40 -96t-95 -39q-29 0 -48.5 19.5t-19.5 48.5zM288 918q0 29 19.5 48t48.5 19q55 0 95 40t40 95v-135q0 -57 -40 -96t-95 -39q-29 0 -48.5 19.5t-19.5 48.5zM288 918q0 29 19.5 48t48.5 19q55 0 95 40t40 95v-135q0 -57 -40 -96t-95 -39 q-29 0 -48.5 19.5t-19.5 48.5zM288 918q0 29 19.5 48t48.5 19q55 0 95 40t40 95v-135q0 -57 -40 -96t-95 -39q-29 0 -48.5 19.5t-19.5 48.5zM389 678h166q55 0 95 -39t40 -96v-406q0 -57 40 -97t95 -40h-166q-57 0 -96 40t-39 97v406q0 57 -40 96t-95 39z" />
<glyph unicode="&#xe2;" horiz-adv-x="794" d="M72 137v121q0 57 40 96t95 39h160q-57 0 -97.5 -39t-40.5 -96v-121q0 -57 40 -97t98 -40h-160q-55 0 -95 40t-40 97zM92 543q0 57 40 96t95 39h162q-57 0 -97 -39t-40 -96q0 -33 -22.5 -56.5t-57.5 -23.5t-57.5 23.5t-22.5 56.5zM188 915q0 29 19.5 49.5t48.5 20.5 q55 0 95 39t40 96q0 -57 39 -96t96 -39q29 0 48.5 -20.5t19.5 -49.5t-19.5 -48t-48.5 -19q-57 0 -96 40t-39 97q0 -57 -40 -97t-95 -40q-29 0 -48.5 19.5t-19.5 47.5zM389 678h166q55 0 95 -39t40 -96v-406q0 -57 40 -97t95 -40h-166q-57 0 -96 40t-39 97v406q0 57 -40 96 t-95 39z" />
<glyph unicode="&#xe3;" horiz-adv-x="794" d="M72 137v121q0 57 40 96t95 39h160q-57 0 -97.5 -39t-40.5 -96v-121q0 -57 40 -97t98 -40h-160q-55 0 -95 40t-40 97zM92 543q0 57 40 96t95 39h162q-57 0 -97 -39t-40 -96q0 -33 -22.5 -56.5t-57.5 -23.5t-57.5 23.5t-22.5 56.5zM125 999q18 -41 89 -44t153 34 q41 18 84 16.5t83 -19t72.5 -48.5t51.5 -72q-18 41 -89 44t-153 -33q-41 -18 -84 -16.5t-83 19t-72.5 48t-51.5 71.5zM389 678h166q55 0 95 -39t40 -96v-406q0 -57 40 -97t95 -40h-166q-57 0 -96 40t-39 97v406q0 57 -40 96t-95 39z" />
<glyph unicode="&#xe4;" horiz-adv-x="794" d="M72 137v121q0 57 40 96t95 39h160q-57 0 -97.5 -39t-40.5 -96v-121q0 -57 40 -97t98 -40h-160q-55 0 -95 40t-40 97zM92 543q0 57 40 96t95 39h162q-57 0 -97 -39t-40 -96q0 -33 -22.5 -56.5t-57.5 -23.5t-57.5 23.5t-22.5 56.5zM166 938q0 35 23.5 59.5t58.5 24.5 t59.5 -24.5t24.5 -59.5t-24.5 -58.5t-59.5 -23.5t-58.5 23.5t-23.5 58.5zM389 678h166q55 0 95 -39t40 -96v-406q0 -57 40 -97t95 -40h-166q-57 0 -96 40t-39 97v406q0 57 -40 96t-95 39zM461 938q0 35 23.5 59.5t58.5 24.5t59.5 -24.5t24.5 -59.5t-24.5 -58.5t-59.5 -23.5 t-58.5 23.5t-23.5 58.5z" />
<glyph unicode="&#xe8;" d="M72 137v406q0 57 40 96t95 39h160q-57 0 -96.5 -39t-39.5 -96v-406q0 -57 39 -97t97 -40h-160q-55 0 -95 40t-40 97zM266 985v135q0 -55 40 -95t96 -40q29 0 48 -19.5t19 -47.5q0 -29 -19.5 -48.5t-47.5 -19.5q-55 0 -95.5 39t-40.5 96v135q0 -55 40 -95t96 -40 q29 0 48 -19.5t19 -47.5q0 -29 -19.5 -48.5t-47.5 -19.5q-55 0 -95.5 39t-40.5 96v135q0 -55 40 -95t96 -40q29 0 48 -19.5t19 -47.5q0 -29 -19.5 -48.5t-47.5 -19.5q-55 0 -95.5 39t-40.5 96v135q0 -55 40 -95t96 -40q29 0 48 -19.5t19 -47.5q0 -29 -19.5 -48.5 t-47.5 -19.5q-55 0 -95.5 39t-40.5 96zM367 0q55 0 95 40t40 97q0 33 23.5 56.5t56.5 23.5q35 0 58.5 -23.5t23.5 -56.5q0 -57 -40 -97t-98 -40h-159zM367 285q55 0 95 40t40 97v121q0 57 -40 96t-95 39h157q57 0 96 -39t39 -96v-121q0 -57 -38.5 -97t-96.5 -40h-157z" />
<glyph unicode="&#xe9;" d="M72 137v406q0 57 40 96t95 39h160q-57 0 -96.5 -39t-39.5 -96v-406q0 -57 39 -97t97 -40h-160q-55 0 -95 40t-40 97zM266 918q0 29 19.5 48t48.5 19q55 0 95 40t40 95v-135q0 -57 -40 -96t-95 -39q-29 0 -48.5 19.5t-19.5 48.5zM266 918q0 29 19.5 48t48.5 19q55 0 95 40 t40 95v-135q0 -57 -40 -96t-95 -39q-29 0 -48.5 19.5t-19.5 48.5zM266 918q0 29 19.5 48t48.5 19q55 0 95 40t40 95v-135q0 -57 -40 -96t-95 -39q-29 0 -48.5 19.5t-19.5 48.5zM266 918q0 29 19.5 48t48.5 19q55 0 95 40t40 95v-135q0 -57 -40 -96t-95 -39q-29 0 -48.5 19.5 t-19.5 48.5zM367 0q55 0 95 40t40 97q0 33 23.5 56.5t56.5 23.5q35 0 58.5 -23.5t23.5 -56.5q0 -57 -40 -97t-98 -40h-159zM367 285q55 0 95 40t40 97v121q0 57 -40 96t-95 39h157q57 0 96 -39t39 -96v-121q0 -57 -38.5 -97t-96.5 -40h-157z" />
<glyph unicode="&#xea;" d="M72 137v406q0 57 40 96t95 39h160q-57 0 -96.5 -39t-39.5 -96v-406q0 -57 39 -97t97 -40h-160q-55 0 -95 40t-40 97zM164 915q0 29 19.5 49.5t48.5 20.5q55 0 95 39t40 96q0 -57 39 -96t96 -39q29 0 48.5 -20.5t19.5 -49.5t-19.5 -48t-48.5 -19q-57 0 -96 40t-39 97 q0 -57 -40 -97t-95 -40q-29 0 -48.5 19.5t-19.5 47.5zM367 0q55 0 95 40t40 97q0 33 23.5 56.5t56.5 23.5q35 0 58.5 -23.5t23.5 -56.5q0 -57 -40 -97t-98 -40h-159zM367 285q55 0 95 40t40 97v121q0 57 -40 96t-95 39h157q57 0 96 -39t39 -96v-121q0 -57 -38.5 -97 t-96.5 -40h-157z" />
<glyph unicode="&#xeb;" d="M72 137v406q0 57 40 96t95 39h160q-57 0 -96.5 -39t-39.5 -96v-406q0 -57 39 -97t97 -40h-160q-55 0 -95 40t-40 97zM137 932q0 35 23.5 59.5t58.5 24.5t59.5 -24.5t24.5 -59.5t-24.5 -58.5t-59.5 -23.5t-58.5 23.5t-23.5 58.5zM367 0q55 0 95 40t40 97q0 33 23.5 56.5 t56.5 23.5q35 0 58.5 -23.5t23.5 -56.5q0 -57 -40 -97t-98 -40h-159zM367 285q55 0 95 40t40 97v121q0 57 -40 96t-95 39h157q57 0 96 -39t39 -96v-121q0 -57 -38.5 -97t-96.5 -40h-157zM432 932q0 35 23.5 59.5t58.5 24.5t59.5 -24.5t24.5 -59.5t-24.5 -58.5t-59.5 -23.5 t-58.5 23.5t-23.5 58.5z" />
<glyph unicode="&#xec;" horiz-adv-x="309" d="M53 985v135q0 -55 40 -95t95 -40q29 0 48.5 -19.5t19.5 -47.5q0 -29 -19.5 -48.5t-48.5 -19.5q-55 0 -95 39t-40 96v135q0 -55 40 -95t95 -40q29 0 48.5 -19.5t19.5 -47.5q0 -29 -19.5 -48.5t-48.5 -19.5q-55 0 -95 39t-40 96v135q0 -55 40 -95t95 -40q29 0 48.5 -19.5 t19.5 -47.5q0 -29 -19.5 -48.5t-48.5 -19.5q-55 0 -95 39t-40 96v135q0 -55 40 -95t95 -40q29 0 48.5 -19.5t19.5 -47.5q0 -29 -19.5 -48.5t-48.5 -19.5q-55 0 -95 39t-40 96zM78 0h153v678h-153v-678z" />
<glyph unicode="&#xed;" horiz-adv-x="309" d="M53 918q0 29 19.5 48t48.5 19q55 0 95 40t40 95v-135q0 -57 -40 -96t-95 -39q-29 0 -48.5 19.5t-19.5 48.5zM53 918q0 29 19.5 48t48.5 19q55 0 95 40t40 95v-135q0 -57 -40 -96t-95 -39q-29 0 -48.5 19.5t-19.5 48.5zM53 918q0 29 19.5 48t48.5 19q55 0 95 40t40 95 v-135q0 -57 -40 -96t-95 -39q-29 0 -48.5 19.5t-19.5 48.5zM53 918q0 29 19.5 48t48.5 19q55 0 95 40t40 95v-135q0 -57 -40 -96t-95 -39q-29 0 -48.5 19.5t-19.5 48.5zM78 0h153v678h-153v-678z" />
<glyph unicode="&#xee;" horiz-adv-x="309" d="M-47 915q0 29 19.5 49.5t47.5 20.5q55 0 95.5 39t40.5 96q0 -57 39 -96t96 -39q29 0 48 -20.5t19 -49.5t-19.5 -48t-47.5 -19q-57 0 -96 40t-39 97q0 -57 -40 -97t-96 -40q-29 0 -48 19.5t-19 47.5zM78 0h153v678h-153v-678z" />
<glyph unicode="&#xef;" horiz-adv-x="309" d="M-76 981q0 35 23.5 59.5t58.5 24.5t59.5 -24.5t24.5 -59.5t-24.5 -58.5t-59.5 -23.5t-58.5 23.5t-23.5 58.5zM78 0v678h153v-678h-153zM219 981q0 35 23.5 59.5t58.5 24.5t59.5 -24.5t24.5 -59.5t-24.5 -58.5t-59.5 -23.5t-58.5 23.5t-23.5 58.5z" />
<glyph unicode="&#xf1;" horiz-adv-x="731" d="M72 0v543q0 57 40 96t95 39h160q-57 0 -97.5 -39t-40.5 -96v-543h-157zM98 999q18 -41 89 -44t153 34q41 18 84 16.5t83 -19t72.5 -48.5t51.5 -72q-18 41 -89 44t-153 -33q-41 -18 -84 -16.5t-83 19t-72.5 48t-51.5 71.5zM367 678h157q57 0 96 -39t39 -96v-543h-157v543 q0 57 -40 96t-95 39z" />
<glyph unicode="&#xf2;" horiz-adv-x="733" d="M72 137v406q0 57 40 96t95 39h160q-55 0 -95.5 -39t-40.5 -96v-406q0 -57 40 -97t96 -40h-160q-55 0 -95 40t-40 97zM264 985v135q0 -55 40 -95t96 -40q29 0 48 -19.5t19 -47.5q0 -29 -19.5 -48.5t-47.5 -19.5q-55 0 -95.5 39t-40.5 96v135q0 -55 40 -95t96 -40 q29 0 48 -19.5t19 -47.5q0 -29 -19.5 -48.5t-47.5 -19.5q-55 0 -95.5 39t-40.5 96v135q0 -55 40 -95t96 -40q29 0 48 -19.5t19 -47.5q0 -29 -19.5 -48.5t-47.5 -19.5q-55 0 -95.5 39t-40.5 96v135q0 -55 40 -95t96 -40q29 0 48 -19.5t19 -47.5q0 -29 -19.5 -48.5 t-47.5 -19.5q-55 0 -95.5 39t-40.5 96zM367 0q57 0 96 40t39 97v406q0 57 -39 96t-96 39h159q57 0 96.5 -39t39.5 -96v-406q0 -57 -39 -97t-97 -40h-159z" />
<glyph unicode="&#xf3;" horiz-adv-x="733" d="M72 137v406q0 57 40 96t95 39h160q-55 0 -95.5 -39t-40.5 -96v-406q0 -57 40 -97t96 -40h-160q-55 0 -95 40t-40 97zM264 918q0 29 19.5 48t48.5 19q55 0 95 40t40 95v-135q0 -57 -40 -96t-95 -39q-29 0 -48.5 19.5t-19.5 48.5zM264 918q0 29 19.5 48t48.5 19q55 0 95 40 t40 95v-135q0 -57 -40 -96t-95 -39q-29 0 -48.5 19.5t-19.5 48.5zM264 918q0 29 19.5 48t48.5 19q55 0 95 40t40 95v-135q0 -57 -40 -96t-95 -39q-29 0 -48.5 19.5t-19.5 48.5zM264 918q0 29 19.5 48t48.5 19q55 0 95 40t40 95v-135q0 -57 -40 -96t-95 -39q-29 0 -48.5 19.5 t-19.5 48.5zM367 0q57 0 96 40t39 97v406q0 57 -39 96t-96 39h159q57 0 96.5 -39t39.5 -96v-406q0 -57 -39 -97t-97 -40h-159z" />
<glyph unicode="&#xf4;" horiz-adv-x="733" d="M72 137v406q0 57 40 96t95 39h160q-55 0 -95.5 -39t-40.5 -96v-406q0 -57 40 -97t96 -40h-160q-55 0 -95 40t-40 97zM164 915q0 29 19.5 49.5t48.5 20.5q55 0 95 39t40 96q0 -57 39 -96t96 -39q29 0 48.5 -20.5t19.5 -49.5t-19.5 -48t-48.5 -19q-57 0 -96 40t-39 97 q0 -57 -40 -97t-95 -40q-29 0 -48.5 19.5t-19.5 47.5zM367 0q57 0 96 40t39 97v406q0 57 -39 96t-96 39h159q57 0 96.5 -39t39.5 -96v-406q0 -57 -39 -97t-97 -40h-159z" />
<glyph unicode="&#xf5;" horiz-adv-x="733" d="M72 137v406q0 57 40 96t95 39h160q-55 0 -95.5 -39t-40.5 -96v-406q0 -57 40 -97t96 -40h-160q-55 0 -95 40t-40 97zM100 999q18 -41 89 -44t153 34q41 18 84 16.5t83 -19t72.5 -48.5t51.5 -72q-18 41 -89 44t-153 -33q-41 -18 -84 -16.5t-83 19t-72.5 48t-51.5 71.5z M367 0q57 0 96 40t39 97v406q0 57 -39 96t-96 39h159q57 0 96.5 -39t39.5 -96v-406q0 -57 -39 -97t-97 -40h-159z" />
<glyph unicode="&#xf6;" horiz-adv-x="733" d="M72 137v406q0 57 40 96t95 39h160q-55 0 -95.5 -39t-40.5 -96v-406q0 -57 40 -97t96 -40h-160q-55 0 -95 40t-40 97zM135 932q0 35 23.5 59.5t58.5 24.5t59.5 -24.5t24.5 -59.5t-24.5 -58.5t-59.5 -23.5t-58.5 23.5t-23.5 58.5zM367 0q57 0 96 40t39 97v406q0 57 -39 96 t-96 39h159q57 0 96.5 -39t39.5 -96v-406q0 -57 -39 -97t-97 -40h-159zM430 932q0 35 23.5 59.5t58.5 24.5t59.5 -24.5t24.5 -59.5t-24.5 -58.5t-59.5 -23.5t-58.5 23.5t-23.5 58.5z" />
<glyph unicode="&#xf9;" horiz-adv-x="731" d="M72 137v541h157v-541q0 -57 40 -97t96 -40h-158q-57 0 -96 40t-39 97zM264 985v135q0 -55 40 -95t96 -40q29 0 48 -19.5t19 -47.5q0 -29 -19.5 -48.5t-47.5 -19.5q-55 0 -95.5 39t-40.5 96v135q0 -55 40 -95t96 -40q29 0 48 -19.5t19 -47.5q0 -29 -19.5 -48.5 t-47.5 -19.5q-55 0 -95.5 39t-40.5 96v135q0 -55 40 -95t96 -40q29 0 48 -19.5t19 -47.5q0 -29 -19.5 -48.5t-47.5 -19.5q-55 0 -95.5 39t-40.5 96v135q0 -55 40 -95t96 -40q29 0 48 -19.5t19 -47.5q0 -29 -19.5 -48.5t-47.5 -19.5q-55 0 -95.5 39t-40.5 96zM365 0 q57 0 97 40t40 97v541h157v-541q0 -57 -39.5 -97t-95.5 -40h-159z" />
<glyph unicode="&#xfa;" horiz-adv-x="731" d="M72 137v541h157v-541q0 -57 40 -97t96 -40h-158q-57 0 -96 40t-39 97zM264 918q0 29 19.5 48t48.5 19q55 0 95 40t40 95v-135q0 -57 -40 -96t-95 -39q-29 0 -48.5 19.5t-19.5 48.5zM264 918q0 29 19.5 48t48.5 19q55 0 95 40t40 95v-135q0 -57 -40 -96t-95 -39 q-29 0 -48.5 19.5t-19.5 48.5zM264 918q0 29 19.5 48t48.5 19q55 0 95 40t40 95v-135q0 -57 -40 -96t-95 -39q-29 0 -48.5 19.5t-19.5 48.5zM264 918q0 29 19.5 48t48.5 19q55 0 95 40t40 95v-135q0 -57 -40 -96t-95 -39q-29 0 -48.5 19.5t-19.5 48.5zM365 0q57 0 97 40 t40 97v541h157v-541q0 -57 -39.5 -97t-95.5 -40h-159z" />
<glyph unicode="&#xfb;" horiz-adv-x="731" d="M72 137v541h157v-541q0 -57 40 -97t96 -40h-158q-57 0 -96 40t-39 97zM161 915q0 29 19.5 49.5t48.5 20.5q55 0 95 39t40 96q0 -57 39 -96t96 -39q29 0 48.5 -20.5t19.5 -49.5t-19.5 -48t-48.5 -19q-57 0 -96 40t-39 97q0 -57 -40 -97t-95 -40q-29 0 -48.5 19.5 t-19.5 47.5zM365 0q57 0 97 40t40 97v541h157v-541q0 -57 -39.5 -97t-95.5 -40h-159z" />
<glyph unicode="&#xfc;" horiz-adv-x="731" d="M72 137v541h157v-541q0 -57 40 -97t96 -40h-158q-57 0 -96 40t-39 97zM135 932q0 35 23.5 59.5t58.5 24.5t59.5 -24.5t24.5 -59.5t-24.5 -58.5t-59.5 -23.5t-58.5 23.5t-23.5 58.5zM365 0q57 0 97 40t40 97v541h157v-541q0 -57 -39.5 -97t-95.5 -40h-159zM430 932 q0 35 23.5 59.5t58.5 24.5t59.5 -24.5t24.5 -59.5t-24.5 -58.5t-59.5 -23.5t-58.5 23.5t-23.5 58.5z" />
<glyph unicode="&#x2c6;" horiz-adv-x="518" d="M55 915q0 29 19.5 49.5t48.5 20.5q55 0 95 39t40 96q0 -57 39 -96t96 -39q29 0 48.5 -20.5t19.5 -49.5t-19.5 -48t-48.5 -19q-57 0 -96 40t-39 97q0 -57 -40 -97t-95 -40q-29 0 -48.5 19.5t-19.5 47.5z" />
<glyph unicode="&#x2dc;" horiz-adv-x="561" d="M14 999q18 -41 89 -44t153 34q41 18 84 16.5t83 -19t72.5 -48.5t51.5 -72q-18 41 -89 44t-153 -33q-41 -18 -84 -16.5t-83 19t-72.5 48t-51.5 71.5z" />
<glyph unicode="&#x2000;" horiz-adv-x="769" />
<glyph unicode="&#x2001;" horiz-adv-x="1538" />
<glyph unicode="&#x2002;" horiz-adv-x="769" />
<glyph unicode="&#x2003;" horiz-adv-x="1538" />
<glyph unicode="&#x2004;" horiz-adv-x="512" />
<glyph unicode="&#x2005;" horiz-adv-x="384" />
<glyph unicode="&#x2006;" horiz-adv-x="256" />
<glyph unicode="&#x2007;" horiz-adv-x="256" />
<glyph unicode="&#x2008;" horiz-adv-x="192" />
<glyph unicode="&#x2009;" horiz-adv-x="307" />
<glyph unicode="&#x200a;" horiz-adv-x="85" />
<glyph unicode="&#x2010;" horiz-adv-x="544" d="M70 289v102h407v-102h-407z" />
<glyph unicode="&#x2011;" horiz-adv-x="544" d="M70 289v102h407v-102h-407z" />
<glyph unicode="&#x2012;" horiz-adv-x="544" d="M70 289v102h407v-102h-407z" />
<glyph unicode="&#x2013;" horiz-adv-x="663" d="M127 289v102h405v-102h-405z" />
<glyph unicode="&#x2014;" horiz-adv-x="1001" d="M127 575v103h745v-103h-745z" />
<glyph unicode="&#x2018;" horiz-adv-x="370" d="M63 915q0 55 25 105.5t65 87.5t92 58.5t109 21.5q-29 0 -53.5 -21.5t-42.5 -58.5t-29.5 -87t-11.5 -106q0 -31 -22.5 -53t-53.5 -22q-33 0 -55.5 22.5t-22.5 52.5z" />
<glyph unicode="&#x2019;" horiz-adv-x="372" d="M20 840q29 0 53.5 21.5t43 58t30 86t11.5 104.5q0 33 22.5 55.5t52.5 22.5q33 0 55.5 -22.5t22.5 -55.5q0 -55 -24.5 -104.5t-64.5 -86t-92 -58t-110 -21.5z" />
<glyph unicode="&#x201a;" horiz-adv-x="372" d="M20 -193q29 0 53.5 21.5t43 58.5t30 86.5t11.5 104.5q0 33 22.5 54.5t55.5 21.5t54 -21.5t21 -54.5q0 -55 -24.5 -104.5t-64.5 -86.5t-92 -58.5t-110 -21.5z" />
<glyph unicode="&#x201c;" horiz-adv-x="548" d="M18 915q0 55 25 105.5t66 87.5t93 58.5t109 21.5q-29 0 -53.5 -21.5t-42.5 -58.5t-29.5 -87t-11.5 -106q0 -31 -22.5 -53t-55.5 -22t-55.5 22.5t-22.5 52.5zM244 915q0 55 24.5 105.5t64.5 87.5t92.5 58.5t109.5 21.5q-29 0 -53.5 -21.5t-43 -58.5t-30 -87t-11.5 -106 q0 -31 -22.5 -53t-52.5 -22q-33 0 -55.5 22.5t-22.5 52.5z" />
<glyph unicode="&#x201d;" horiz-adv-x="579" d="M-4 840q29 0 53.5 21.5t43 58t29.5 87t11 105.5q0 31 22.5 53.5t53.5 22.5q33 0 55.5 -22.5t22.5 -53.5q0 -55 -24.5 -105.5t-64.5 -87t-92.5 -58t-109.5 -21.5zM219 840q29 0 53.5 21.5t43 58t29.5 87t11 105.5q0 31 22.5 53.5t55.5 22.5t55.5 -22.5t22.5 -53.5 q0 -55 -24.5 -105.5t-65.5 -87t-93.5 -58t-109.5 -21.5z" />
<glyph unicode="&#x2022;" horiz-adv-x="395" d="M90 340q0 47 32 77.5t77 28.5q47 0 76.5 -31.5t29.5 -76.5q0 -47 -30.5 -78t-77.5 -31q-47 4 -77 36t-30 75z" />
<glyph unicode="&#x202f;" horiz-adv-x="307" />
<glyph unicode="&#x2039;" horiz-adv-x="417" d="M10 348q29 0 53.5 21.5t43 58.5t28.5 86t10 104q0 33 22.5 55.5t55.5 22.5q31 0 53.5 -22.5t22.5 -55.5q0 -55 -24.5 -104t-64.5 -86t-92 -58.5t-108 -21.5zM10 348q55 0 107.5 -21.5t92.5 -58.5t64.5 -86t24.5 -104q0 -33 -22.5 -55.5t-53.5 -22.5q-33 0 -55.5 22.5 t-22.5 55.5q0 55 -10 104t-28.5 86t-43 58.5t-53.5 21.5z" />
<glyph unicode="&#x203a;" horiz-adv-x="413" d="M117 78q0 55 24.5 104t64.5 86t92 58.5t108 21.5q-29 0 -53.5 -21.5t-43 -58.5t-29 -86t-10.5 -104q0 -33 -22.5 -55.5t-54.5 -22.5q-31 0 -53.5 22.5t-22.5 55.5zM117 618q0 33 22.5 55.5t53.5 22.5q33 0 55 -22.5t22 -55.5q0 -55 10.5 -104t29 -86t43 -58.5t53.5 -21.5 q-55 0 -107.5 21.5t-92.5 58.5t-64.5 86t-24.5 104z" />
<glyph unicode="&#x205f;" horiz-adv-x="384" />
<glyph unicode="&#x25fc;" horiz-adv-x="675" d="M0 0v676h676v-676h-676z" />
</font>
</defs>
</svg>
