<svg xmlns="http://www.w3.org/2000/svg" viewBox="0 0 360.06 360.06"><defs><style>.cls-1{fill:#dc395f;}.cls-2{fill:#fff;}</style></defs><title>invision_1</title><g id="Layer_2" data-name="Layer 2"><g id="Invision"><circle class="cls-1" cx="180.03" cy="180.03" r="180.03"/><path class="cls-2" d="M114.49,121.56a20.87,20.87,0,1,0-21.17-20.87,20.93,20.93,0,0,0,21.17,20.87M70.58,233.3A71.67,71.67,0,0,0,68.71,249c0,18.38,10,30.58,31.14,30.58,17.56,0,31.8-10.43,42.05-27.27l-6.26,25.12h34.88l19.93-79.95c5-20.24,14.64-30.75,29.27-30.75,11.52,0,18.68,7.17,18.68,19a37.3,37.3,0,0,1-1.56,11.21l-10.28,36.75a55.23,55.23,0,0,0-2.18,15.57c0,17.45,10.27,30.2,31.76,30.2,18.37,0,33-11.83,41.11-40.17L283.57,234c-6.85,19-12.77,22.42-17.44,22.42s-7.16-3.11-7.16-9.34a41.31,41.31,0,0,1,1.56-9.66l10-35.8a79,79,0,0,0,3.43-22.71c0-26.78-16.2-40.76-35.81-40.76-18.37,0-37.06,16.57-46.4,34l6.85-31.31H145.3l-7.47,27.58h24.91L147.4,229.85c-12,26.78-34.18,27.22-37,26.59-4.56-1-7.48-2.76-7.48-8.69a58.73,58.73,0,0,1,2.18-14.25l23.36-92.65H69.33l-7.47,27.58h24.6L70.58,233.3"/></g></g></svg>