<svg xmlns="http://www.w3.org/2000/svg" viewBox="0 0 360.06 360.06"><defs><style>.cls-1{fill:#f7df1e;}</style></defs><title>js</title><g id="Layer_2" data-name="Layer 2"><g id="Js"><circle class="cls-1" cx="180.03" cy="180.03" r="180.03"/><path d="M58.82,233.92l28-17c5.41,9.59,10.33,17.7,22.13,17.7,11.31,0,18.44-4.43,18.44-21.64V96h34.43V213.5c0,35.66-20.9,51.89-51.4,51.89-27.54,0-43.53-14.26-51.64-31.48"/><path d="M180.55,230.23l28-16.23c7.38,12.05,17,20.9,33.94,20.9,14.26,0,23.36-7.13,23.36-17,0-11.8-9.34-16-25.08-22.87l-8.6-3.69c-24.84-10.57-41.32-23.85-41.32-51.89,0-25.82,19.67-45.49,50.41-45.49,21.89,0,37.62,7.62,48.94,27.54l-26.8,17.21c-5.9-10.57-12.29-14.75-22.13-14.75-10.08,0-16.48,6.39-16.48,14.75,0,10.33,6.39,14.51,21.15,20.9l8.61,3.69c29.26,12.54,45.74,25.33,45.74,54.1,0,31-24.35,48-57.05,48-32,0-52.63-15.25-62.71-35.17"/></g></g></svg>