<svg xmlns="http://www.w3.org/2000/svg" viewBox="0 0 361 361"><defs><style>.cls-1{fill:#1e415e;}.cls-2{fill:#fff;}</style></defs><title>python</title><g id="Layer_2" data-name="Layer 2"><g id="Python"><circle class="cls-1" cx="180.5" cy="180.5" r="180.5"/><g id="snaks"><path id="path1948" class="cls-2" d="M180,24.17a212.21,212.21,0,0,0-35.51,3c-31.44,5.56-37.15,17.18-37.15,38.62V94.14h74.3v9.44H79.46c-21.59,0-40.5,13-46.42,37.67-6.82,28.3-7.13,46,0,75.52,5.28,22,17.89,37.67,39.49,37.67H98.08V220.49c0-24.52,21.22-46.16,46.42-46.16h74.22c20.66,0,37.15-17,37.15-37.76V65.82c0-20.13-17-35.26-37.15-38.62A231.5,231.5,0,0,0,180,24.17ZM139.82,46.94a14.16,14.16,0,1,1-13.94,14.2A14.1,14.1,0,0,1,139.82,46.94Z"/><path id="path1950" class="cls-2" d="M265.13,103.58v33c0,25.58-21.69,47.11-46.41,47.11H144.49c-20.33,0-37.15,17.4-37.15,37.76V292.2c0,20.13,17.51,32,37.15,37.75,23.52,6.92,46.07,8.17,74.22,0,18.7-5.41,37.15-16.32,37.15-37.75V263.88H181.65v-9.44H293c21.6,0,29.64-15.06,37.15-37.67,7.76-23.28,7.43-45.66,0-75.52-5.34-21.49-15.53-37.67-37.15-37.67H265.13ZM223.39,282.75a14.16,14.16,0,1,1-13.94,14.11A14,14,0,0,1,223.39,282.75Z"/></g></g></g></svg>