<svg xmlns="http://www.w3.org/2000/svg" viewBox="0 0 360.06 360.06"><defs><style>.cls-1{fill:#f7b500;}.cls-2{fill:#d39700;}.cls-3{fill:#fff;}</style></defs><title>sketch</title><g id="Layer_2" data-name="Layer 2"><g id="Sketch"><circle class="cls-1" cx="180.03" cy="180.03" r="180.03"/><path class="cls-2" d="M296.63,149.12c0-.11.06-.2.08-.31a4.14,4.14,0,0,0,0-1.41c0-.11-.07-.21-.1-.32a2.12,2.12,0,0,0-.48-1.07c0-.07,0-.15-.1-.22l-31.39-44a4.08,4.08,0,0,0-1.69-1.31,4.16,4.16,0,0,0-2.15-2.19L222,81.58a4.22,4.22,0,0,0-1.66-.34H138.75a4.22,4.22,0,0,0-1.66.34L98.37,98.32a4.16,4.16,0,0,0-2.15,2.19,4.08,4.08,0,0,0-1.69,1.31l-31.39,44c0,.07-.05.15-.1.22a4.07,4.07,0,0,0-.26.39,4.12,4.12,0,0,0-.22.68c0,.11-.08.21-.1.32a4.14,4.14,0,0,0,0,1.41c0,.11.05.21.08.31a4.14,4.14,0,0,0,.4,1.06,4,4,0,0,0,.21.36c.06.09.09.19.16.28l113,142.32s.09.06.12.1a4.13,4.13,0,0,0,1.26,1l.23.1a3.81,3.81,0,0,0,3.32,0l.23-.1a4.15,4.15,0,0,0,1.26-1s.09-.05.12-.1l113-142.32c.07-.09.1-.19.16-.28a3.91,3.91,0,0,0,.21-.36A4.09,4.09,0,0,0,296.63,149.12Z"/><polygon class="cls-3" points="139.62 89.61 219.51 89.61 249.52 102.58 219.32 118.91 139.81 118.91 109.61 102.58 139.62 89.61"/><polygon class="cls-3" points="128.25 194.25 230.88 194.25 179.56 282.22 128.25 194.25"/><polygon class="cls-3" points="128.42 185.88 143.07 127.28 216.19 127.28 233.2 185.88 128.42 185.88"/><path class="cls-3" d="M74.1,144.84l26.76-37.46,34,18.36-14.23,56.93L74.33,145C74.26,144.91,74.17,144.89,74.1,144.84Z"/><path class="cls-3" d="M116.82,190.39a4.15,4.15,0,0,0,.53,1.79l29.17,50L84.42,164Z"/><path class="cls-3" d="M212.61,242.18l29.17-50a4.15,4.15,0,0,0,.53-1.79l32.4-26.4Z"/><path class="cls-3" d="M240.52,181l-16.08-55.39,33.83-18.29L285,144.84c-.07.05-.16.07-.23.13Z"/></g></g></svg>