<svg xmlns="http://www.w3.org/2000/svg" viewBox="0 0 360.06 360.06"><defs><style>.cls-1{fill:#00546b;}.cls-2{fill:#fff;}</style></defs><title>sql</title><g id="Layer_2" data-name="Layer 2"><g id="sql"><circle class="cls-1" cx="180.03" cy="180.03" r="180.03"/><path class="cls-2" d="M283.06,245.7c-13.31-.33-23.63,1-32.28,4.66-2.5,1-6.49,1-6.82,4.16,1.33,1.33,1.5,3.49,2.66,5.32,2,3.33,5.49,7.82,8.65,10.15,3.49,2.66,7,5.32,10.65,7.65,6.49,4,13.81,6.32,20.13,10.32,3.66,2.33,7.32,5.32,11,7.82,1.83,1.33,3,3.49,5.32,4.33v-.5c-1.16-1.5-1.5-3.66-2.66-5.32-1.66-1.66-3.33-3.16-5-4.83a78.93,78.93,0,0,0-17.31-16.81c-5.32-3.66-17-8.65-19.14-14.81l-.33-.33c3.66-.33,8-1.66,11.48-2.66,5.66-1.5,10.82-1.16,16.64-2.66,2.66-.67,5.32-1.5,8-2.33v-1.5c-3-3-5.16-7-8.32-9.82a221.79,221.79,0,0,0-27.45-20.47c-5.16-3.33-11.81-5.49-17.31-8.32-2-1-5.32-1.5-6.49-3.16-3-3.66-4.66-8.49-6.82-12.81-4.82-9.15-9.48-19.3-13.64-29-3-6.49-4.82-13-8.49-19-17.14-28.29-35.77-45.43-64.39-62.23-6.16-3.49-13.48-5-21.3-6.82-4.16-.17-8.32-.5-12.48-.67-2.66-1.16-5.32-4.33-7.65-5.82-9.48-6-33.94-19-40.93-1.83-4.49,10.82,6.66,21.46,10.48,27,2.83,3.83,6.49,8.15,8.49,12.48,1.16,2.83,1.5,5.82,2.66,8.82,2.66,7.32,5.16,15.47,8.65,22.3a80.4,80.4,0,0,0,6.16,10.32c1.33,1.83,3.66,2.66,4.16,5.66-2.33,3.33-2.5,8.32-3.83,12.48-6,18.8-3.66,42.1,4.83,55.91,2.66,4.16,9,13.31,17.47,9.82,7.49-3,5.82-12.48,8-20.8.5-2,.17-3.33,1.16-4.66,0,.17,0,.33,0,.33,2.33,4.66,4.66,9.15,6.82,13.81,5.16,8.15,14.14,16.64,21.63,22.3,4,3,7.16,8.15,12.15,10v-.5h-.33c-1-1.5-2.5-2.16-3.83-3.33a80.78,80.78,0,0,1-8.65-10,214,214,0,0,1-18.64-30.28c-2.66-5.16-5-10.82-7.15-16-1-2-1-5-2.66-6-2.5,3.66-6.16,6.82-8,11.31-3.16,7.15-3.49,16-4.66,25.12-.66.17-.33,0-.67.33-5.32-1.33-7.15-6.82-9.15-11.48-5-11.81-5.82-30.78-1.5-44.43,1.16-3.49,6.16-14.48,4.16-17.8-1-3.16-4.33-5-6.16-7.49a67.05,67.05,0,0,1-6-10.65c-4-9.32-6-19.63-10.32-29-2-4.33-5.49-8.82-8.32-12.81-3.16-4.49-6.66-7.65-9.15-13-.83-1.83-2-4.82-.67-6.82a2.65,2.65,0,0,1,2.33-2.16c2.16-1.83,8.32.5,10.48,1.5A84.85,84.85,0,0,1,95.2,79.14C97.53,80.8,100,84,103,84.8h3.49c5.32,1.16,11.31.33,16.31,1.83a106.34,106.34,0,0,1,24,11.48A147.62,147.62,0,0,1,198.69,155c2,3.83,2.83,7.32,4.66,11.31,3.49,8.15,7.82,16.47,11.31,24.46,3.49,7.82,6.82,15.81,11.81,22.3,2.5,3.49,12.48,5.32,17,7.15,3.33,1.5,8.49,2.83,11.48,4.66,5.66,3.49,11.31,7.49,16.64,11.31,2.66,2,11,6.16,11.48,9.48Z"/><path class="cls-2" d="M113.33,101.1a26.34,26.34,0,0,0-6.82.83v.33h.33c1.33,2.66,3.66,4.49,5.32,6.82,1.33,2.66,2.5,5.32,3.83,8l.33-.33c2.33-1.66,3.49-4.33,3.49-8.32-1-1.16-1.16-2.33-2-3.49-1-1.66-3.16-2.5-4.49-3.83Z"/></g></g></svg>