<?xml version="1.0" encoding="UTF-8"?>
<svg width="87px" height="83px" viewBox="0 0 87 83" version="1.1" xmlns="http://www.w3.org/2000/svg" xmlns:xlink="http://www.w3.org/1999/xlink">
    <!-- Generator: Sketch 41.2 (35397) - http://www.bohemiancoding.com/sketch -->
    <title>Ambitious</title>
    <desc>Created with Sketch.</desc>
    <defs></defs>
    <g id="Page-1" stroke="none" stroke-width="1" fill="none" fill-rule="evenodd">
        <g id="Resume-Copy" transform="translate(-924.000000, -597.000000)">
            <g id="Ambitious" transform="translate(925.000000, 598.000000)">
                <g id="SUPER-EMPLOYEE">
                    <g>
                        <g id="Layer_1_1_">
                            <g id="Group">
                                <ellipse id="Oval" stroke="#333333" stroke-width="2" cx="42.1688761" cy="6.75" rx="7.02814602" ry="6.75"></ellipse>
                                <path d="M42.1688761,58.725 C42.1688761,60.58935 43.7417752,62.1 45.6829491,62.1 C47.6241231,62.1 49.1970222,60.58935 49.1970222,58.725 L49.1970222,35.1443583 C49.1970222,33.5359781 47.8111253,31.2347993 47.8111253,29.6264191 C47.8111253,27.1700132 49.1970222,22.95 49.1970222,22.95 L58.333612,22.95 C60.2747859,22.95 61.847685,21.43935 61.847685,19.575 L61.847685,7.425 C61.847685,5.56065 60.2747859,4.05 58.333612,4.05 C56.392438,4.05 54.819539,5.56065 54.819539,7.425 L54.819539,16.2 L29.5182133,16.2 L29.5182133,7.425 C29.5182133,5.56065 27.9453142,4.05 26.0041403,4.05 C24.0629663,4.05 22.4900673,5.56065 22.4900673,7.425 L22.4900673,19.575 C22.4900673,21.43935 24.0629663,22.95 26.0041403,22.95 L35.1407301,22.95 C35.1407301,22.95 36.5466167,27.0047082 36.5466167,29.6264191 C36.5466167,30.8976547 35.1705201,33.6005871 35.1407301,35.1443582 C34.9525077,44.8983738 35.1407301,58.725 35.1407301,58.725 C35.1407301,60.58935 36.7136292,62.1 38.6548031,62.1 C40.595977,62.1 42.1688761,60.58935 42.1688761,58.725 L42.1688761,40.5 L42.1688761,58.725 Z" id="Shape" stroke="#333333" stroke-width="2"></path>
                                <path d="M32.3294717,22.95 L21.0844381,51.3 C21.0844381,51.3 25.5248207,54.02565 35.1407301,55.00305" id="Shape" stroke="#43A79E" stroke-width="2"></path>
                                <path d="M49.1970222,55.00305 C58.8129315,54.02565 63.2533142,51.3 63.2533142,51.3 L52.0082806,22.95" id="Shape" stroke="#43A79E" stroke-width="2"></path>
                                <ellipse id="Oval" fill="#333333" cx="36.5463593" cy="17.55" rx="1.4056292" ry="1.35"></ellipse>
                                <ellipse id="Oval" fill="#333333" cx="47.7913929" cy="17.55" rx="1.4056292" ry="1.35"></ellipse>
                                <polyline id="Shape" stroke="#333333" stroke-width="2" points="35.1407301 37.8 42.1688761 41.85 49.1970222 37.8"></polyline>
                                <polyline id="Shape" stroke="#333333" stroke-width="2" points="37.9519885 16.2 42.1688761 21.6 46.3857637 16.2"></polyline>
                                <path d="M54.819539,10.8 L61.847685,10.8" id="Shape" stroke="#333333" stroke-width="2"></path>
                                <path d="M29.5182133,10.8 L22.4900673,10.8" id="Shape" stroke="#333333" stroke-width="2"></path>
                                <path d="M27.1637844,64.8216 C25.588074,61.62075 22.2047245,59.4 18.2731797,59.4 C14.3289841,59.4 10.9357952,61.63425 9.36711302,64.85265 C9.06068585,64.82025 8.7500418,64.8 8.43377523,64.8 C3.77552004,64.8 0,68.4261 0,72.9 C0,77.3739 3.77552004,81 8.43377523,81 L26.7069549,81 C31.3652101,81 35.1407301,77.3739 35.1407301,72.9 C35.1407301,68.5746 31.6083839,65.0511 27.1637844,64.8216 L27.1637844,64.8216 Z" id="Shape" stroke="#333333" stroke-width="2"></path>
                                <path d="M56.2251682,33.75 L75.903977,33.75 C80.5622322,33.75 84.3377523,30.1239 84.3377523,25.65 C84.3377523,21.3246 80.8054061,17.8011 76.3608065,17.5716 C74.7850962,14.37075 71.4017467,12.15 67.4702018,12.15 C65.3772199,12.15 63.4388572,12.7791 61.8462794,13.851" id="Shape" stroke="#333333" stroke-width="2"></path>
                            </g>
                        </g>
                    </g>
                </g>
            </g>
        </g>
    </g>
</svg>