<?xml version="1.0" encoding="UTF-8"?>
<svg width="85px" height="84px" viewBox="0 0 85 84" version="1.1" xmlns="http://www.w3.org/2000/svg" xmlns:xlink="http://www.w3.org/1999/xlink">
    <!-- Generator: Sketch 41.2 (35397) - http://www.bohemiancoding.com/sketch -->
    <title>Communication</title>
    <desc>Created with Sketch.</desc>
    <defs></defs>
    <g id="Page-1" stroke="none" stroke-width="1" fill="none" fill-rule="evenodd">
        <g id="Resume-Copy" transform="translate(-694.000000, -465.000000)">
            <g id="Communication" transform="translate(673.000000, 466.000000)">
                <g id="CUSTOMER-REQUIREMENT">
                    <g transform="translate(22.349314, 0.000000)">
                        <g id="Layer_1">
                            <g id="Group">
                                <path d="M39.9234145,26.8812761 L59.196787,26.8812761 C72.1223366,26.8812761 82.6001679,37.1109458 82.6001679,49.7303608 L82.6001679,49.7303608 C82.6001679,56.707396 79.388398,62.942508 74.3401511,67.1346431 L74.3401511,80.6438284 L59.6180478,72.5592846 C59.4762509,72.5606286 59.3385839,72.5794455 59.196787,72.5794455 L39.9234145,72.5794455 C26.9978649,72.5794455 16.5200336,62.3497759 16.5200336,49.7303608 L16.5200336,49.7303608 C16.5200336,37.1109458 26.9978649,26.8812761 39.9234145,26.8812761 L39.9234145,26.8812761 Z" id="Shape" stroke="#333333" stroke-width="2"></path>
                                <ellipse id="Oval" stroke="#333333" stroke-width="2" cx="48.871766" cy="42.3380099" rx="10.325021" ry="10.0804785"></ellipse>
                                <path d="M16.5461903,49.2115522 C16.8325375,36.8340686 27.1768319,26.8812761 39.9234145,26.8812761 L59.196787,26.8812761 C61.3939514,26.8812761 63.5112691,27.1984752 65.5267132,27.7508854 C65.8805172,26.1702664 66.0801343,24.5331967 66.0801343,22.8490847 L66.0801343,22.8490847 C66.0801343,10.2296696 55.602303,0 42.6767534,0 L23.4033809,0 C10.4778313,0 0,10.2296696 0,22.8490847 L0,22.8490847 C0,29.8261199 3.21176986,36.0612319 8.26001679,40.2533669 L8.26001679,53.7625522 L16.5461903,49.2115522 L16.5461903,49.2115522 Z" id="Shape" stroke="#333333" stroke-width="2"></path>
                                <path d="M48.871766,52.4184884 L48.871766,52.4184884 C42.4096795,52.4184884 37.1700755,57.5339953 37.1700755,63.8430308 L37.1700755,67.2031903 L60.5734564,67.2031903 L60.5734564,63.8430308 C60.5734564,57.5339953 55.3338524,52.4184884 48.871766,52.4184884 L48.871766,52.4184884 Z" id="Shape" stroke="#333333" stroke-width="2"></path>
                                <ellipse id="Oval" fill="#333333" cx="45.4300923" cy="38.9778504" rx="1.37666946" ry="1.34406381"></ellipse>
                                <ellipse id="Oval" fill="#333333" cx="52.3134396" cy="38.9778504" rx="1.37666946" ry="1.34406381"></ellipse>
                                <path d="M43.3967515,44.3541056 C44.6536507,45.9777347 46.6277948,47.0422332 48.871766,47.0422332 C51.1157372,47.0422332 53.0912579,45.9777347 54.3467804,44.3541056" id="Shape" stroke="#333333" stroke-width="2"></path>
                                <path d="M11.0133557,10.7525104 L55.0667786,10.7525104" id="Shape" stroke="#333333" stroke-width="2"></path>
                                <path d="M11.0133557,18.8168933 L55.0667786,18.8168933" id="Shape" stroke="#333333" stroke-width="2"></path>
                                <path d="M11.0133557,26.8812761 L42.6767534,26.8812761" id="Shape" stroke="#333333" stroke-width="2"></path>
                            </g>
                        </g>
                    </g>
                </g>
            </g>
        </g>
    </g>
</svg>