<?xml version="1.0" encoding="UTF-8"?>
<svg width="86px" height="82px" viewBox="0 0 86 82" version="1.1" xmlns="http://www.w3.org/2000/svg" xmlns:xlink="http://www.w3.org/1999/xlink">
    <!-- Generator: Sketch 41.2 (35397) - http://www.bohemiancoding.com/sketch -->
    <title>Team Work</title>
    <desc>Created with Sketch.</desc>
    <defs></defs>
    <g id="Page-1" stroke="none" stroke-width="1" fill="none" fill-rule="evenodd">
        <g id="Resume-Copy" transform="translate(-1121.000000, -732.000000)" stroke-width="2" stroke="#333333">
            <g id="Team-Work" transform="translate(1122.000000, 733.000000)">
                <g id="TEAM-RELATIONSHIP">
                    <g>
                        <g id="Layer_1_1_">
                            <g id="Group">
                                <ellipse id="Oval" cx="8.37130282" cy="61.3333333" rx="6.97608568" ry="6.66666667"></ellipse>
                                <path d="M16.7426056,80 L0,80 L0,77.3333333 C0,72.9146667 3.74755323,69.3333333 8.37130282,69.3333333 L8.37130282,69.3333333 C12.9950524,69.3333333 16.7426056,72.9146667 16.7426056,77.3333333 L16.7426056,80 L16.7426056,80 Z" id="Shape"></path>
                                <ellipse id="Oval" cx="41.8565141" cy="61.3333333" rx="6.97608568" ry="6.66666667"></ellipse>
                                <path d="M50.2278169,80 L33.4852113,80 L33.4852113,77.3333333 C33.4852113,72.9146667 37.2327645,69.3333333 41.8565141,69.3333333 L41.8565141,69.3333333 C46.4802637,69.3333333 50.2278169,72.9146667 50.2278169,77.3333333 L50.2278169,80 L50.2278169,80 Z" id="Shape"></path>
                                <ellipse id="Oval" cx="75.3417254" cy="61.3333333" rx="6.97608568" ry="6.66666667"></ellipse>
                                <path d="M83.7130282,80 L66.9704225,80 L66.9704225,77.3333333 C66.9704225,72.9146667 70.7179758,69.3333333 75.3417254,69.3333333 L75.3417254,69.3333333 C79.9654749,69.3333333 83.7130282,72.9146667 83.7130282,77.3333333 L83.7130282,80 L83.7130282,80 Z" id="Shape"></path>
                                <path d="M55.1110769,0 C47.7903726,0 41.8565141,5.67066667 41.8565141,12.6666667 C41.8565141,5.67066667 35.9226556,0 28.6019513,0 C21.281247,0 15.3473885,5.67066667 15.3473885,12.6666667 C15.3473885,19.5346667 19.6544238,25.7333333 26.2775195,28.3973333 L41.8565141,34.6666667 L57.4355086,28.3973333 C64.0586044,25.7333333 68.3656397,19.5346667 68.3656397,12.6666667 C68.3656397,5.67066667 62.4317812,0 55.1110769,0 L55.1110769,0 Z" id="Shape"></path>
                                <polyline id="Shape" points="75.3417254 54.6666667 75.3417254 41.3333333 55.8086854 41.3333333 55.8086854 29.3333333"></polyline>
                                <polyline id="Shape" points="8.37130282 54.6666667 8.37130282 41.3333333 27.9043427 41.3333333 27.9043427 29.3333333"></polyline>
                                <path d="M41.8565141,54.6666667 L41.8565141,34.6666667" id="Shape"></path>
                            </g>
                        </g>
                    </g>
                </g>
            </g>
        </g>
    </g>
</svg>