<?xml version="1.0" encoding="UTF-8"?>
<svg width="73px" height="77px" viewBox="0 0 73 77" version="1.1" xmlns="http://www.w3.org/2000/svg" xmlns:xlink="http://www.w3.org/1999/xlink">
    <!-- Generator: Sketch 41.2 (35397) - http://www.bohemiancoding.com/sketch -->
    <title>User Research</title>
    <desc>Created with Sketch.</desc>
    <defs></defs>
    <g id="Page-1" stroke="none" stroke-width="1" fill="none" fill-rule="evenodd">
        <g id="Resume-Copy" transform="translate(-694.000000, -858.000000)" stroke-width="2" stroke="#333333">
            <g id="User-Research" transform="translate(696.000000, 859.000000)">
                <g id="CREATIVE-THINKING">
                    <g>
                        <g id="Layer_1">
                            <g id="Group">
                                <path d="M54.3609586,76 L54.3609586,57.9917377 C63.6082849,52.2979672 69.6719227,42.7668197 69.6649562,31.9685902 L69.6621696,27.4222951 C69.6621696,12.4104262 56.1611011,0.218032787 39.4233987,0.0261639344 C24.8578497,-0.142032787 12.0492508,9.21842623 9.02439842,21.9590164 C8.19399215,25.4550164 8.21628493,28.828918 8.82237005,32.0259016 L0.022292786,46.0983607 L9.75309387,48.5901639 L9.77538665,63.5409836 L23.7083779,63.5409836 L23.7083779,76" id="Shape"></path>
                                <path d="M50.1810612,26.1639344 C50.1810612,20.659541 45.1902638,16.1967213 39.0346682,16.1967213 C32.8790727,16.1967213 27.8882753,20.659541 27.8882753,26.1639344 C27.8882753,29.8505574 30.1328801,33.0624918 33.4614718,34.7868197 L33.4614718,38.6229508 L44.6078647,38.6229508 L44.6078647,34.7868197 C47.9364563,33.0624918 50.1810612,29.8505574 50.1810612,26.1639344 L50.1810612,26.1639344 Z" id="Shape"></path>
                                <path d="M45.3045143,42.3606557 L32.7648222,42.3606557 C31.6111705,42.3606557 30.6748735,41.5234098 30.6748735,40.4918033 L30.6748735,40.4918033 C30.6748735,39.4601967 31.6111705,38.6229508 32.7648222,38.6229508 L45.3045143,38.6229508 C46.458166,38.6229508 47.394463,39.4601967 47.394463,40.4918033 L47.394463,40.4918033 C47.394463,41.5234098 46.4595593,42.3606557 45.3045143,42.3606557 L45.3045143,42.3606557 Z" id="Shape"></path>
                                <path d="M43.9112152,46.0983607 L34.1581213,46.0983607 C33.0044696,46.0983607 32.0681726,45.2611148 32.0681726,44.2295082 L32.0681726,44.2295082 C32.0681726,43.1979016 33.0044696,42.3606557 34.1581213,42.3606557 L43.9112152,42.3606557 C45.0648669,42.3606557 46.0011639,43.1979016 46.0011639,44.2295082 L46.0011639,44.2295082 C46.0011639,45.2611148 45.0662602,46.0983607 43.9112152,46.0983607 L43.9112152,46.0983607 Z" id="Shape"></path>
                                <path d="M39.0346682,38.6229508 L39.0346682,28.6557377" id="Shape"></path>
                                <ellipse id="Oval" cx="39.0346682" cy="26.1639344" rx="2.78659825" ry="2.49180328"></ellipse>
                                <path d="M46.9165614,39.3144262 C47.529613,39.0191475 48.125945,38.7001967 48.6902312,38.3401311 L50.8359118,40.2588197 L54.7761617,36.7354098 L52.6304811,34.8167213 C54.0627926,33.0176393 55.0548216,30.9245246 55.4811711,28.6544918 L58.5185632,28.6544918 L58.5185632,23.6708852 L55.4811711,23.6708852 C55.0548216,21.4020984 54.0627926,19.3089836 52.6304811,17.5086557 L54.7761617,15.5899672 L50.8359118,12.0665574 L48.6902312,13.9852459 C46.6783072,12.704459 44.3375647,11.817377 41.7989737,11.4361311 L41.7989737,8.72131148 L36.2257772,8.72131148 L36.2257772,11.437377 C33.6885795,11.818623 31.347837,12.7057049 29.3345197,13.9864918 L27.1888391,12.0678033 L23.2485892,15.5912131 L25.3942698,17.5099016 C23.9619583,19.3089836 22.9699294,21.4020984 22.5435798,23.6721311 L19.5061877,23.6721311 L19.5061877,28.6557377 L22.5435798,28.6557377 C22.9699294,30.9245246 23.9619583,33.0176393 25.3942698,34.8179672 L23.2485892,36.7366557 L27.1888391,40.2600656 L29.3345197,38.341377 C29.908559,38.7064262 30.5160374,39.0303607 31.1402354,39.329377" id="Shape"></path>
                                <path d="M39.0123755,49.8360656 L39.0123755,52.3278689" id="Shape"></path>
                                <path d="M39.0123755,54.8196721 L39.0123755,57.3114754" id="Shape"></path>
                                <path d="M39.0123755,59.8032787 L39.0123755,62.295082" id="Shape"></path>
                                <path d="M39.0123755,64.7868852 L39.0123755,67.2786885" id="Shape"></path>
                            </g>
                        </g>
                    </g>
                </g>
            </g>
        </g>
    </g>
</svg>