<svg id="Ai" xmlns="http://www.w3.org/2000/svg" viewBox="0 0 361 361"><defs><style>.cls-1{fill:#433324;}.cls-2{fill:#ff810f;}</style></defs><title>Ai</title><circle class="cls-1" cx="180.97" cy="180.84" r="180.03"/><g id="Ai-2" data-name="Ai"><path class="cls-2" d="M134.16,212.88l-12.24,40H95.27l45-140.79H173l46.09,140.79H191.41l-12.6-40Zm40.33-19.44-11.16-34.57c-2.88-8.64-5-18-7.2-26.28h-.36c-2.16,8.28-4.32,18-6.84,26.28l-10.8,34.57Z"/><path class="cls-2" d="M256.58,122.87c0,7.56-5.76,13.68-14.76,13.68-8.64,0-14-6.12-14-13.68,0-7.92,5.76-14,14.4-14S256.22,114.95,256.58,122.87Zm-27.36,130V151.31h25.92V252.85Z"/></g></svg>