<?xml version="1.0" encoding="UTF-8" standalone="no"?>
<svg width="186px" height="179px" viewBox="0 0 186 179" version="1.1" xmlns="http://www.w3.org/2000/svg" xmlns:xlink="http://www.w3.org/1999/xlink" xmlns:sketch="http://www.bohemiancoding.com/sketch/ns">
    <!-- Generator: Sketch 3.4.4 (17249) - http://www.bohemiancoding.com/sketch -->
    <title>Bird 1 Copy 3</title>
    <desc>Created with Sketch.</desc>
    <defs></defs>
    <g id="Page-1" stroke="none" stroke-width="1" fill="none" fill-rule="evenodd" sketch:type="MSPage">
        <g id="Home-Copy" sketch:type="MSArtboardGroup" transform="translate(-419.000000, -289.000000)">
            <g id="Bird-1-Copy-3" sketch:type="MSLayerGroup" transform="translate(419.000000, 289.000000)">
                <path d="M170.741262,42.1777482 L187.868679,42.5695862 C187.868679,42.5695862 177.780344,46.168362 171.314838,45.431765 C164.849333,44.6951679 154.760998,43.9309887 154.760998,43.9309887 L170.741262,42.1777482 Z" id="Triangle-6" fill="#000000" sketch:type="MSShapeGroup" transform="translate(171.314838, 43.854458) rotate(145.000000) translate(-171.314838, -43.854458) "></path>
                <path d="M161.790465,32.5379506 C169.999903,33.0272652 185.831055,35.2011721 185.831055,35.2011721 C185.831055,35.2011721 173.955628,40.7916016 168.985429,44.5202096 C160.754615,50.6949082 146.828741,66.0604236 146.828741,66.0604236 C146.828741,66.0604236 140.426642,58.4305418 138.586426,49.6020508 C137.862017,46.126681 141.319256,40.7548871 140.901457,38.1747523 C140.593433,36.2725396 141.074706,33.744629 141.074706,33.744629 C141.074706,33.744629 154.715346,32.1162458 161.790465,32.5379506 Z M159.977385,40.3305343 C161.634239,40.3305343 162.977385,39.6589614 162.977385,38.8305343 C162.977385,38.0021072 161.634239,37.3305343 159.977385,37.3305343 C158.320531,37.3305343 156.977385,38.0021072 156.977385,38.8305343 C156.977385,39.6589614 158.320531,40.3305343 159.977385,40.3305343 Z" id="Triangle-5" fill="#FFFFFF" sketch:type="MSShapeGroup"></path>
                <path d="M88.8476562,22.5498047 C90.5279827,18.3166994 92.8774894,11.5603419 94.8457031,6.73828125 C96.3336956,3.09274741 97.7548828,0.0405273438 97.7548828,0.0405273438 C97.7548828,0.0405273438 109.89935,22.1406497 115.59668,33.2373047 C120.980079,43.7225182 130.973633,65.4033203 130.973633,65.4033203 L88.8476562,67.6328125 C88.8476562,67.6328125 82.8878472,37.563851 88.8476562,22.5498047 Z" id="Triangle-4" fill="#000000" sketch:type="MSShapeGroup"></path>
                <path d="M79.8171517,80.7044109 C87.6229788,73.9318041 108.875965,68.704759 108.875965,68.704759 C108.875965,68.704759 124.917118,69.4551578 135.232338,76.3852683 C148.036101,84.9872661 173.493209,102.947864 173.493209,102.947864 C173.493209,102.947864 137.175184,105.518211 118.983078,106.015965 C99.7971223,106.540912 61.3590237,106.015966 61.3590237,106.015966 C61.3590237,106.015966 72.0113245,87.4770178 79.8171517,80.7044109 Z" id="Triangle-2" fill="#000000" sketch:type="MSShapeGroup" transform="translate(117.426117, 87.477017) rotate(131.000000) translate(-117.426117, -87.477017) "></path>
                <path d="M94.5795132,95.2416415 C76.2138161,74.1124289 39.4824219,31.8540039 39.4824219,31.8540039 L98.453125,48.9628906 L121.201744,67.6005859 C121.201744,67.6005859 123.700997,71.4427889 122.678449,72.6666247 C116.391101,80.1916305 103.816406,95.241642 103.816406,95.241642 C103.816406,95.241642 97.2501117,98.3140891 94.5795132,95.2416415 Z" id="Rectangle-14" fill="#FFFFFF" sketch:type="MSShapeGroup"></path>
                <polygon id="Triangle-3" fill="#FFFFFF" sketch:type="MSShapeGroup" points="69.5 119 100.477539 111.234375 0.278320312 178.748047 "></polygon>
            </g>
        </g>
    </g>
</svg>