<svg xmlns="http://www.w3.org/2000/svg" viewBox="0 0 361 361"><defs><style>.cls-1{fill:#ee4323;}.cls-2{fill:#fff;}</style></defs><title>Code igniter</title><g id="Codeigniter"><circle class="cls-1" cx="180.5" cy="180.5" r="180.5"/><g id="Flame"><path class="cls-2" d="M135.82,318.6c-18-7.8-34.8-27.5-34.8-47.7,0-22,13.9-40.7,31.3-53-2.1,7.9-3.2,15.1,1.9,22.2a20.73,20.73,0,0,0,21.2,8c18.6-4.1,19.4-24.5,8.4-36.4s-21.4-25.2-17.2-42.3a43.52,43.52,0,0,1,14-22.3c-5.1,13.5,9.4,26.7,19,33.4,16.6,11.5,34.9,20.1,50.2,33.6,16.1,14.1,28,33.3,25.6,55.4-2.6,24-21.7,40.7-43.1,49.2,45.3-10,92-45.1,93-95.3.8-41.3-27.5-73.1-62.6-91.3l-1.8-1a13.2,13.2,0,0,1,1.2,6.1,27,27,0,0,0,.6-4.1,19.35,19.35,0,0,1-.6,4.9l.1-.8a19.93,19.93,0,0,1-2.6,6.2l.5-.6c-7,11.6-26,14.1-35.3,2.1-15.1-19.3.3-40.2,2.5-60.7,2.7-25.7-13.4-50.6-33.4-65.5,11,17.8-3.5,41.3-15.1,54.5-11.2,12.8-24.9,23.4-37.3,35-13.3,12.4-26.1,25.5-37.1,40.1-21.9,29.2-35.3,66-25.5,102.4s41.3,59.7,76.9,67.9Z"/></g></g></svg>