<?xml version="1.0" encoding="utf-8"?>
<!-- Generator: Adobe Illustrator 19.1.0, SVG Export Plug-In . SVG Version: 6.00 Build 0)  -->
<svg version="1.1" id="Layer_1" xmlns="http://www.w3.org/2000/svg" xmlns:xlink="http://www.w3.org/1999/xlink" x="0px" y="0px"
	 viewBox="-65 234.7 261.8 325.3" style="enable-background:new -65 234.7 261.8 325.3;" xml:space="preserve">
<style type="text/css">
	.st0{fill:url(#XMLID_2_);}
	.st1{fill:url(#XMLID_3_);}
</style>
<g id="XMLID_247_">
	
		<linearGradient id="XMLID_2_" gradientUnits="userSpaceOnUse" x1="34.629" y1="480.7465" x2="34.629" y2="293.7487" gradientTransform="matrix(1 0 0 -1 0 797.4)">
		<stop  offset="0" style="stop-color:#8DC63F"/>
		<stop  offset="1" style="stop-color:#39B54A"/>
	</linearGradient>
	<path id="XMLID_200_" class="st0" d="M131,560c0-56.9-55.6-93.2-87.6-91.7s-41.5-9.9-41.5-9.9l27.8-1.6c0,0-54.9-15.5-63.8-23.1
		c0,0,23.3-4.5,24.5-4c0,0-35.3-22.6-55.3-56.1c0,0,46.4,14.8,50.9,18.4c0,0-42.2-61.9-44.3-94.4s4.1-62.9,4.1-62.9
		s15.8,52,44.5,71.6S156.6,441,131,560z"/>
	
		<linearGradient id="XMLID_3_" gradientUnits="userSpaceOnUse" x1="129.3808" y1="480.7465" x2="129.3808" y2="293.7487" gradientTransform="matrix(1 0 0 -1 0 797.4)">
		<stop  offset="0" style="stop-color:#8DC63F"/>
		<stop  offset="1" style="stop-color:#39B54A"/>
	</linearGradient>
	<path id="XMLID_196_" class="st1" d="M172.9,301.8c-28.3-6.8-94.8,3.3-103.9,10.6l33.6,2.4c0,0-37.8,31.3-40.6,44.4l5.5,6.1
		l18.7-9.8l-13.8,15.7c0,0,42.2,50.1,48.1,68.4c5.9,18.3,27.1,59.3,20.9,89.9c0,0,9.9-44.8,0-73s-12.8-54.2-12.1-65.9
		c0,0,11,11.6,12.1,15.6c0,0-10.1-41,6.7-56.1s39.4-18.8,33.8-6.6c0,0,12.5-9.1,13.9-17.2C197.1,318.1,201.1,308.7,172.9,301.8z
		 M150.8,316.5c-7.2-3-12-8.4-11.7-9.8c18.3-0.4,26.9,8.4,27.7,10.2C166.8,316.9,158,319.5,150.8,316.5z"/>
</g>
</svg>
