<?xml version="1.0" encoding="utf-8"?>
<!-- Generator: Adobe Illustrator 19.2.1, SVG Export Plug-In . SVG Version: 6.00 Build 0)  -->
<svg version="1.1" id="Layer_1" xmlns="http://www.w3.org/2000/svg" xmlns:xlink="http://www.w3.org/1999/xlink" x="0px" y="0px"
	 width="64px" height="64px" viewBox="0 0 64 64" enable-background="new 0 0 64 64" xml:space="preserve">
<g>
	<line fill="none" stroke="#333333" stroke-width="2" stroke-miterlimit="10" x1="53" y1="23" x2="53" y2="41"/>
	<line fill="none" stroke="#333333" stroke-width="2" stroke-miterlimit="10" x1="48" y1="23" x2="48" y2="41"/>
	<line fill="none" stroke="#333333" stroke-width="2" stroke-miterlimit="10" x1="14" y1="23" x2="14" y2="41"/>
	<line fill="none" stroke="#333333" stroke-width="2" stroke-miterlimit="10" x1="25" y1="29" x2="14" y2="29"/>
	<line fill="none" stroke="#333333" stroke-width="2" stroke-miterlimit="10" x1="28" y1="35" x2="14" y2="35"/>
	<line fill="none" stroke="#333333" stroke-width="2" stroke-miterlimit="10" x1="7" y1="28" x2="7" y2="36"/>
	<polygon fill="none" stroke="#333333" stroke-width="2" stroke-linejoin="round" stroke-miterlimit="10" points="48,2 21,23 32,41 
		16,62 43,41 32,23 	"/>
	<polyline fill="none" stroke="#333333" stroke-width="2" stroke-miterlimit="10" points="21,23 14,23 2,32 14,41 32,41 	"/>
	<path fill="none" stroke="#333333" stroke-width="2" stroke-miterlimit="10" d="M43,41h10c4.971,0,9-4.029,9-9s-4.029-9-9-9H32"/>
	<line fill="none" stroke="#333333" stroke-width="2" stroke-miterlimit="10" x1="48" y1="29" x2="36" y2="29"/>
	<line fill="none" stroke="#333333" stroke-width="2" stroke-miterlimit="10" x1="48" y1="35" x2="39" y2="35"/>
</g>
</svg>
