<?xml version="1.0" encoding="utf-8"?>
<!-- Generator: Adobe Illustrator 19.2.1, SVG Export Plug-In . SVG Version: 6.00 Build 0)  -->
<svg version="1.1" id="Layer_1" xmlns="http://www.w3.org/2000/svg" xmlns:xlink="http://www.w3.org/1999/xlink" x="0px" y="0px"
	 width="64px" height="64px" viewBox="0 0 64 64" enable-background="new 0 0 64 64" xml:space="preserve">
<g>
	<path fill="none" stroke="#333333" stroke-width="2" stroke-miterlimit="10" d="M46.016,63V48.546
		C52.653,43.976,57.005,36.326,57,27.659l-0.002-3.649c0-12.049-9.69-21.835-21.703-21.989C24.841,1.886,15.648,9.399,13.477,19.625
		c-0.596,2.806-0.58,5.514-0.145,8.08L7.016,39L14,41l0.016,12h10v10"/>
	<path fill="none" stroke="#333333" stroke-width="2" stroke-miterlimit="10" d="M35,21l4.24-2.65
		c2.339-1.462,3.76-4.026,3.76-6.784V11c0-2.209-1.791-4-4-4h0c-2.209,0-4,1.791-4,4v0v0c0-2.209-1.791-4-4-4h0
		c-2.209,0-4,1.791-4,4v0.566c0,2.758,1.421,5.322,3.76,6.784L35,21z"/>
	<line fill="none" stroke="#333333" stroke-width="2" stroke-miterlimit="10" x1="35" y1="21" x2="35" y2="31"/>
	<polygon fill="none" stroke="#333333" stroke-width="2" stroke-miterlimit="10" points="40,43 30,43 27,35 43,35 	"/>
	<rect x="26" y="31" fill="none" stroke="#333333" stroke-width="2" stroke-miterlimit="10" width="18" height="4"/>
	<path fill="none" stroke="#333333" stroke-width="2" stroke-miterlimit="10" d="M29.394,27H28c-1.105,0-2-0.895-2-2v0
		c0-1.105,0.895-2,2-2h1.394c0.395,0,0.781,0.117,1.109,0.336L33,25l-2.496,1.664C30.175,26.883,29.789,27,29.394,27z"/>
	<path fill="none" stroke="#333333" stroke-width="2" stroke-miterlimit="10" d="M40.606,27H42c1.105,0,2-0.895,2-2v0
		c0-1.105-0.895-2-2-2h-1.394c-0.395,0-0.781,0.117-1.109,0.336L37,25l2.496,1.664C39.825,26.883,40.211,27,40.606,27z"/>
</g>
</svg>
