<?xml version="1.0" encoding="UTF-8"?>
<svg width="202px" height="133px" viewBox="0 0 202 133" version="1.1" xmlns="http://www.w3.org/2000/svg" xmlns:xlink="http://www.w3.org/1999/xlink">
    <!-- Generator: Sketch 42 (36781) - http://www.bohemiancoding.com/sketch -->
    <title>MoodBook Copy</title>
    <desc>Created with Sketch.</desc>
    <defs></defs>
    <g id="Page-1" stroke="none" stroke-width="1" fill="none" fill-rule="evenodd">
        <g id="MoodBook-Copy" fill-rule="nonzero">
            <g id="metalab-logo" transform="translate(57.000000, 22.000000)">
                <g id="Layer_1">
                    <g id="Group">
                        <path d="M88.4836691,88.4843235 L0.516330882,88.4843235 L0.516330882,0.515676471 L88.4836691,0.515676471 L88.4836691,88.4843235 L88.4836691,88.4843235 Z M2.08757353,86.9137353 L86.9130809,86.9137353 L86.9130809,2.08626471 L2.08757353,2.08626471 L2.08757353,86.9137353 Z" id="Shape" fill="#000000"></path>
                        <g transform="translate(16.360294, 26.176471)" id="Shape">
                            <polygon fill="#000000" points="10.6597132 15.0370735 10.6597132 6.54608088 7.87846324 12.070625 5.95580147 12.070625 3.15230147 6.54608088 3.15230147 15.0370735 0.308227941 15.0370735 0.308227941 0.471176471 3.11369118 0.471176471 6.91647794 8.34440441 10.70225 0.471176471 13.5037868 0.471176471 13.5037868 15.0370735"></polygon>
                            <polygon fill="#000000" points="19.2096029 15.0370735 19.2096029 0.471176471 28.8045882 0.471176471 28.8045882 3.00702206 22.0517132 3.00702206 22.0517132 6.42239706 27.8007206 6.42239706 27.8007206 8.96151471 22.0517132 8.96151471 22.0517132 12.4999191 28.8045882 12.4999191 28.8045882 15.0370735"></polygon>
                            <polygon fill="#000000" points="39.883125 3.00702206 39.883125 15.0370735 37.0390515 15.0370735 37.0390515 3.00702206 33.2329926 3.00702206 33.2329926 0.471176471 43.6885294 0.471176471 43.6885294 3.00702206"></polygon>
                            <path d="M52.1788676,4.76542647 L50.3366985,10.0635441 L53.9555956,10.0635441 L52.1788676,4.76542647 Z M55.5739559,15.0370735 L54.7153676,12.4580368 L49.5402794,12.4580368 L48.6587868,15.0370735 L45.6929926,15.0370735 L50.9943824,0.471176471 L53.2233088,0.471176471 L58.5417132,15.0370735 L55.5739559,15.0370735 Z" fill="#000000"></path>
                            <polygon fill="#000000" points="19.3876029 36.5495515 19.3876029 21.9836544 22.2297132 21.9836544 22.2297132 34.0123971 28.836 34.0123971 28.836 36.5495515"></polygon>
                            <path d="M38.3275882,26.27725 L36.4873824,31.5792941 L40.105625,31.5792941 L38.3275882,26.27725 Z M41.7226765,36.5495515 L40.8627794,33.9705147 L35.6896544,33.9705147 L34.8094706,36.5495515 L31.8430221,36.5495515 L37.1417941,21.9836544 L39.3720294,21.9836544 L44.6897794,36.5495515 L41.7226765,36.5495515 Z" fill="#000000"></path>
                            <path d="M54.0485221,30.4321103 L51.0833824,30.4321103 L51.0833824,34.0123971 L54.0485221,34.0123971 C55.3390221,34.0123971 55.9522059,33.1943824 55.9522059,32.2114559 C55.9522059,31.2298382 55.3383676,30.4321103 54.0485221,30.4321103 M53.8626691,24.5195 L51.0833824,24.5195 L51.0833824,27.8759779 L53.8626691,27.8759779 C55.0720221,27.8759779 55.7467206,27.1986618 55.7467206,26.1967574 C55.7467206,25.1955074 55.0713676,24.5195 53.8626691,24.5195 M54.3351544,36.5495515 L48.2393088,36.5495515 L48.2393088,21.9836544 L54.0890956,21.9836544 C56.9331691,21.9836544 58.5894853,23.5791103 58.5894853,26.0750368 C58.5894853,27.6907794 57.5247574,28.7332574 56.7911618,29.0814044 C57.6687279,29.4904118 58.7930074,30.4118235 58.7930074,32.3534632 C58.7930074,35.077125 56.9331691,36.5495515 54.3351544,36.5495515" fill="#000000"></path>
                            <polygon fill="#CF0A2C" points="7.70831618 29.8941838 7.70831618 35.8872868 6.15277941 35.8872868 6.15277941 29.8941838 0.15575 29.8941838 0.15575 28.3360294 6.15277941 28.3360294 6.15277941 22.3763015 7.70831618 22.3763015 7.70831618 28.3360294 13.6693529 28.3360294 13.6693529 29.8941838"></polygon>
                        </g>
                    </g>
                </g>
            </g>
        </g>
    </g>
</svg>