<?xml version="1.0" encoding="UTF-8"?>
<svg width="174px" height="39px" viewBox="0 0 174 39" version="1.1" xmlns="http://www.w3.org/2000/svg" xmlns:xlink="http://www.w3.org/1999/xlink">
    <!-- Generator: Sketch 42 (36781) - http://www.bohemiancoding.com/sketch -->
    <title>MoodBook_Logo</title>
    <desc>Created with Sketch.</desc>
    <defs>
        <linearGradient x1="50%" y1="0%" x2="50%" y2="100%" id="linearGradient-1">
            <stop stop-color="#FBDA61" offset="0%"></stop>
            <stop stop-color="#F76B1C" offset="100%"></stop>
        </linearGradient>
    </defs>
    <g id="Page-1" stroke="none" stroke-width="1" fill="none" fill-rule="evenodd">
        <g id="MoodBook" transform="translate(-14.000000, -41.000000)">
            <g id="MoodBook_Logo" transform="translate(14.000000, 41.000000)">
                <g id="noun_742340_cc" transform="translate(131.000000, 0.000000)">
                    <path d="M6.71513887,7.46156366 L6.71513887,0.475609756 C6.71513887,0.475609756 16.6046996,6.93477608 21.5,6.93477608 C26.3953004,6.93477608 35.7775173,1.10276899 35.7775173,1.10276899 C35.7775173,1.10276899 36.0016264,5.21183305 36.3811716,7.17835842 C36.7607168,9.14488379 43,38.5243902 43,38.5243902 L0,38.5243902 L0.220894944,7.54179585 L6.71513887,7.46156366 Z" id="Rectangle-9" fill="url(#linearGradient-1)"></path>
                    <g id="Group" fill-rule="nonzero" fill="#000000">
                        <path d="M42.4094667,7.03284146 L36.4702111,7.03284146 L36.4702111,0.871317073 C36.4702111,0.678219512 36.3717889,0.498439024 36.2074333,0.394756098 C36.0440333,0.291073171 35.8390667,0.277280488 35.6632444,0.359560976 L21.4995222,6.93391463 L7.33627778,0.359560976 C7.1595,0.277756098 6.95501111,0.291073171 6.79113333,0.394756098 C6.62773333,0.498439024 6.52835556,0.678219512 6.52835556,0.871317073 L6.52835556,7.03284146 L0.590055556,7.03284146 C0.276155556,7.03284146 0.0224555556,7.28634146 0.0224555556,7.59786585 L0.0224555556,38.1286829 C0.0224555556,38.4402073 0.276155556,38.6937073 0.590055556,38.6937073 L42.4089889,38.6937073 C42.7219333,38.6937073 42.9765889,38.4406829 42.9765889,38.1286829 L42.9765889,7.59786585 C42.9770667,7.28634146 42.7224111,7.03284146 42.4094667,7.03284146 Z M1.15717778,37.5631829 L1.15717778,8.16289024 L6.98272222,8.16289024 L6.98272222,11.847439 L6.98272222,14.8794512 L6.98272222,15.5571951 L6.98272222,22.5125122 L6.98272222,23.1907317 L6.98272222,30.1450976 L6.98272222,30.8233171 L6.98272222,30.9821707 L6.98272222,31.2580244 C6.98272222,31.3902439 7.05964444,31.5100976 7.17956667,31.5657439 L20.1020222,37.5636585 L1.15717778,37.5636585 L1.15717778,37.5631829 Z M21.1593444,37.305878 L7.66355556,31.0420976 L7.66355556,7.59786585 L7.66355556,1.75785366 L21.1593444,8.02258537 L21.1593444,37.305878 Z M21.8397,8.02258537 L35.3359667,1.75785366 L35.3359667,7.59786585 L35.3359667,31.041622 L21.8397,37.305878 L21.8397,8.02258537 Z" id="Shape"></path>
                    </g>
                </g>
                <path d="M15.325,30 L15.325,18.25 L10.75,27 L8.875,27 L4.3,18.25 L4.3,30 L0.85,30 L0.85,12.25 L4.55,12.25 L9.8,22.35 L15.1,12.25 L18.775,12.25 L18.775,30 L15.325,30 Z M28.025,30.25 C26.958328,30.25 26.0000042,30.0666685 25.15,29.7 C24.2999957,29.3333315 23.5791696,28.8375031 22.9875,28.2125 C22.3958304,27.5874969 21.9416682,26.8666708 21.625,26.05 C21.3083317,25.2333293 21.15,24.3750045 21.15,23.475 C21.15,22.5583288 21.3083317,21.6916708 21.625,20.875 C21.9416682,20.0583292 22.3958304,19.3375031 22.9875,18.7125 C23.5791696,18.0874969 24.2999957,17.5916685 25.15,17.225 C26.0000042,16.8583315 26.958328,16.675 28.025,16.675 C29.091672,16.675 30.0458291,16.8583315 30.8875,17.225 C31.7291709,17.5916685 32.4458304,18.0874969 33.0375,18.7125 C33.6291696,19.3375031 34.0833317,20.0583292 34.4,20.875 C34.7166682,21.6916708 34.875,22.5583288 34.875,23.475 C34.875,24.3750045 34.7166682,25.2333293 34.4,26.05 C34.0833317,26.8666708 33.6333362,27.5874969 33.05,28.2125 C32.4666637,28.8375031 31.7500042,29.3333315 30.9,29.7 C30.0499957,30.0666685 29.091672,30.25 28.025,30.25 Z M24.6,23.475 C24.6,24.0583363 24.6874991,24.5874976 24.8625,25.0625 C25.0375009,25.5375024 25.2791651,25.9499983 25.5875,26.3 C25.8958349,26.6500018 26.2583312,26.9208324 26.675,27.1125 C27.0916687,27.3041676 27.5416642,27.4 28.025,27.4 C28.5083357,27.4 28.9583312,27.3041676 29.375,27.1125 C29.7916687,26.9208324 30.1541651,26.6500018 30.4625,26.3 C30.7708349,25.9499983 31.0124991,25.5333358 31.1875,25.05 C31.3625009,24.5666643 31.45,24.0333362 31.45,23.45 C31.45,22.8833305 31.3625009,22.3583358 31.1875,21.875 C31.0124991,21.3916642 30.7708349,20.9750018 30.4625,20.625 C30.1541651,20.2749983 29.7916687,20.0041676 29.375,19.8125 C28.9583312,19.6208324 28.5083357,19.525 28.025,19.525 C27.5416642,19.525 27.0916687,19.624999 26.675,19.825 C26.2583312,20.025001 25.8958349,20.2999983 25.5875,20.65 C25.2791651,21.0000018 25.0375009,21.4166643 24.8625,21.9 C24.6874991,22.3833358 24.6,22.9083305 24.6,23.475 Z M43.175,30.25 C42.108328,30.25 41.1500042,30.0666685 40.3,29.7 C39.4499957,29.3333315 38.7291696,28.8375031 38.1375,28.2125 C37.5458304,27.5874969 37.0916682,26.8666708 36.775,26.05 C36.4583317,25.2333293 36.3,24.3750045 36.3,23.475 C36.3,22.5583288 36.4583317,21.6916708 36.775,20.875 C37.0916682,20.0583292 37.5458304,19.3375031 38.1375,18.7125 C38.7291696,18.0874969 39.4499957,17.5916685 40.3,17.225 C41.1500042,16.8583315 42.108328,16.675 43.175,16.675 C44.241672,16.675 45.1958291,16.8583315 46.0375,17.225 C46.8791709,17.5916685 47.5958304,18.0874969 48.1875,18.7125 C48.7791696,19.3375031 49.2333317,20.0583292 49.55,20.875 C49.8666682,21.6916708 50.025,22.5583288 50.025,23.475 C50.025,24.3750045 49.8666682,25.2333293 49.55,26.05 C49.2333317,26.8666708 48.7833362,27.5874969 48.2,28.2125 C47.6166637,28.8375031 46.9000042,29.3333315 46.05,29.7 C45.1999957,30.0666685 44.241672,30.25 43.175,30.25 Z M39.75,23.475 C39.75,24.0583363 39.8374991,24.5874976 40.0125,25.0625 C40.1875009,25.5375024 40.4291651,25.9499983 40.7375,26.3 C41.0458349,26.6500018 41.4083312,26.9208324 41.825,27.1125 C42.2416687,27.3041676 42.6916642,27.4 43.175,27.4 C43.6583357,27.4 44.1083312,27.3041676 44.525,27.1125 C44.9416687,26.9208324 45.3041651,26.6500018 45.6125,26.3 C45.9208349,25.9499983 46.1624991,25.5333358 46.3375,25.05 C46.5125009,24.5666643 46.6,24.0333362 46.6,23.45 C46.6,22.8833305 46.5125009,22.3583358 46.3375,21.875 C46.1624991,21.3916642 45.9208349,20.9750018 45.6125,20.625 C45.3041651,20.2749983 44.9416687,20.0041676 44.525,19.8125 C44.1083312,19.6208324 43.6583357,19.525 43.175,19.525 C42.6916642,19.525 42.2416687,19.624999 41.825,19.825 C41.4083312,20.025001 41.0458349,20.2999983 40.7375,20.65 C40.4291651,21.0000018 40.1875009,21.4166643 40.0125,21.9 C39.8374991,22.3833358 39.75,22.9083305 39.75,23.475 Z M57.7,30.25 C56.7999955,30.25 55.9666705,30.0750017 55.2,29.725 C54.4333295,29.3749983 53.7750027,28.8916697 53.225,28.275 C52.6749972,27.6583302 52.2458349,26.9375041 51.9375,26.1125 C51.6291651,25.2874959 51.475,24.4000048 51.475,23.45 C51.475,22.4999952 51.6208319,21.6166707 51.9125,20.8 C52.2041681,19.9833293 52.6083307,19.2666697 53.125,18.65 C53.6416692,18.0333302 54.2583297,17.5500017 54.975,17.2 C55.6916702,16.8499982 56.4749957,16.675 57.325,16.675 C58.2916715,16.675 59.1624961,16.908331 59.9375,17.375 C60.7125039,17.841669 61.3166645,18.4499962 61.75,19.2 L61.75,11.75 L65.1,11.75 L65.1,26.15 C65.1,26.5000017 65.1583327,26.7499993 65.275,26.9 C65.3916672,27.0500007 65.5916652,27.1333332 65.875,27.15 L65.875,30 C65.2916637,30.1166672 64.8166685,30.175 64.45,30.175 C63.849997,30.175 63.3583352,30.0250015 62.975,29.725 C62.5916647,29.4249985 62.3750002,29.0333357 62.325,28.55 L62.25,27.725 C61.7666642,28.5583375 61.1125041,29.1874979 60.2875,29.6125 C59.4624959,30.0375021 58.6000045,30.25 57.7,30.25 Z M58.575,27.4 C58.8916682,27.4 59.216665,27.3458339 59.55,27.2375 C59.883335,27.1291661 60.1916652,26.975001 60.475,26.775 C60.7583347,26.574999 61.0124989,26.341668 61.2375,26.075 C61.4625011,25.808332 61.6333327,25.5166683 61.75,25.2 L61.75,22.075 C61.616666,21.7083315 61.4291679,21.3708349 61.1875,21.0625 C60.9458321,20.7541651 60.6708349,20.4875011 60.3625,20.2625 C60.0541651,20.0374989 59.7291684,19.858334 59.3875,19.725 C59.0458316,19.591666 58.708335,19.525 58.375,19.525 C57.8749975,19.525 57.4125021,19.6333323 56.9875,19.85 C56.5624979,20.0666678 56.2000015,20.3624981 55.9,20.7375 C55.5999985,21.1125019 55.3666675,21.5416642 55.2,22.025 C55.0333325,22.5083358 54.95,23.0083307 54.95,23.525 C54.95,24.0750028 55.0416657,24.583331 55.225,25.05 C55.4083342,25.516669 55.6583317,25.9249983 55.975,26.275 C56.2916682,26.6250018 56.6708311,26.899999 57.1125,27.1 C57.5541689,27.300001 58.041664,27.4 58.575,27.4 Z" id="Mood" fill="#F6A623"></path>
                <path d="M82.75,25.425 C82.75,26.1083367 82.6125014,26.7333305 82.3375,27.3 C82.0624986,27.8666695 81.6875024,28.349998 81.2125,28.75 C80.7374976,29.150002 80.1875031,29.4583322 79.5625,29.675 C78.9374969,29.8916677 78.2666703,30 77.55,30 L69.125,30 L69.125,12.25 L77.95,12.25 C78.5666698,12.25 79.1249975,12.383332 79.625,12.65 C80.1250025,12.916668 80.5499983,13.2624979 80.9,13.6875 C81.2500017,14.1125021 81.5208324,14.5958306 81.7125,15.1375 C81.9041676,15.6791694 82,16.2249972 82,16.775 C82,17.6583378 81.7791689,18.4749963 81.3375,19.225 C80.8958311,19.9750037 80.2666708,20.5333315 79.45,20.9 C80.4666718,21.2000015 81.2708304,21.7541626 81.8625,22.5625 C82.4541696,23.3708374 82.75,24.3249945 82.75,25.425 Z M80.475,25.025 C80.475,24.624998 80.4041674,24.2375019 80.2625,23.8625 C80.1208326,23.4874981 79.9291679,23.1583348 79.6875,22.875 C79.4458321,22.5916652 79.158335,22.3666675 78.825,22.2 C78.491665,22.0333325 78.125002,21.95 77.725,21.95 L71.375,21.95 L71.375,28.05 L77.55,28.05 C77.9666687,28.05 78.3499982,27.9666675 78.7,27.8 C79.0500018,27.6333325 79.358332,27.4125014 79.625,27.1375 C79.891668,26.8624986 80.0999992,26.5416685 80.25,26.175 C80.4000008,25.8083315 80.475,25.425002 80.475,25.025 Z M71.375,14.2 L71.375,20.125 L77.025,20.125 C77.425002,20.125 77.791665,20.0458341 78.125,19.8875 C78.458335,19.7291659 78.7458321,19.516668 78.9875,19.25 C79.2291679,18.983332 79.4208326,18.6708351 79.5625,18.3125 C79.7041674,17.9541649 79.775,17.575002 79.775,17.175 C79.775,16.7583312 79.708334,16.3666685 79.575,16 C79.441666,15.6333315 79.2625011,15.316668 79.0375,15.05 C78.8124989,14.783332 78.5375016,14.5750007 78.2125,14.425 C77.8874984,14.2749993 77.5416685,14.2 77.175,14.2 L71.375,14.2 Z M91.25,30.25 C90.2666617,30.25 89.3708374,30.0666685 88.5625,29.7 C87.7541626,29.3333315 87.0625029,28.8416698 86.4875,28.225 C85.9124971,27.6083303 85.4666682,26.8916707 85.15,26.075 C84.8333317,25.2583292 84.675,24.4000045 84.675,23.5 C84.675,22.5833287 84.8374984,21.7166707 85.1625,20.9 C85.4875016,20.0833292 85.9374971,19.3666697 86.5125,18.75 C87.0875029,18.1333303 87.7791626,17.6416685 88.5875,17.275 C89.3958374,16.9083315 90.2833285,16.725 91.25,16.725 C92.2166715,16.725 93.1083292,16.9083315 93.925,17.275 C94.7416707,17.6416685 95.4374971,18.1333303 96.0125,18.75 C96.5875029,19.3666697 97.0374984,20.0833292 97.3625,20.9 C97.6875016,21.7166707 97.85,22.5833287 97.85,23.5 C97.85,24.4000045 97.6916682,25.2583292 97.375,26.075 C97.0583318,26.8916707 96.6083363,27.6083303 96.025,28.225 C95.4416638,28.8416698 94.7458374,29.3333315 93.9375,29.7 C93.1291626,30.0666685 92.2333383,30.25 91.25,30.25 Z M86.925,23.525 C86.925,24.2083368 87.0374989,24.8416638 87.2625,25.425 C87.4875011,26.0083362 87.7958314,26.5166645 88.1875,26.95 C88.5791686,27.3833355 89.0374974,27.7249987 89.5625,27.975 C90.0875026,28.2250012 90.649997,28.35 91.25,28.35 C91.850003,28.35 92.4124974,28.2250012 92.9375,27.975 C93.4625026,27.7249987 93.924998,27.3791689 94.325,26.9375 C94.725002,26.4958311 95.0374989,25.9791696 95.2625,25.3875 C95.4875011,24.7958304 95.6,24.1583368 95.6,23.475 C95.6,22.80833 95.4875011,22.1791696 95.2625,21.5875 C95.0374989,20.9958304 94.725002,20.4791689 94.325,20.0375 C93.924998,19.5958311 93.4625026,19.2500013 92.9375,19 C92.4124974,18.7499987 91.850003,18.625 91.25,18.625 C90.649997,18.625 90.0875026,18.7541654 89.5625,19.0125 C89.0374974,19.2708346 88.5791686,19.6208311 88.1875,20.0625 C87.7958314,20.5041689 87.4875011,21.0208304 87.2625,21.6125 C87.0374989,22.2041696 86.925,22.8416632 86.925,23.525 Z M106.225,30.25 C105.241662,30.25 104.345837,30.0666685 103.5375,29.7 C102.729163,29.3333315 102.037503,28.8416698 101.4625,28.225 C100.887497,27.6083303 100.441668,26.8916707 100.125,26.075 C99.8083318,25.2583292 99.65,24.4000045 99.65,23.5 C99.65,22.5833287 99.8124984,21.7166707 100.1375,20.9 C100.462502,20.0833292 100.912497,19.3666697 101.4875,18.75 C102.062503,18.1333303 102.754163,17.6416685 103.5625,17.275 C104.370837,16.9083315 105.258329,16.725 106.225,16.725 C107.191672,16.725 108.083329,16.9083315 108.9,17.275 C109.716671,17.6416685 110.412497,18.1333303 110.9875,18.75 C111.562503,19.3666697 112.012498,20.0833292 112.3375,20.9 C112.662502,21.7166707 112.825,22.5833287 112.825,23.5 C112.825,24.4000045 112.666668,25.2583292 112.35,26.075 C112.033332,26.8916707 111.583336,27.6083303 111,28.225 C110.416664,28.8416698 109.720837,29.3333315 108.9125,29.7 C108.104163,30.0666685 107.208338,30.25 106.225,30.25 Z M101.9,23.525 C101.9,24.2083368 102.012499,24.8416638 102.2375,25.425 C102.462501,26.0083362 102.770831,26.5166645 103.1625,26.95 C103.554169,27.3833355 104.012497,27.7249987 104.5375,27.975 C105.062503,28.2250012 105.624997,28.35 106.225,28.35 C106.825003,28.35 107.387497,28.2250012 107.9125,27.975 C108.437503,27.7249987 108.899998,27.3791689 109.3,26.9375 C109.700002,26.4958311 110.012499,25.9791696 110.2375,25.3875 C110.462501,24.7958304 110.575,24.1583368 110.575,23.475 C110.575,22.80833 110.462501,22.1791696 110.2375,21.5875 C110.012499,20.9958304 109.700002,20.4791689 109.3,20.0375 C108.899998,19.5958311 108.437503,19.2500013 107.9125,19 C107.387497,18.7499987 106.825003,18.625 106.225,18.625 C105.624997,18.625 105.062503,18.7541654 104.5375,19.0125 C104.012497,19.2708346 103.554169,19.6208311 103.1625,20.0625 C102.770831,20.5041689 102.462501,21.0208304 102.2375,21.6125 C102.012499,22.2041696 101.9,22.8416632 101.9,23.525 Z M124.7,30 L120.2,23.625 L117.7,25.975 L117.7,30 L115.5,30 L115.5,11.75 L117.7,11.75 L117.7,23.75 L124.4,16.975 L126.825,16.975 L121.625,22.375 L127.075,30 L124.7,30 Z" id="Book" fill="#000000"></path>
            </g>
        </g>
    </g>
</svg>