<svg xmlns="http://www.w3.org/2000/svg" viewBox="0 0 361 361"><defs><style>.cls-1{fill:#c69;}.cls-2{fill:#fff;}</style></defs><title>Sass</title><g id="Sass"><circle class="cls-1" cx="180.5" cy="180.5" r="180.5"/><path class="cls-2" d="M277.61,100.36c-2.17-8.66-8.3-15.88-17.69-20.94-18.41-9.75-48-10.11-75.09-.36-16.25,5.78-46.93,18.77-70,40.07-23.1,21.66-26.71,40.79-24.91,48.37,4,20.94,26,35.74,43.32,48a136.51,136.51,0,0,1,12.27,9c-9.75,5.05-36.1,19.86-43.32,35.38-5.42,12.27-2.89,21.3-.72,25.27,2.17,4.69,5.78,8.3,9.39,9.39A40.56,40.56,0,0,0,122.38,296c15.52,0,30.68-8.3,40.07-22.38s10.11-32.85,5.78-44.4c6.14-1.44,12.63-1.44,19.85-.72,14.08,1.81,20.94,7.22,24.19,11.55,3.61,4.69,4.33,9.39,4,12.27-.72,5.42-5.05,8.66-7.22,10.11-1.81,1.08-3.25,2.17-2.89,4.33.72,2.89,3.61,2.53,4.69,2.53,3.25-.72,14.8-6.5,15.52-19.49.36-7.94-2.89-15.88-9-22.38-7.94-8.3-19.85-12.63-33.57-12.27-10.11,0-17,1.08-22.38,2.89l-.36-.36c-5.05-5.41-11.91-10.47-18-15.52-14.44-10.83-27.8-21.3-27.08-36.82,1.08-19.49,20.22-38.63,57.4-57,32.85-16.24,59.57-17,73.64-11.91,5.78,2.17,9.75,5.05,11.19,8.3,2.89,6.14,1.81,14.08-3.25,22.74-8.3,14.44-29.24,32.49-61.37,36.1-19.49,2.17-27.8-6.5-28.16-6.86-2.17-2.53-3.61-4-6.14-2.53-2.89,1.44-1.44,5.41-.72,6.86,1.44,4,7.58,10.83,18.05,14.44,8.3,2.89,29.6,4.69,56-5.41C262.81,157.76,283.75,125.27,277.61,100.36ZM153.06,254.14c-.36.72-.36,1.44-.72,2.17a5.13,5.13,0,0,0-.72,2.17,31.42,31.42,0,0,1-6.5,9.39c-8.3,9-19.49,11.55-23.1,9.39-1.08-.72-1.44-1.8-1.8-3.25-.72-4.33,1.8-13,9.39-20.58,9-9.39,21.66-16.25,24.55-17.69A39.29,39.29,0,0,1,153.06,254.14Z"/></g></svg>