<?xml version="1.0" encoding="utf-8"?>
<!-- Generator: Adobe Illustrator 19.2.1, SVG Export Plug-In . SVG Version: 6.00 Build 0)  -->
<svg version="1.1" id="Layer_1" xmlns="http://www.w3.org/2000/svg" xmlns:xlink="http://www.w3.org/1999/xlink" x="0px" y="0px"
	 width="64px" height="64px" viewBox="0 0 64 64" enable-background="new 0 0 64 64" xml:space="preserve">
<g>
	<path fill="none" stroke="#333333" stroke-width="2" stroke-miterlimit="10" d="M46,57H18c-1.105,0-2-0.895-2-2V37
		c0-1.105,0.895-2,2-2h28c1.105,0,2,0.895,2,2v18C48,56.105,47.105,57,46,57z"/>
	<line fill="none" stroke="#333333" stroke-width="2" stroke-miterlimit="10" x1="23" y1="62" x2="41" y2="62"/>
	<rect x="26" y="57" fill="none" stroke="#333333" stroke-width="2" stroke-miterlimit="10" width="12" height="5"/>
	<rect x="19" y="38" fill="none" stroke="#333333" stroke-width="2" stroke-miterlimit="10" width="26" height="16"/>
	<path fill="none" stroke="#333333" stroke-width="2" stroke-miterlimit="10" d="M14,22H4c-1.105,0-2-0.895-2-2V4
		c0-1.105,0.895-2,2-2h10c1.105,0,2,0.895,2,2v16C16,21.105,15.105,22,14,22z"/>
	<line fill="none" stroke="#333333" stroke-width="2" stroke-miterlimit="10" x1="2" y1="18" x2="16" y2="18"/>
	<circle fill="#333333" cx="9" cy="20" r="1"/>
	<path fill="none" stroke="#333333" stroke-width="2" stroke-miterlimit="10" d="M60,14V4c0-1.105-0.895-2-2-2H44
		c-1.105,0-2,0.895-2,2v10"/>
	<path fill="none" stroke="#333333" stroke-width="2" stroke-miterlimit="10" d="M53,14v1h-4v-1h-9v3c0,0.552,0.448,1,1,1h20
		c0.552,0,1-0.448,1-1v-3H53z"/>
	<path fill="none" stroke="#333333" stroke-width="2" stroke-miterlimit="10" d="M8.001,25C7.354,27.222,7,29.569,7,32
		c0,6.201,2.262,11.869,6,16.239"/>
	<path fill="none" stroke="#333333" stroke-width="2" stroke-miterlimit="10" d="M39,8.001C36.778,7.354,34.431,7,32,7
		c-4.762,0-9.212,1.332-13,3.643"/>
	<path fill="none" stroke="#333333" stroke-width="2" stroke-miterlimit="10" d="M51,48.239c3.738-4.369,6-10.038,6-16.239
		c0-3.948-0.918-7.68-2.548-11"/>
</g>
</svg>
