<?xml version="1.0" encoding="UTF-8"?>
<svg width="202px" height="133px" viewBox="0 0 202 133" version="1.1" xmlns="http://www.w3.org/2000/svg" xmlns:xlink="http://www.w3.org/1999/xlink">
    <!-- Generator: Sketch 42 (36781) - http://www.bohemiancoding.com/sketch -->
    <title>MoodBook Copy 2</title>
    <desc>Created with Sketch.</desc>
    <defs></defs>
    <g id="Page-1" stroke="none" stroke-width="1" fill="none" fill-rule="evenodd">
        <g id="MoodBook-Copy-2" fill-rule="nonzero" fill="#FFFFFF">
            <g id="logo-bw" transform="translate(15.000000, 52.000000)">
                <g id="Layer_1">
                    <g id="Group">
                        <path d="M19.358402,0 C11.2558403,0 4.6857516,6.49223 4.6857516,14.5 C4.6857516,22.50777 11.2558403,29 19.358402,29 C27.4615506,29 34.0316393,22.50777 34.0316393,14.5 C34.033987,6.49223 27.4641917,0 19.358402,0 Z M19.4200296,24.87939 C13.5838962,24.87939 8.85529872,20.20488 8.85529872,14.4391 C8.85529872,8.67419 13.5862439,3.99939 19.4200296,3.99939 C25.2544022,3.99939 29.9847605,8.67419 29.9847605,14.4391 C29.9876951,20.20488 25.256163,24.87939 19.4200296,24.87939 Z" id="Shape"></path>
                        <g transform="translate(0.000000, 9.280000)" id="Shape">
                            <path d="M13.6070799,4.37958 C13.8958492,3.79436 14.3052325,3.27207 14.7627441,2.7985 C15.2202556,2.32319 15.7437967,1.90559 16.3134118,1.54396 C17.4529354,0.82505 18.804634,0.38251 20.1965373,0.28507 C21.5910818,0.17748 23.0032341,0.42398 24.2953594,0.89668 C25.5910063,1.37228 26.7745496,2.06915 27.8398266,2.87506 L27.9061497,2.92436 L28.0085689,3.01948 L28.1092273,3.11228 L28.2433406,3.23002 C28.3354886,3.31035 28.4299842,3.39155 28.5282949,3.47014 C28.7252098,3.62703 28.927407,3.77986 29.1342996,3.9266 C29.551313,4.21834 29.9827062,4.48456 30.4275988,4.71395 C31.3182643,5.17273 32.2511887,5.50739 33.2284263,5.63557 C34.2033162,5.77216 35.2266278,5.70024 36.2672537,5.41082 C37.314336,5.12981 38.3534946,4.62521 39.4208259,4.0339 C38.8271467,5.1214 37.9860768,6.08884 36.9252017,6.83704 C35.8681417,7.58524 34.5639844,8.07099 33.2081772,8.18235 C31.8517832,8.29429 30.4774878,8.04779 29.2340776,7.55421 C28.6101716,7.30771 28.0123839,7.0064 27.4489316,6.65086 C27.1636838,6.47541 26.8890008,6.2872 26.6201871,6.08246 C26.4860737,5.98125 26.3513734,5.87598 26.2190208,5.76665 L26.0182909,5.59497 L25.9161652,5.50188 L25.7934969,5.38617 L25.9622392,5.53117 C25.0633567,4.8633 24.1324865,4.27605 23.1678679,3.82394 C22.2029558,3.3669 21.2040018,3.0508 20.1630823,2.90812 C19.1215759,2.76747 18.0363433,2.81909 16.9332093,3.06733 C15.8215649,3.31499 14.7063988,3.74709 13.6070799,4.37958"></path>
                            <path d="M0.122374799,11.82417 C0.437262472,10.89385 0.898882518,10.00935 1.44237923,9.18053 C1.98587594,8.34765 2.6238683,7.57074 3.34579157,6.86372 C4.78641001,5.44997 6.60765223,4.34652 8.62580929,3.78856 C10.6416186,3.22016 12.8021061,3.22625 14.8185024,3.654 C15.8315427,3.85845 16.8081933,4.18325 17.7552041,4.55735 C18.7001606,4.93754 19.6025647,5.39835 20.4738615,5.89657 C20.6921993,6.02098 20.9049612,6.15293 21.1174297,6.28517 L21.1975456,6.33476 L21.3037798,6.40291 L21.4220461,6.47918 L21.6829362,6.63868 C22.0397894,6.85125 22.4192393,7.05193 22.804265,7.23811 C23.5705015,7.62004 24.3690191,7.94049 25.1795687,8.19888 C26.800081,8.72581 28.4813406,8.97985 30.1543831,8.88502 C31.8271321,8.7899 33.4881426,8.2998 35.0490816,7.44198 C35.8311651,7.01626 36.5859565,6.5018 37.3119882,5.92296 C38.0383135,5.34238 38.7382269,4.69945 39.4264017,4.01737 C38.649894,5.81189 37.5003926,7.47765 35.982006,8.83137 C34.4697822,10.18277 32.5478815,11.15659 30.5012584,11.55737 C28.4531679,11.97439 26.3308309,11.82997 24.3431942,11.3303 C23.3477618,11.07597 22.3810889,10.72652 21.4422952,10.30921 C20.9748058,10.09229 20.5175877,9.85855 20.0577285,9.5961 L19.7108531,9.39136 L19.5303723,9.27797 L19.4722663,9.23853 L19.4622885,9.23244 C19.4822441,9.24491 19.4041825,9.19503 19.5045474,9.25912 L19.4863526,9.24897 L19.4162145,9.20576 L18.8468929,8.86675 C18.0862323,8.41406 17.3059096,8.01937 16.5176632,7.66789 C15.7311777,7.308 14.9223889,7.02699 14.1103719,6.79354 C13.2960073,6.56618 12.4713713,6.41509 11.6429203,6.34085 C10.8147628,6.27444 9.98014909,6.28517 9.15140465,6.40088 C7.4927419,6.61548 5.85579555,7.23811 4.32889847,8.18003 C2.80053407,9.12514 1.37811045,10.35648 0.122374799,11.82417"></path>
                        </g>
                    </g>
                    <g id="Group" transform="translate(42.552388, 6.090000)">
                        <path d="M6.74851531,6.7715 C9.78910354,7.5023 11.371172,8.5782 11.371172,10.95359 C11.371172,13.63348 9.2549977,15.21688 6.234952,15.21688 C4.03690105,15.21688 1.96151836,14.46578 0.236239121,12.94328 L1.75638651,11.15659 C3.13302963,12.33428 4.50967276,13.00389 6.29687306,13.00389 C7.85839898,13.00389 8.84473399,12.29368 8.84473399,11.19719 C8.84473399,10.16189 8.26924962,9.6135 5.59842697,9.0045 C2.5372962,8.27341 0.811430024,7.38021 0.811430024,4.74092 C0.811430024,2.26403 2.86597671,0.59943 5.72138869,0.59943 C7.81702045,0.59943 9.48125902,1.22873 10.9397788,2.38612 L9.58367822,4.27431 C8.28949869,3.31992 6.99531916,2.81242 5.68030363,2.81242 C4.20094784,2.81242 3.33816149,3.56352 3.33816149,4.51762 C3.33816149,5.6347 3.99552252,6.1219 6.74851531,6.7715 Z" id="Shape"></path>
                        <path d="M20.3374004,4.29461 L22.8233402,4.29461 L22.8233402,15.01417 L20.3374004,15.01417 L20.3374004,13.34928 C19.6386608,14.36457 18.6320767,15.23747 16.9472956,15.23747 C14.5027343,15.23747 13.0850061,13.61318 13.0850061,11.11628 L13.0850061,4.29461 L15.570946,4.29461 L15.570946,10.38519 C15.570946,12.04979 16.4131898,13.00389 17.8925456,13.00389 C19.3305228,13.00389 20.3374004,12.00919 20.3374004,10.34459 L20.3374004,4.29461 Z" id="Shape"></path>
                        <path d="M31.2578105,15.23747 C29.4703168,15.23747 28.3404775,14.34427 27.5801103,13.34928 L27.5801103,18.26246 L25.0941705,18.26246 L25.0941705,4.29461 L27.5801103,4.29461 L27.5801103,6.0813 C28.3812691,4.96451 29.5114018,4.07131 31.2578105,4.07131 C33.8256271,4.07131 36.3118604,6.0813 36.3118604,9.65439 C36.3118604,13.22748 33.8461696,15.23747 31.2578105,15.23747 Z M30.6823262,6.2031 C28.9978385,6.2031 27.5184827,7.5632 27.5184827,9.65439 C27.5184827,11.74558 28.9978385,13.10568 30.6823262,13.10568 C32.3876498,13.10568 33.784542,11.78589 33.784542,9.65439 C33.7848355,7.5429 32.3671073,6.2031 30.6823262,6.2031 Z" id="Shape"></path>
                        <path d="M44.2075294,15.23747 C42.4203291,15.23747 41.2904898,14.34427 40.5301226,13.34928 L40.5301226,18.26246 L38.0441828,18.26246 L38.0441828,4.29461 L40.5301226,4.29461 L40.5301226,6.0813 C41.3312814,4.96451 42.4614141,4.07131 44.2075294,4.07131 C46.7756394,4.07131 49.2615792,6.0813 49.2615792,9.65439 C49.2615792,13.22748 46.7964754,15.23747 44.2075294,15.23747 Z M43.6323385,6.2031 C41.9478508,6.2031 40.468495,7.5632 40.468495,9.65439 C40.468495,11.74558 41.9478508,13.10568 43.6323385,13.10568 C45.3376621,13.10568 46.7345543,11.78589 46.7345543,9.65439 C46.7345543,7.5429 45.3168261,6.2031 43.6323385,6.2031 Z" id="Shape"></path>
                        <polygon id="Shape" points="51.0476057 15.01417 51.0476057 0.19343 53.5335456 0.19343 53.5335456 15.01417"></polygon>
                        <path d="M62.0014708,15.31867 C61.138391,17.51136 60.1731854,18.32307 58.4264833,18.32307 C57.3788141,18.32307 56.6187404,18.07947 55.8586667,17.67347 L56.7006171,15.84618 C57.1528463,16.09007 57.645867,16.25218 58.1594304,16.25218 C58.8581699,16.25218 59.2892696,15.94768 59.7001203,15.01388 L55.1807632,4.29432 L57.8310433,4.29432 L60.9124231,12.25279 L63.727337,4.29432 L66.315696,4.29432 L62.0014708,15.31867 Z" id="Shape"></path>
                        <path d="M75.0131107,15.25777 C70.5961728,15.25777 67.5142061,11.94829 67.5142061,7.9286 C67.5142061,3.90891 70.6369644,0.55883 75.0541958,0.55883 C79.4711337,0.55883 82.5531005,3.86802 82.5531005,7.88771 C82.5533939,11.90827 79.4300486,15.25777 75.0131107,15.25777 Z M75.0131107,2.85302 C72.1576987,2.85302 70.1647797,5.10661 70.1647797,7.888 C70.1647797,10.66939 72.1984903,12.96358 75.0544893,12.96358 C77.9099012,12.96358 79.9028203,10.70999 79.9028203,7.9286 C79.9028203,5.1475 77.8688162,2.85302 75.0131107,2.85302 Z" id="Shape"></path>
                        <path d="M89.8010928,15.25777 C86.5759152,15.25777 84.192688,12.76058 84.192688,9.69499 C84.192688,6.62911 86.5759152,4.07102 89.8219288,4.07102 C91.876182,4.07102 93.1504059,4.82212 94.1566965,5.91861 L92.6160066,7.56291 C91.8559329,6.77121 91.0547742,6.22311 89.8010928,6.22311 C87.9933499,6.22311 86.6783344,7.76591 86.6783344,9.6541 C86.6783344,11.5826 88.0138925,13.12569 89.924348,13.12569 C91.0952723,13.12569 91.9586456,12.57759 92.7392618,11.78589 L94.2385732,13.24749 C93.170655,14.42518 91.917267,15.25777 89.8010928,15.25777 Z" id="Shape"></path>
                        <path d="M100.620844,13.24778 C101.833147,13.24778 102.69564,12.80147 103.559014,11.96888 L105.017827,13.24778 C103.9907,14.46607 102.572679,15.25806 100.580346,15.25806 C97.4364585,15.25806 95.0124397,13.00447 95.0124397,9.67498 C95.0124397,6.5888 97.2104907,4.0716 100.313293,4.0716 C103.764439,4.0716 105.510848,6.75149 105.510848,9.85768 C105.510848,10.08127 105.490305,10.28398 105.469469,10.52758 L97.4983796,10.52758 C97.785975,12.27338 99.0182335,13.24778 100.620844,13.24778 Z M103.04545,8.90329 C102.880817,7.3196 101.93586,6.0813 100.292457,6.0813 C98.7717231,6.0813 97.7035114,7.2384 97.4775436,8.90329 L103.04545,8.90329 Z" id="Shape"></path>
                        <path d="M114.045096,15.01417 L114.045096,13.69438 C113.305565,14.56728 112.176019,15.23718 110.532029,15.23718 C108.477776,15.23718 106.669446,14.08008 106.669446,11.92799 L106.669446,11.88739 C106.669446,9.5729 108.53911,8.4361 111.066135,8.4361 C112.380857,8.4361 113.223688,8.6188 114.065638,8.8827 L114.065638,8.6188 C114.065638,7.1369 113.120388,6.32461 111.395109,6.32461 C110.182806,6.32461 109.278935,6.58851 108.2926,6.9948 L107.614403,5.02541 C108.806163,4.49761 109.977088,4.13221 111.744039,4.13221 C114.949261,4.13221 116.510493,5.7971 116.510493,8.65969 L116.510493,15.01446 L114.045096,15.01446 L114.045096,15.01417 Z M114.107017,10.46668 C113.470198,10.22279 112.586283,10.04009 111.621077,10.04009 C110.059845,10.04009 109.135137,10.66939 109.135137,11.76588 L109.135137,11.80648 C109.135137,12.82148 110.059551,13.38988 111.230769,13.38988 C112.874172,13.38988 114.107017,12.47638 114.107017,11.13629 L114.107017,10.46668 Z" id="Shape"></path>
                        <path d="M121.16279,15.01417 L118.67685,15.01417 L118.67685,4.29461 L121.16279,4.29461 L121.16279,5.9595 C121.861529,4.9445 122.868113,4.07131 124.552601,4.07131 C126.997749,4.07131 128.415184,5.6956 128.415184,8.1925 L128.415184,15.01417 L125.929244,15.01417 L125.929244,8.92359 C125.929244,7.25899 125.086707,6.3046 123.607351,6.3046 C122.169374,6.3046 121.16279,7.2993 121.16279,8.9639 L121.16279,15.01417 Z" id="Shape"></path>
                    </g>
                </g>
            </g>
        </g>
    </g>
</svg>