<?xml version="1.0" encoding="utf-8"?>
<!-- Generator: Adobe Illustrator 19.2.1, SVG Export Plug-In . SVG Version: 6.00 Build 0)  -->
<svg version="1.1" id="Layer_1" xmlns="http://www.w3.org/2000/svg" xmlns:xlink="http://www.w3.org/1999/xlink" x="0px" y="0px"
	 width="64px" height="64px" viewBox="0 0 64 64" enable-background="new 0 0 64 64" xml:space="preserve">
<g>
	<path fill="none" stroke="#333333" stroke-width="2" stroke-miterlimit="10" d="M5,7c-1.657,0-3,1.343-3,3v36c0,1.657,1.343,3,3,3
		h54c1.657,0,3-1.343,3-3V10c0-1.657-1.343-3-3-3H5z"/>
	<line fill="none" stroke="#333333" stroke-width="2" stroke-miterlimit="10" x1="16" y1="56" x2="48" y2="56"/>
	<rect x="24" y="49" fill="none" stroke="#333333" stroke-width="2" stroke-miterlimit="10" width="16" height="7"/>
	<rect x="6" y="11" fill="none" stroke="#333333" stroke-width="2" stroke-miterlimit="10" width="52" height="34"/>
	<circle fill="#333333" cx="10" cy="15" r="1"/>
	<circle fill="#333333" cx="13" cy="15" r="1"/>
	<circle fill="#333333" cx="16" cy="15" r="1"/>
	<rect x="10.182" y="19" fill="none" stroke="#333333" stroke-width="2" stroke-miterlimit="10" width="11.383" height="10"/>
	<rect x="26.308" y="19" fill="none" stroke="#333333" stroke-width="2" stroke-miterlimit="10" width="11.383" height="10"/>
	<rect x="42.435" y="19" fill="none" stroke="#333333" stroke-width="2" stroke-miterlimit="10" width="11.383" height="10"/>
	<line fill="none" stroke="#333333" stroke-width="2" stroke-miterlimit="10" x1="9" y1="33" x2="39" y2="33"/>
	<line fill="none" stroke="#333333" stroke-width="2" stroke-miterlimit="10" x1="9" y1="37" x2="39" y2="37"/>
	<line fill="none" stroke="#333333" stroke-width="2" stroke-miterlimit="10" x1="9" y1="41" x2="39" y2="41"/>
	<line fill="none" stroke="#333333" stroke-width="2" stroke-miterlimit="10" x1="42" y1="33" x2="55" y2="33"/>
	<line fill="none" stroke="#333333" stroke-width="2" stroke-miterlimit="10" x1="42" y1="37" x2="55" y2="37"/>
	<line fill="none" stroke="#333333" stroke-width="2" stroke-miterlimit="10" x1="42" y1="41" x2="55" y2="41"/>
</g>
</svg>
