<svg xmlns="http://www.w3.org/2000/svg" viewBox="0 0 361 361"><defs><style>.cls-1{fill:#dd0031;}.cls-2{fill:#c3002f;}.cls-3{fill:#fff;}</style></defs><title>Angluer</title><g id="Angular"><polygon class="cls-1" points="180.5 2.26 180.5 2.26 180.5 2.26 14.12 61.59 39.5 281.59 180.5 359.69 180.5 359.69 180.5 359.69 321.5 281.59 346.88 61.59 180.5 2.26"/><polygon class="cls-2" points="180.5 2.26 180.5 41.94 180.5 41.76 180.5 222.79 180.5 222.79 180.5 359.69 180.5 359.69 321.5 281.59 346.88 61.59 180.5 2.26"/><path class="cls-3" d="M180.5,41.76,76.49,275h38.78l20.91-52.18h88.28L245.37,275h38.78L180.5,41.76Zm30.38,148.87H150.12l30.38-73.09Z"/></g></svg>