<?xml version="1.0" encoding="UTF-8"?>
<svg width="202px" height="133px" viewBox="0 0 202 133" version="1.1" xmlns="http://www.w3.org/2000/svg" xmlns:xlink="http://www.w3.org/1999/xlink">
    <!-- Generator: Sketch 42 (36781) - http://www.bohemiancoding.com/sketch -->
    <title>Estify</title>
    <desc>Created with Sketch.</desc>
    <defs></defs>
    <g id="Page-1" stroke="none" stroke-width="1" fill="none" fill-rule="evenodd">
        <g id="Estify">
            <g id="Group" transform="translate(6.000000, 36.000000)">
                <path d="M58.5585938,18.6074219 L58.5585938,25.4277344 L70.8632812,25.4277344 L70.8632812,29.2421875 L58.5585938,29.2421875 L58.5585938,36.1855469 L72.7441406,36.1855469 L72.7441406,40 L54.3046875,40 L54.3046875,14.7929688 L72.3046875,14.7929688 L72.3046875,18.6074219 L58.5585938,18.6074219 Z M91.9279219,15.3203125 C93.4630858,15.7890648 94.8283065,16.421871 96.023625,17.21875 L94.2658125,20.9628906 C92.9650248,20.1660116 91.6671862,19.5742207 90.3722578,19.1875 C89.0773295,18.8007793 87.9142552,18.6074219 86.883,18.6074219 C85.6056499,18.6074219 84.6037068,18.8359352 83.8771406,19.2929688 C83.1505745,19.7500023 82.7872969,20.4003864 82.7872969,21.2441406 C82.7872969,21.9824256 83.0245992,22.6035131 83.499211,23.1074219 C83.9738227,23.6113306 84.571473,24.0156235 85.2921797,24.3203125 C86.0128864,24.6250015 87.0236185,24.9648419 88.3244063,25.3398438 C90.0236335,25.8437525 91.4093618,26.3417944 92.4816328,26.8339844 C93.5539038,27.3261743 94.4679572,28.0585889 95.2238203,29.03125 C95.9796835,30.0039111 96.3576094,31.2695235 96.3576094,32.828125 C96.3576094,34.2929761 95.9533166,35.579096 95.1447188,36.6865234 C94.336121,37.7939508 93.2140619,38.6464814 91.7785078,39.2441406 C90.3429538,39.8417999 88.6994155,40.140625 86.8478438,40.140625 C84.9259592,40.140625 83.0656262,39.780277 81.2667891,39.0595703 C79.467952,38.3388636 77.8947255,37.3691467 76.5470625,36.1503906 L78.3927656,32.4765625 C79.6701158,33.6484434 81.0675627,34.5537077 82.5851485,35.1923828 C84.1027342,35.8310579 85.5470557,36.1503906 86.9181563,36.1503906 C88.406445,36.1503906 89.5636599,35.8808621 90.389836,35.3417969 C91.216012,34.8027317 91.6290938,34.0527392 91.6290938,33.0917969 C91.6290938,32.3183555 91.3830025,31.67969 90.8908125,31.1757812 C90.3986226,30.6718725 89.786324,30.2763686 89.0538985,29.9892578 C88.3214729,29.702147 87.3107408,29.3652363 86.0216719,28.9785156 C84.299007,28.4746069 82.9132787,27.9824243 81.8644453,27.5019531 C80.815612,27.021482 79.9132772,26.3154343 79.1574141,25.3837891 C78.4015509,24.4521438 78.023625,23.207039 78.023625,21.6484375 C78.023625,20.2304617 78.4074102,18.9912162 79.1749922,17.9306641 C79.9425742,16.8701119 81.0177587,16.0527372 82.4005781,15.4785156 C83.7833976,14.904294 85.3829909,14.6171875 87.1994063,14.6171875 C88.8166019,14.6171875 90.392758,14.8515602 91.9279219,15.3203125 Z M111.533578,18.6074219 L111.533578,40 L107.279672,40 L107.279672,18.6074219 L99.3167813,18.6074219 L99.3167813,14.7929688 L119.514047,14.7929688 L119.514047,18.6074219 L111.533578,18.6074219 Z M124.143141,40 L124.143141,14.7929688 L128.397047,14.7929688 L128.397047,40 L124.143141,40 Z M140.268328,18.6074219 L140.268328,25.8847656 L151.711688,25.8847656 L151.711688,29.6640625 L140.268328,29.6640625 L140.268328,40 L136.014422,40 L136.014422,14.7929688 L152.942156,14.7929688 L152.907,18.6074219 L140.268328,18.6074219 Z M168.047813,40 L163.846641,40 L163.846641,31.7558594 L154.442344,14.7929688 L158.731406,14.7929688 L165.920859,27.0800781 L172.987266,14.7929688 L177.311484,14.7929688 L168.047813,31.6152344 L168.047813,40 Z" id="Estify" fill="#000000"></path>
                <g id="Layer_1">
                    <polygon id="Shape" fill="#00AC00" points="15.69 47.69 20.95 39.48 24.59 48.86 15.69 47.69"></polygon>
                    <polygon id="Shape" fill="#00AC00" points="13.02 44.33 11.38 38.77 17.15 35.03 13.02 44.33"></polygon>
                    <polygon id="Shape" fill="#24D000" points="17.15 35.03 20.95 39.48 13.02 44.33 17.15 35.03"></polygon>
                    <polygon id="Shape" fill="#64E000" points="17.51 28.69 17.15 35.03 20.95 39.48 17.51 28.69"></polygon>
                    <polygon id="Shape" fill="#00AC00" points="11.38 38.77 17.15 35.03 17.51 28.69 11.38 38.77"></polygon>
                    <polygon id="Shape" fill="#00C800" points="12.12 30.01 17.51 28.69 11.38 38.77 12.12 30.01"></polygon>
                    <polygon id="Shape" fill="#24D000" points="20.95 39.48 33.84 37.81 24.59 48.86 20.95 39.48"></polygon>
                    <polygon id="Shape" fill="#24D000" points="20.95 39.48 26.65 29.26 33.84 37.81 20.95 39.48"></polygon>
                    <polygon id="Shape" fill="#00C800" points="20.95 39.48 26.65 29.26 17.51 28.74 20.95 39.48"></polygon>
                    <polygon id="Shape" fill="#24D000" points="26.65 29.26 32.1 29.95 33.84 37.81 26.65 29.26"></polygon>
                    <polygon id="Shape" fill="#00AC00" points="33.84 37.81 34.91 48.86 24.59 48.86 33.84 37.81"></polygon>
                    <polygon id="Shape" fill="#24D000" points="33.84 37.81 34.91 48.86 41.11 44.82 33.84 37.81"></polygon>
                    <polygon id="Shape" fill="#24D000" points="34.91 48.86 46.44 48.49 41.11 44.82 34.91 48.86"></polygon>
                    <polygon id="Shape" fill="#24D000" points="46.44 48.49 49 46.49 46.15 42.11 46.44 48.49"></polygon>
                    <polygon id="Shape" fill="#00AC00" points="46.15 42.11 46.44 48.49 41.11 44.82 46.15 42.11"></polygon>
                    <polygon id="Shape" fill="#64E000" points="46.15 42.11 48.92 41.93 49 46.49 46.15 42.11"></polygon>
                    <polygon id="Shape" fill="#00C800" points="41.11 44.82 46.15 42.11 41.63 39.51 41.11 44.82"></polygon>
                    <polygon id="Shape" fill="#64E000" points="41.63 39.51 33.84 37.81 41.11 44.82 41.63 39.51"></polygon>
                    <polygon id="Shape" fill="#00AC00" points="41.63 39.51 44.96 37.57 46.15 42.11 41.63 39.51"></polygon>
                    <polygon id="Shape" fill="#64E000" points="44.96 37.57 48.92 41.93 46.15 42.11 44.96 37.57"></polygon>
                    <polygon id="Shape" fill="#00AC00" points="26.65 29.26 30.39 19.26 32.1 29.95 26.65 29.26"></polygon>
                    <polygon id="Shape" fill="#24D000" points="32.1 29.95 36.04 22.57 30.39 19.26 32.1 29.95"></polygon>
                    <polygon id="Shape" fill="#64E000" points="36.04 22.57 40.44 23.51 38.68 27.87 36.04 22.57"></polygon>
                    <polygon id="Shape" fill="#00C800" points="38.68 27.87 32.1 29.95 36.04 22.57 38.68 27.87"></polygon>
                    <polygon id="Shape" fill="#00C800" points="36.04 22.57 35.53 18.81 30.39 19.26 36.04 22.57"></polygon>
                    <polygon id="Shape" fill="#24D000" points="35.53 18.81 40.44 23.51 36.04 22.57 35.53 18.81"></polygon>
                    <polygon id="Shape" fill="#00C800" points="17.51 28.74 26.65 29.26 30.39 19.26 17.51 28.74"></polygon>
                    <polygon id="Shape" fill="#00AC00" points="15.87 19.53 17.51 28.69 12.12 30.01 15.87 19.53"></polygon>
                    <polygon id="Shape" fill="#00AC00" points="15.87 19.53 10.06 16.26 15.14 21.58 15.87 19.53"></polygon>
                    <polygon id="Shape" fill="#00C800" points="15.87 19.53 23.62 18.36 17.52 28.72 17.51 28.69 15.87 19.53"></polygon>
                    <polygon id="Shape" fill="#64E000" points="23.62 18.36 30.39 19.26 17.51 28.74 23.62 18.36"></polygon>
                    <polygon id="Shape" fill="#00C800" points="15.87 19.53 19.23 7.66 23.62 18.36 15.87 19.53"></polygon>
                    <polygon id="Shape" fill="#64E000" points="15.87 19.53 12.95 12.33 19.23 7.66 15.87 19.53"></polygon>
                    <polygon id="Shape" fill="#00AC00" points="12.95 12.33 13.59 6.98 19.23 7.66 12.95 12.33"></polygon>
                    <polygon id="Shape" fill="#00C800" points="10.06 16.26 15.87 19.53 12.95 12.33 10.06 16.26"></polygon>
                    <polygon id="Shape" fill="#00AC00" points="10.06 16.26 10.27 12.63 12.95 12.33 10.06 16.26"></polygon>
                    <polygon id="Shape" fill="#24D000" points="10.27 12.63 13.59 6.98 12.95 12.33 10.27 12.63"></polygon>
                    <polygon id="Shape" fill="#00AC00" points="23.62 18.36 27.84 12.23 29.67 19.17 23.62 18.36"></polygon>
                    <polygon id="Shape" fill="#24D000" points="19.23 7.66 23.62 18.36 27.84 12.23 19.23 7.66"></polygon>
                    <polygon id="Shape" fill="#00C800" points="13.59 6.98 17.63 3.45 19.23 7.66 13.59 6.98"></polygon>
                    <polygon id="Shape" fill="#24D000" points="17.63 3.45 20.7 2.51 19.23 7.66 17.63 3.45"></polygon>
                    <polygon id="Shape" fill="#00AC00" points="20.7 2.51 27.19 7.51 23.08 9.7 20.7 2.51"></polygon>
                    <polygon id="Shape" fill="#00C800" points="20.7 2.51 23.08 9.7 19.23 7.66 20.7 2.51"></polygon>
                    <polygon id="Shape" fill="#00C800" points="23.08 9.7 27.19 7.51 27.84 12.23 23.08 9.7"></polygon>
                    <polygon id="Shape" fill="#64E000" points="27.19 7.51 28.87 4.05 20.7 2.51 27.19 7.51"></polygon>
                    <polygon id="Shape" fill="#00C800" points="28.87 4.05 30.74 8.15 27.19 7.51 28.87 4.05"></polygon>
                    <polygon id="Shape" fill="#00AC00" points="30.74 8.15 27.84 12.23 27.19 7.51 30.74 8.15"></polygon>
                    <polygon id="Shape" fill="#24D000" points="33.43 4.37 30.74 8.15 28.87 4.05 33.43 4.37"></polygon>
                    <polygon id="Shape" fill="#24D000" points="29.24 17.54 33.24 11.83 27.84 12.23 29.24 17.54"></polygon>
                    <polygon id="Shape" fill="#00C800" points="33.43 4.37 36.59 10.94 33.24 11.83 33.43 4.37"></polygon>
                    <polygon id="Shape" fill="#64E000" points="27.84 12.23 33.24 11.83 33.43 4.37 27.84 12.23"></polygon>
                    <polygon id="Shape" fill="#24D000" points="36.59 10.94 38.55 7.04 33.43 4.37 36.59 10.94"></polygon>
                    <polygon id="Shape" fill="#64E000" points="38.55 7.04 44.78 8.96 36.59 10.94 38.55 7.04"></polygon>
                    <polygon id="Shape" fill="#00C800" points="38.55 7.04 44.62 4.78 33.43 4.37 38.55 7.04"></polygon>
                    <polygon id="Shape" fill="#00C800" points="44.62 4.78 48.61 6.51 44.78 8.96 44.62 4.78"></polygon>
                    <polygon id="Shape" fill="#24D000" points="48.61 6.51 49.83 3.45 44.62 4.78 48.61 6.51"></polygon>
                    <polygon id="Shape" fill="#64E000" points="49.83 3.45 50.06 7.32 48.61 6.51 49.83 3.45"></polygon>
                    <polygon id="Shape" fill="#00AC00" points="50.06 7.32 44.78 8.96 48.61 6.51 50.06 7.32"></polygon>
                    <polygon id="Shape" fill="#00AC00" points="13.44 44.86 14.18 45.79 10.53 46.31 13.44 44.86"></polygon>
                    <polygon id="Shape" fill="#00C800" points="14.18 45.79 9.37 48.34 10.53 46.31 14.18 45.79"></polygon>
                    <polygon id="Shape" fill="#00C800" points="8.24 47.79 6.53 47.95 9.37 48.34 8.24 47.79"></polygon>
                    <polygon id="Shape" fill="#64E000" points="8.38 47.18 8.24 47.79 10.02 46.63 8.38 47.18"></polygon>
                    <polygon id="Shape" fill="#00AC00" points="6.53 47.95 6.15 46.15 8.24 47.79 6.53 47.95"></polygon>
                    <polygon id="Shape" fill="#00AC00" points="7.31 47.06 8.38 47.18 8.24 47.79 7.31 47.06"></polygon>
                    <polygon id="Shape" fill="#00C800" points="6.15 46.15 4.7 45.6 6.53 47.95 6.15 46.15"></polygon>
                    <polygon id="Shape" fill="#24D000" points="4.7 45.6 5.28 43.82 6.15 46.15 4.7 45.6"></polygon>
                    <polygon id="Shape" fill="#00C800" points="5.28 43.82 3.93 41.41 4.7 45.6 5.28 43.82"></polygon>
                    <polygon id="Shape" fill="#00AC00" points="3.93 41.41 4.22 40.68 5.28 43.82 3.93 41.41"></polygon>
                    <polygon id="Shape" fill="#24D000" points="4.22 40.68 0.77 38.18 3.93 41.41 4.22 40.68"></polygon>
                    <polygon id="Shape" fill="#64E000" points="0.77 38.18 2.81 38.63 4.22 40.68 0.77 38.18"></polygon>
                    <polygon id="Shape" fill="#00AC00" points="0.77 38.18 1.98 40.85 3.93 41.41 0.77 38.18"></polygon>
                    <polygon id="Shape" fill="#24D000" points="35.53 18.81 40.02 19.77 40.44 23.51 35.53 18.81"></polygon>
                    <polygon id="Shape" fill="#00AC00" points="44.62 4.78 44.78 8.96 38.55 7.04 44.62 4.78"></polygon>
                    <polygon id="Shape" fill="#64E000" points="10.06 16.26 13.03 22.62 15.14 21.58 10.06 16.26"></polygon>
                    <polygon id="Shape" fill="#00C800" points="13.02 44.33 15.69 47.69 20.95 39.48 13.02 44.33"></polygon>
                    <polygon id="Shape" fill="#24D000" points="8.24 47.79 10.53 46.31 9.37 48.34 8.24 47.79"></polygon>
                    <polygon id="Shape" fill="#00AC00" points="33.43 4.37 35.35 0.99 35.23 4.43 33.43 4.37"></polygon>
                    <polygon id="Shape" fill="#00C800" points="40.02 19.77 44.13 24.26 40.44 23.51 40.02 19.77"></polygon>
                    <polygon id="Shape" fill="#00AC00" points="44.13 24.26 40.41 29.88 40.44 23.51 44.13 24.26"></polygon>
                    <polygon id="Shape" fill="#24D000" points="38.68 27.87 40.41 29.88 40.44 23.51 38.68 27.87"></polygon>
                </g>
            </g>
        </g>
    </g>
</svg>