<svg xmlns="http://www.w3.org/2000/svg" viewBox="0 0 361 361"><defs><style>.cls-1{fill:none;}.cls-2{fill:#21759b;}</style></defs><title>Wordpress</title><g id="WordPress"><rect id="canvas_background" data-name="canvas background" class="cls-1" x="-31.33" y="-31.39" width="240.37" height="166.03"/><g id="svg_1" data-name="svg 1"><path id="svg_2" data-name="svg 2" class="cls-2" d="M169.59,1.1A179.21,179.21,0,0,0,14.39,246a224.29,224.29,0,0,0,12.8,25.85A180.77,180.77,0,0,0,89,333.65a227.65,227.65,0,0,0,25.85,12.8,180.31,180.31,0,0,0,132.16,0,227.65,227.65,0,0,0,25.85-12.8,180.77,180.77,0,0,0,61.83-61.83A227.65,227.65,0,0,0,347.51,246a180.33,180.33,0,0,0,3.18-123.49,188.11,188.11,0,0,0-22.51-44.65A179.14,179.14,0,0,0,169.59,1.1ZM193.13,63a117.32,117.32,0,0,1,88.22,52.53,121.5,121.5,0,0,1,16.89,40.8,132,132,0,0,1,1.45,37.38,116.57,116.57,0,0,1-23.25,57.12,135.56,135.56,0,0,1-17.64,18.54,127.26,127.26,0,0,1-38.41,21.56c-22.92,7.76-51,7.76-73.93,0a127.26,127.26,0,0,1-38.41-21.56,117.75,117.75,0,0,1-40.89-75.66,145.3,145.3,0,0,1,0-27.79A117.3,117.3,0,0,1,193.13,63Z"/><path id="svg_3" data-name="svg 3" class="cls-2" d="M176.82,68.42a106.21,106.21,0,0,0-36.22,8.22,112.65,112.65,0,0,0-67.65,87.14,145.82,145.82,0,0,0-.66,25.61,104.84,104.84,0,0,0,11.19,39.44,109.87,109.87,0,0,0,49.35,50.22,103.67,103.67,0,0,0,34.49,11.15,131.37,131.37,0,0,0,32.21,0A103.67,103.67,0,0,0,234,279.05a109.87,109.87,0,0,0,49.35-50.22,104.84,104.84,0,0,0,11.19-39.44,145.82,145.82,0,0,0-.66-25.61,112.62,112.62,0,0,0-67.69-87.14C211.55,70.36,194.33,67.47,176.82,68.42ZM192.1,79.57a106.38,106.38,0,0,1,47.08,16.69c4.46,3,9.83,7.14,11.32,8.84.78.87.78.87-.5.87-9.71,0-17.92,9.33-16.85,19.08.54,4.46,3.18,11.11,6.61,16.44,7.64,11.89,11,20.73,11.65,30.27.29,4.83-.33,9.13-2.52,17.59-1.65,6.53-15.16,50.84-15.49,50.84s-36.34-106.84-36.34-107.42a17.4,17.4,0,0,1,4.25-.54c7.72-.5,8.63-.66,9.87-1.94a3.83,3.83,0,0,0,.08-5.49c-1.36-1.32-1.53-1.32-17.72-.37-11.44.66-12.56.66-25.19-.08-7.27-.41-13.67-.74-14.21-.7-3.43.25-4.79,4.21-2.35,6.81.78.83,1.45,1,4.63,1.28,2,.17,4.79.45,6.15.58l2.48.29L172.81,154l7.81,21.39-10.86,32.83c-6,18-10.94,32.83-11.11,32.83s-36.76-107.38-36.76-108.16c0-.25.62-.45,1.36-.45,3.22,0,11.15-.87,11.89-1.28,2.68-1.45,2.07-6.53-.91-7.31a59.73,59.73,0,0,0-8.55.21c-9.87.66-26.1,1.16-26.1.78s3.22-5.12,5.74-8.3c11.36-14.37,27.67-25.56,46.67-32a99.32,99.32,0,0,1,23.58-5.12A124.16,124.16,0,0,1,192.1,79.57ZM273.63,136a96.58,96.58,0,0,1,8.92,27.79,97.59,97.59,0,0,1-9.33,61.12c-7.64,15-20.48,29.32-35.31,39.28a27.68,27.68,0,0,1-3.88,2.35c0-.08,7.48-22.14,16.73-49.06s17.47-51.17,18.17-53.86c2.68-10.12,3.84-20.82,3-28a18.39,18.39,0,0,1-.25-3.18S272.63,134,273.63,136ZM115.86,204.63c13.09,35.77,23.71,65.09,23.62,65.21a20.74,20.74,0,0,1-4-2c-29.53-16.77-48-44.07-52-76.61a110.27,110.27,0,0,1,.37-24.2,114,114,0,0,1,3-14.83c1.32-4.58,4.67-13.22,5-12.89C91.91,139.5,102.77,168.86,115.86,204.63Zm85.2,27.51c8.3,22.51,15.16,41.3,15.28,41.75.17.78-.21,1-4.67,2.23a131.46,131.46,0,0,1-20,3.76c-5.7.58-18,.29-23.21-.62-4.38-.74-13.13-3.1-13.13-3.55,0-.21,6.61-19.82,14.66-43.61s14.66-43.37,14.7-43.49C184.79,188,186.69,193.15,201.06,232.14Z"/></g></g></svg>