<svg xmlns="http://www.w3.org/2000/svg" viewBox="0 0 360.06 360.06"><defs><style>.cls-1{fill:#ff810f;}.cls-2{fill:#fff;}</style></defs><title>ai</title><g id="Layer_2" data-name="Layer 2"><g id="Ai"><circle class="cls-1" cx="180.03" cy="180.03" r="180.03"/><g id="Ai-2" data-name="Ai"><path class="cls-2" d="M133.22,212.08,121,252H94.34l45-140.79h32.77L218.2,252H190.47l-12.6-40Zm40.33-19.44-11.16-34.57c-2.88-8.64-5-18-7.2-26.28h-.36c-2.16,8.28-4.32,18-6.84,26.28l-10.8,34.57Z"/><path class="cls-2" d="M255.65,122.06c0,7.56-5.76,13.68-14.76,13.68-8.64,0-14-6.12-14-13.68,0-7.92,5.76-14,14.4-14S255.29,114.14,255.65,122.06ZM228.28,252V150.51h25.92V252Z"/></g></g></g></svg>