<svg xmlns="http://www.w3.org/2000/svg" viewBox="0 0 360.06 360.06"><defs><style>.cls-1{fill:#563d7c;}.cls-2{fill:#fff;}</style></defs><title>Boostrap</title><g id="Layer_2" data-name="Layer 2"><g id="boostrap"><circle class="cls-1" cx="180.03" cy="180.03" r="180.03"/><path class="cls-2" d="M142.36,161.65V117.34h39a60.73,60.73,0,0,1,10.75.93,26.84,26.84,0,0,1,9.15,3.32,17.67,17.67,0,0,1,6.37,6.63A22,22,0,0,1,210,139.1q0,11.94-7.16,17.25t-18.31,5.31ZM100.7,85V274.42h91.8a96.87,96.87,0,0,0,24.81-3.18,66.34,66.34,0,0,0,21.49-9.82,48.35,48.35,0,0,0,15-17.11q5.57-10.48,5.57-24.81,0-17.78-8.62-30.38t-26.13-17.64q12.74-6.1,19.24-15.65t6.5-23.88q0-13.27-4.38-22.29a36.4,36.4,0,0,0-12.34-14.46,53.28,53.28,0,0,0-19.1-7.83A118,118,0,0,0,189.85,85ZM142.36,242V190h45.37q13.53,0,21.76,6.24t8.23,20.83q0,7.43-2.52,12.21a20,20,0,0,1-6.77,7.56,28.65,28.65,0,0,1-9.82,4A55.59,55.59,0,0,1,186.93,242Z"/></g></g></svg>