<svg xmlns="http://www.w3.org/2000/svg" viewBox="0 0 360.06 360.06"><defs><style>.cls-1{fill:#0080ff;}.cls-2{fill:#fff;}</style></defs><title>digitial_ocean</title><g id="Layer_2" data-name="Layer 2"><g id="digital_ocean" data-name="digital ocean"><circle class="cls-1" cx="180.03" cy="180.03" r="180.03"/><path class="cls-2" d="M180,235.05v34.85c59.07,0,105.06-57.06,85.74-119a87.22,87.22,0,0,0-57-57c-61.9-19.32-119,26.67-119,85.74h34.94c0-37.07,36.69-65.73,75.67-51.59a52.32,52.32,0,0,1,31.2,31.19c14.14,39-14.47,75.62-51.51,75.68V200.23H145.28v34.82Zm-34.76,26.77H118.51V235.05h26.77v26.76Zm-26.74-26.77H96.08V212.63l0,0h22.43Z"/></g></g></svg>