<svg xmlns="http://www.w3.org/2000/svg" viewBox="0 0 360.06 360.06"><defs><style>.cls-1{fill:#161614;}</style></defs><title>github</title><g id="Layer_2" data-name="Layer 2"><g id="Github"><path class="cls-1" d="M180,0C80.62,0,0,82.64,0,184.59c0,81.56,51.59,150.75,123.12,175.16,9,1.71,12.3-4,12.3-8.88,0-4.4-.17-18.94-.24-34.37-50.09,11.17-60.65-21.78-60.65-21.78-8.19-21.34-20-27-20-27-16.33-11.46,1.23-11.22,1.23-11.22,18.08,1.3,27.6,19,27.6,19,16.06,28.22,42.12,20.06,52.39,15.34,1.62-11.93,6.28-20.07,11.43-24.68-40-4.67-82-20.5-82-91.23,0-20.15,7-36.62,18.55-49.55-1.87-4.65-8-23.42,1.74-48.85,0,0,15.12-5,49.52,18.92a166.71,166.71,0,0,1,90.16,0c34.36-23.88,49.46-18.92,49.46-18.92,9.8,25.43,3.63,44.2,1.76,48.85,11.54,12.93,18.53,29.39,18.53,49.55,0,70.9-42.12,86.51-82.21,91.08,6.46,5.73,12.21,17,12.21,34.18,0,24.7-.21,44.58-.21,50.66,0,4.91,3.24,10.67,12.37,8.86,71.49-24.44,123-93.6,123-175.13C360.06,82.64,279.46,0,180,0ZM67.43,263c-.4.92-1.8,1.19-3.09.56s-2-1.85-1.62-2.77,1.8-1.21,3.1-.57S67.88,262,67.43,263Zm8.86,8.1c-.86.82-2.54.44-3.68-.85s-1.4-3-.53-3.84,2.51-.43,3.69.85S77.18,270.23,76.28,271.05Zm6.08,10.37c-1.1.79-2.91,0-4-1.59s-1.1-3.61,0-4.4,2.89-.08,4,1.55S83.49,280.62,82.36,281.42Zm10.27,12c-1,1.12-3.09.82-4.63-.71s-2-3.6-1-4.72,3.11-.8,4.66.71S93.69,292.32,92.63,293.43Zm13.28,4.05c-.44,1.45-2.46,2.1-4.5,1.49s-3.37-2.33-3-3.79,2.46-2.14,4.51-1.48S106.34,296,105.91,297.48ZM121,299.2c.05,1.52-1.68,2.78-3.82,2.81s-3.89-1.18-3.92-2.68,1.69-2.79,3.84-2.82S121,297.68,121,299.2Zm14.85-.58c.26,1.49-1.23,3-3.36,3.42s-4-.53-4.29-2,1.26-3,3.34-3.44S135.6,297.1,135.87,298.61Z"/></g></g></svg>