<svg xmlns="http://www.w3.org/2000/svg" viewBox="0 0 360.06 360.06"><defs><style>.cls-1{fill:#d34a47;}.cls-2{fill:#fff;}</style></defs><title>gulp</title><g id="Layer_2" data-name="Layer 2"><g id="Layer_21" data-name="Layer 21"><circle class="cls-1" cx="180.03" cy="180.03" r="180.03"/><path class="cls-2" d="M216.69,320.71l2.88-47.93,7.94-13.56s-18.08,7.4-48.34,7.4-48.07-7.26-48.07-7.26l8.9,14.79,3.15,46.56c0,5,16.46,9,36.77,9s36.77-4,36.77-9"/><path class="cls-2" d="M207.62,96.87l6-23.87,33.44-35.18-8.81-7.51L202.88,67.8l-7,28.51C190.79,96.14,185.49,96,180,96c-37.28,0-67.5,4.25-67.5,9.49S142.75,115,180,115s67.5-4.25,67.5-9.49c0-3.86-16.39-7.18-39.92-8.66"/><path class="cls-2" d="M215.08,203.63c-.79-7.62,16.68-18.67,12.19-19-9.65.55-14.45,11.31-19.31,22.58-1.78,4.13-7.87,21.74-11.86,19.57s5.18-16.65,7.75-25.25c-3,2.17-13.84,10.62-16.64,2.71-4.51,3.83-14.13,5.9-13-4.15-2.4,4.25-7.78,10.17-14.23,7.71-8.48-3.23,4.91-30.25,8.24-28.88s-.67,7.52-1.72,9.91c-2.31,5.26-5,11.87-3.19,13.22,3,2.32,11.34-8.77,11.53-9,1.55-2,6-15.46,9.53-13.92s-8.89,19.25-4.23,22.76c.94.71,4.78-.44,7.12-3,1.51-1.64,1-5.26,6-17.27s9.53-27,13-25.84.61,8.82-.63,11.68c-5.82,13.44-15.88,35.64-11.13,34s7.22-1.78,11.86-7.22,4.43-14.39,7.53-14.2,2.58,3.06,1.83,5.25c3-3.49,14.45-10.83,17.2-3.56,3.26,8.61-16.31,21.05-11.43,20.42s12.46-5.5,15.75-9.94l9.06-81.43s-9.11,7.54-67.1,7.54S113,110.89,113,110.89l7.71,74.33c4.09-11.63,13.81-35.16,29.13-34.37,7,.36,16.27,13.78,8.3,14.23-3.37.19-3.72-6.7-7.71-7.71-2.88-.73-6.9,1.61-9.49,4.15-5.17,5.06-16.3,25-14.83,35,1.87,12.69,17.52-4.41,20.16-9.49,1.86-3.58,3.12-14.18,7.2-13.06s-.36,12.05-3.31,21.72c-3.32,10.86-5.07,22.31-9.23,21s2.62-15.34,2.37-17.79c-3.91,3.61-11.12,12.75-20.34,8.22l4.79,46.16s12.73,10.06,51.07,10.06,51.54-9.9,51.54-9.9L236.33,200c-4.87,4.74-20.26,13.15-21.25,3.67"/></g></g></svg>