<svg xmlns="http://www.w3.org/2000/svg" viewBox="0 0 360.06 360.06"><defs><style>.cls-1{fill:#c93c20;}.cls-2{fill:#e44d26;}.cls-3{fill:#f16529;}.cls-4{fill:#ebebeb;}.cls-5{fill:#fff;}</style></defs><title>HTML</title><g id="Layer_2" data-name="Layer 2"><g id="HTML"><circle class="cls-1" cx="180.03" cy="180.03" r="180.03"/><path class="cls-2" d="M286,70.65,266.71,287,179.9,311,93.34,287,74,70.65Z"/><path class="cls-3" d="M180,292.66l70.14-19.45,16.5-184.87H180V292.66Z"/><path class="cls-4" d="M142.49,141.42H180V114.88H113.49l.64,7.12,6.52,73.13H180V168.59H144.92l-2.43-27.17Z"/><path class="cls-4" d="M148.47,208.39H121.83l3.72,41.67,54.36,15.09.12,0V237.51l-.12,0-29.55-8-1.89-21.16Z"/><path class="cls-5" d="M179.94,195.13h32.68l-3.08,34.42-29.6,8v27.61l54.4-15.08.4-4.48L241,175.72l.65-7.13H179.94v26.54Z"/><path class="cls-5" d="M179.94,141.35v.06H244l.53-6L245.78,122l.63-7.12H179.94v26.47Z"/></g></g></svg>