<svg xmlns="http://www.w3.org/2000/svg" viewBox="0 0 361 361"><defs><style>.cls-1{fill:#fa503a;}.cls-2{fill:#fff;}</style></defs><title>laravel</title><g id="Layer_2" data-name="Layer 2"><g id="Laravel"><circle class="cls-1" cx="180.5" cy="180.5" r="180.5"/><path class="cls-2" d="M214.48,283.11c-3.07-1.06-5.08-3.31-6.74-6-2.36-3.9-4.85-7.8-7.09-11.82-8.51-15.25-17-30.38-25.53-45.63a10.4,10.4,0,0,1-.71-1.18c-1.42.35-2.72.71-4.14,1.06-18.8,4.85-37.47,9.69-56.27,14.54a26,26,0,0,1-6.62,1.18,11.51,11.51,0,0,1-10.28-5.79,13.6,13.6,0,0,1-1.42-3Q69.78,170.63,44,114.65c-3.07-6.62-6.15-13.36-9.1-20C34.2,93,33.73,91.25,33,89.47l-.35-.71V86.64c.12-.35.35-.59.47-.95a3.64,3.64,0,0,1,2.13-2.25,6.35,6.35,0,0,1,2.48-.59c4.49-.47,9-.83,13.48-1.18l18.56-1.42c7.92-.59,16-1.3,23.88-1.89a36.72,36.72,0,0,0,3.78-.47h4c.24.12.47.12.71.24A5.83,5.83,0,0,1,106.55,81l2.84,4.26q35.11,58.87,70.34,117.62c.24.35.47.83.83,1.3,30.14-7.21,60.29-14.42,90.67-21.75-.35-.47-.47-.83-.71-1.06-9.69-13.71-19.27-27.31-29-41a7.54,7.54,0,0,1-.95-1.65,2.22,2.22,0,0,1,1.06-3.31,15.74,15.74,0,0,1,3.31-1.18c5.56-.95,11.11-1.89,16.55-2.84,7.33-1.18,14.66-2.48,21.87-3.66,1.89-.35,3.66-.59,5.56-.83a6.5,6.5,0,0,1,4.61,1.18,27.72,27.72,0,0,1,3.78,3.66l22.34,27.66c3.9,4.85,7.92,9.69,11.82,14.54a7.18,7.18,0,0,1,.83,1.18V177c-.71,1.18-2,1.54-3.19,1.89-13.12,3.55-26.24,7-39.37,10.52-.35.12-.83.24-1.3.35.35.47.47.71.71,1.06,6,8,11.94,16,18,24S319.1,230.86,325,238.9a13.93,13.93,0,0,1,1.3,2.25,2.41,2.41,0,0,1-.95,3.43,7.68,7.68,0,0,1-2.6,1.3c-3,1.18-5.91,2.25-8.87,3.31l-73.06,26.24c-5.91,2.13-11.82,4.14-17.85,6.15-1.54.47-3.19.83-4.73,1.3A20.34,20.34,0,0,1,214.48,283.11ZM96.14,86.52c-3.78.35-7.57.71-11.47.95L72.74,88.53c-5,.47-10,.83-15,1.3-3.31.24-6.62.59-9.93.83-.83.12-1.06.35-.95,1.18a4.24,4.24,0,0,0,.47,1.3A22,22,0,0,0,48.5,95.5c15.25,31.33,30.5,62.77,45.63,94.1,5,10.17,9.81,20.33,14.66,30.5a1,1,0,0,0,1.18.71,14,14,0,0,0,2.36-.47c16.31-3.9,32.51-7.8,48.82-11.58,1.65-.35,3.43-.83,5.08-1.18,1.18-.35,1.54-.95,1.06-2.13a6.37,6.37,0,0,0-.83-1.54Q133,146.1,99.57,88.41C98.39,86.4,98.39,86.4,96.14,86.52Zm90.79,128.74a3.27,3.27,0,0,0,.59.95c6.62,11.47,13.36,23.05,20.1,34.52,2.6,4.49,5.32,9,8,13.48a23.08,23.08,0,0,0,2,2.72,2.54,2.54,0,0,0,3,.59A6.66,6.66,0,0,1,222,267q29.61-10.11,59.23-20.1c9-3.07,18-6,27-9.1a8.21,8.21,0,0,0,1.54-.59c.95-.47,1.06-.95.47-1.77-.35-.59-.83-1.3-1.18-1.89-3.55-5-7.21-9.81-10.76-14.78-5.91-8-11.7-16.08-17.61-24.12a24,24,0,0,0-1.54-2.13,1.86,1.86,0,0,0-2.25-.71c-.71.24-1.3.35-2,.59l-28.73,7.45c-19.27,5-38.54,10-57.81,15A3.15,3.15,0,0,0,186.93,215.26Zm94-35.11c.24,0,.47-.12.71-.12,11.35-2.84,22.82-5.56,34.16-8.39a6.67,6.67,0,0,0,1.42-.47c1.06-.47,1.3-1.06.47-2-.12-.12-.24-.35-.35-.47-8.39-10.64-16.67-21.28-25.06-31.8a2.58,2.58,0,0,0-.47-.59,3,3,0,0,0-3.07-.95c-10.17,1.89-20.33,3.66-30.5,5.56-1.18.24-2.48.35-3.66.71s-1.18.71-.71,1.54a7.18,7.18,0,0,0,.83,1.18c8.51,11.59,16.9,23.29,25.42,34.87C280.32,179.44,280.56,179.79,280.91,180.15Z"/></g></g></svg>