<svg xmlns="http://www.w3.org/2000/svg" viewBox="0 0 360.06 360.06"><defs><style>.cls-1{fill:#6181b6;}.cls-2{fill:#fff;}</style></defs><title>php</title><g id="Layer_2" data-name="Layer 2"><g id="Layer_20" data-name="Layer 20"><circle class="cls-1" cx="180.03" cy="180.03" r="180.03"/><path class="cls-2" d="M214.3,213l8.4-41.13c1.93-9.3.28-16.24-4.68-20.56s-13.08-6.29-25.19-6.29H178.24l4.13-20.43a2.64,2.64,0,0,0-.55-2.23,2.53,2.53,0,0,0-2.06-.92h-20.1a2.78,2.78,0,0,0-2.75,2.1L148,167.2a22.82,22.82,0,0,0-6.06-12.57c-5.92-6.42-15.14-9.69-27.67-9.69H75.56a2.78,2.78,0,0,0-2.75,2.1l-18,88.55a2.64,2.64,0,0,0,.55,2.23,2.53,2.53,0,0,0,2.06.92H77.63a2.78,2.78,0,0,0,2.75-2.1l4.4-21.35h15c7.85,0,14.59-.79,19.68-2.36a39.46,39.46,0,0,0,14.45-8.25,42.75,42.75,0,0,0,8.53-10.09l-3.58,17.68a2.64,2.64,0,0,0,.55,2.23,2.53,2.53,0,0,0,2.06.92h20.1a2.78,2.78,0,0,0,2.75-2.1l9.91-48.47H188c5.92,0,7.57,1,8.12,1.57s1.24,2,.28,6.81l-8,39.17a2.64,2.64,0,0,0,.55,2.23,2.53,2.53,0,0,0,2.06.92h20.65A3.75,3.75,0,0,0,214.3,213Zm-93-34.06c-1.24,6.16-3.58,10.61-7,13.1s-9.08,3.8-16.52,3.8H88.78l6.47-31.7h11.56c8.53,0,12,1.7,13.35,3.14C121.95,169.43,122.36,173.49,121.26,179Z"/><path class="cls-2" d="M300.19,154.63c-5.92-6.42-15.14-9.69-27.67-9.69h-39a2.78,2.78,0,0,0-2.75,2.1l-18,88.42a2.64,2.64,0,0,0,.55,2.23,2.53,2.53,0,0,0,2.06.92h20.23a2.78,2.78,0,0,0,2.75-2.1l4.4-21.35h15c7.85,0,14.59-.79,19.68-2.36a39.46,39.46,0,0,0,14.45-8.25,40.94,40.94,0,0,0,13.63-23.05C307.9,170.08,306.11,161.18,300.19,154.63ZM279.13,179c-1.24,6.16-3.58,10.61-7,13.1s-9.08,3.8-16.52,3.8h-8.95l6.47-31.7h11.56c8.53,0,12,1.7,13.35,3.14C280,169.43,280.37,173.49,279.13,179Z"/><path class="cls-2" d="M106.81,161.57c7.71,0,12.8,1.31,15.42,4.06s3.17,7.34,1.79,13.88c-1.38,6.81-4.13,11.79-8.12,14.67s-10,4.32-18.17,4.32H85.47L93,161.57ZM57.53,236H77.77l4.82-23.45H99.93c7.71,0,13.9-.79,18.86-2.36a36.55,36.55,0,0,0,13.49-7.73,39.71,39.71,0,0,0,8.26-9.82,37,37,0,0,0,4.4-11.79c2.2-10.48.55-18.6-4.82-24.49s-13.9-8.78-25.6-8.78h-39Z"/><path class="cls-2" d="M159.8,124.11h20.1l-4.82,23.45H193c11.29,0,19,1.83,23.26,5.63s5.51,9.82,3.85,18.21l-8.4,41.13H191.32l8-39.17c1-4.45.55-7.47-1-9s-5-2.49-10-2.49h-16.1l-10.32,50.69h-20.1Z"/><path class="cls-2" d="M264.68,161.57c7.71,0,12.8,1.31,15.42,4.06s3.17,7.34,1.79,13.88c-1.38,6.81-4.13,11.79-8.12,14.67s-10,4.32-18.17,4.32H243.35l7.57-36.94ZM215.41,236h20.23l4.82-23.45H257.8c7.71,0,13.9-.79,18.86-2.36a36.55,36.55,0,0,0,13.49-7.73,39.71,39.71,0,0,0,8.26-9.82,37,37,0,0,0,4.4-11.79c2.2-10.48.55-18.6-4.82-24.49s-13.9-8.78-25.6-8.78h-39Z"/></g></g></svg>