<?xml version="1.0" encoding="UTF-8"?>
<svg width="72px" height="79px" viewBox="0 0 72 79" version="1.1" xmlns="http://www.w3.org/2000/svg" xmlns:xlink="http://www.w3.org/1999/xlink">
    <!-- Generator: Sketch 41.2 (35397) - http://www.bohemiancoding.com/sketch -->
    <title>Creative</title>
    <desc>Created with Sketch.</desc>
    <defs></defs>
    <g id="Page-1" stroke="none" stroke-width="1" fill="none" fill-rule="evenodd">
        <g id="Resume-Copy" transform="translate(-923.000000, -467.000000)" stroke-width="2" stroke="#333333">
            <g id="Creative" transform="translate(925.000000, 468.000000)">
                <g id="INSPIRATION">
                    <g>
                        <g id="Layer_1">
                            <g id="Group">
                                <path d="M27.5100363,10.2216997 C27.5100363,4.57676604 22.8176101,0 17.0300225,0 C11.2424348,0 6.55000865,4.57676604 6.55000865,10.2216997 C6.55000865,14.0024509 8.66042143,17.2963936 11.7900156,19.0647477 L11.7900156,22.9988243 L22.2700294,22.9988243 L22.2700294,19.0647477 C25.3996235,17.2963936 27.5100363,14.0024509 27.5100363,10.2216997 L27.5100363,10.2216997 Z" id="Shape"></path>
                                <path d="M17.0300225,22.9988243 L17.0300225,12.7771246" id="Shape"></path>
                                <ellipse id="Oval" cx="17.0300225" cy="10.2216997" rx="2.62000346" ry="2.55542493"></ellipse>
                                <path d="M65.0153858,22.9988243 L8.38794107,22.9988243 C7.71591018,26.4039281 7.75128023,29.6953154 8.29362095,32.8206 L0,47.2523623 L9.19097213,49.2967023 L9.19097213,65.1403368 L22.2909894,65.1403368 L22.2909894,76.639749 L51.1110275,76.639749 L51.1110275,59.4481278 C59.8055089,53.6102595 65.5066365,43.8357592 65.5000865,32.7605476 L65.4974665,28.0981748 C65.4974665,26.355375 65.3258562,24.653462 65.0153858,22.9988243 L65.0153858,22.9988243 Z" id="Shape"></path>
                                <polyline id="Shape" points="55.0200726 22.9988243 62.880083 5.11084985 68.1200899 1.27771246 68.1200899 7.66627478 61.5700813 22.9988243"></polyline>
                                <path d="M62.880083,5.11084985 L68.1200899,7.66627478" id="Shape"></path>
                                <polyline id="Shape" points="39.3000519 22.9988243 32.7500432 8.94398724 30.1300398 10.2216997 32.7500432 1.27771246 41.9200553 5.11084985 39.3000519 6.38856232 47.1600622 22.9988243"></polyline>
                                <path d="M30.1300398,22.9988243 L30.1300398,19.1656869 C30.1300398,17.0485174 31.8893721,15.3325496 34.060045,15.3325496 L47.1600622,15.3325496 C49.3307351,15.3325496 51.0900674,13.6165817 51.0900674,11.4994122 L51.0900674,6.38856232" id="Shape"></path>
                                <rect id="Rectangle-path" x="48.470064" y="0" width="5.24000692" height="5.11084985"></rect>
                                <path d="M14.410019,28.1096742 L14.410019,28.1096742 C14.410019,30.932141 16.7562321,33.220524 19.6500259,33.220524 L19.6500259,33.220524 C22.5438198,33.220524 24.8900329,30.932141 24.8900329,28.1096742 L24.8900329,28.1096742" id="Shape"></path>
                            </g>
                        </g>
                    </g>
                </g>
            </g>
        </g>
    </g>
</svg>