<?xml version="1.0" encoding="UTF-8"?>
<svg width="85px" height="82px" viewBox="0 0 85 82" version="1.1" xmlns="http://www.w3.org/2000/svg" xmlns:xlink="http://www.w3.org/1999/xlink">
    <!-- Generator: Sketch 41.2 (35397) - http://www.bohemiancoding.com/sketch -->
    <title>Flexible Copy</title>
    <desc>Created with Sketch.</desc>
    <defs></defs>
    <g id="Page-1" stroke="none" stroke-width="1" fill="none" fill-rule="evenodd">
        <g id="Resume-Copy" transform="translate(-1127.000000, -467.000000)" stroke-width="2" stroke="#333333">
            <g id="Flexible-Copy" transform="translate(1128.000000, 468.000000)">
                <g id="Flexible" transform="translate(0.000000, -0.000000)">
                    <g id="PARTNERSHIP">
                        <g id="Layer_1_1_">
                            <g id="Group">
                                <path d="M11.6087314,52.2604216 L6.82939342,48.405438 C-1.62656985,41.5866127 -2.33467083,29.2246738 5.28944564,21.5359244 L5.28944564,21.5359244 C12.1559628,14.6110108 23.357708,14.0063075 30.9735747,20.1474938 L53.3646905,38.2050482 C55.4999931,39.9263308 55.678737,43.047979 53.7524273,44.9893949 L53.7524273,44.9893949 C52.0419853,46.7133297 49.2604546,46.8883754 47.3355199,45.3925304 L37.1952388,37.511496" id="Shape"></path>
                                <path d="M47.1334018,71.2475746 L43.1047884,67.672399 C41.2774753,66.0519003 38.4725704,66.0731179 36.6741314,67.7241171 L36.6741314,67.7241171 C34.6763242,69.5567924 34.7024483,72.6519185 36.7318795,74.4514412 L40.7604929,78.0266169 C42.5878059,79.6471156 45.3927108,79.625898 47.1911498,77.9748988 L47.1911498,77.9748988 C49.1889571,76.1422235 49.162833,73.0470974 47.1334018,71.2475746 L47.1334018,71.2475746 Z" id="Shape"></path>
                                <path d="M43.6217708,68.1312309 L47.6503842,71.7064065 C49.4776973,73.3269053 52.2826022,73.3056876 54.0810412,71.6546885 L54.0810412,71.6546885 C56.0788484,69.8220131 56.0527243,66.7268871 54.0232931,64.9273643 L49.9946797,61.3521887 C48.1673667,59.7316899 45.3624618,59.7529076 43.5640228,61.4039067 L43.5640228,61.4039067 C41.5675905,63.2365821 41.5937146,66.3317081 43.6217708,68.1312309 L43.6217708,68.1312309 Z" id="Shape"></path>
                                <path d="M50.5130372,61.8110206 L54.5416506,65.3861962 C56.3689636,67.0066949 59.1738685,66.9854773 60.9723075,65.3344781 L60.9723075,65.3344781 C62.9701148,63.5018028 62.9439907,60.4066767 60.9145595,58.607154 L56.8859461,55.0319783 C55.058633,53.4114796 52.2537281,53.4326972 50.4552891,55.0836964 L50.4552891,55.0836964 C48.4574819,56.9163717 48.4849809,60.0114978 50.5130372,61.8110206 L50.5130372,61.8110206 Z" id="Shape"></path>
                                <path d="M67.8621989,59.0142678 L67.8621989,59.0142678 C69.8600061,57.1815925 69.833882,54.0864664 67.8044508,52.2869436 L63.7758374,48.711768 C61.9485244,47.0912693 59.1436195,47.1124869 57.3451805,48.763486 L57.3451805,48.763486 C55.3473732,50.5961614 55.3734974,53.6912875 57.4029285,55.4908102 L61.4315419,59.0659859 C63.258855,60.6864846 66.0637599,60.6639408 67.8621989,59.0142678 L67.8621989,59.0142678 Z" id="Shape"></path>
                                <path d="M69.7087613,53.3093696 L75.6980582,48.4041119 C84.1526465,41.5852866 84.8607475,29.2233477 77.238006,21.5345983 L77.238006,21.5345983 C70.3714888,14.6096847 59.1697436,14.0049814 51.5538769,20.1461677 L41.2623508,28.4462509" id="Shape"></path>
                                <path d="M25.9536199,40.7922766 L12.7568174,51.4342589 C10.7755096,53.0322139 10.2612771,55.9125112 11.8287239,57.8976885 C13.4896676,60.0022151 16.5654383,60.2966101 18.6072441,58.6495893 L19.1462258,58.2159534 C16.8569284,60.0618897 16.839054,63.5336293 19.2795963,65.3861962 C21.0464113,66.7268871 23.5790755,66.573059 25.304642,65.1819762 L25.7212528,64.846472 C23.4319555,66.6924084 23.4140811,70.1641479 25.8546233,72.0167148 C27.6214384,73.3574057 30.1541025,73.2035776 31.879669,71.8124948 L32.2962799,71.4769906 C30.0069825,73.322927 29.9891081,76.7946665 32.4296504,78.6472334 C34.1964654,79.9879243 36.7291296,79.8340962 38.4546961,78.4430134 L39.9066468,77.2720638" id="Shape"></path>
                                <path d="M33.649234,46.5183924 L19.1462258,58.2146273" id="Shape"></path>
                                <path d="M40.0235179,53.3093696 L25.7212528,64.8451459" id="Shape"></path>
                                <path d="M35.1933066,69.1377436 L31.9649161,71.7422113" id="Shape"></path>
                                <path d="M19.0857278,31.3676574 C19.0857278,36.8152915 23.6313237,41.2312169 29.2383836,41.2312169 C32.4585244,41.2312169 35.3280521,39.775155 37.188364,37.5035393" id="Shape"></path>
                                <ellipse id="Oval" cx="41.4856023" cy="9.28272605" rx="9.62467364" ry="9.28272605"></ellipse>
                                <path d="M44.5115915,5.42275876 C42.8726278,5.42275876 41.544152,6.70403615 41.544152,8.28477033 C41.544152,6.70403615 40.2156763,5.42275876 38.5767126,5.42275876 C36.937749,5.42275876 35.6092732,6.70403615 35.6092732,8.28477033 C35.6092732,9.83658313 36.5735348,11.2371612 38.0563174,11.8390874 L41.544152,13.2556325 L45.0319866,11.8390874 C46.5147693,11.2371612 47.4790309,9.83658313 47.4790309,8.28477033 C47.4790309,6.70403615 46.1505551,5.42275876 44.5115915,5.42275876 L44.5115915,5.42275876 Z" id="Shape"></path>
                                <g transform="translate(50.282174, 7.956622)" id="Shape">
                                    <path></path>
                                    <path d="M17.5236523,5.30043657 C15.2068559,2.09656998 11.3624862,0 7.00525896,0 L3.32175886,0" stroke-dasharray="2.1179,2.1179"></path>
                                    <path d="M1.85605856,0 L0.481105182,0"></path>
                                </g>
                                <g transform="translate(12.374580, 7.956622)" id="Shape">
                                    <path d="M19.3593435,0 L17.9843902,0"></path>
                                    <path d="M15.0722389,0 L12.8365647,0 C7.95548024,0 3.71924889,2.63098978 1.55094741,6.50056044" stroke-dasharray="2.1179,2.1179"></path>
                                    <path></path>
                                </g>
                            </g>
                        </g>
                    </g>
                </g>
            </g>
        </g>
    </g>
</svg>