<?xml version="1.0" encoding="UTF-8"?>
<svg width="80px" height="84px" viewBox="0 0 80 84" version="1.1" xmlns="http://www.w3.org/2000/svg" xmlns:xlink="http://www.w3.org/1999/xlink">
    <!-- Generator: Sketch 41.2 (35397) - http://www.bohemiancoding.com/sketch -->
    <title>Information Architecture</title>
    <desc>Created with Sketch.</desc>
    <defs></defs>
    <g id="Page-1" stroke="none" stroke-width="1" fill="none" fill-rule="evenodd">
        <g id="Resume-Copy" transform="translate(-1130.000000, -598.000000)" stroke-width="2" stroke="#333333">
            <g id="Information-Architecture" transform="translate(1099.000000, 599.000000)">
                <g id="ARCHITECTURE">
                    <g transform="translate(32.485653, 0.000000)">
                        <g id="Layer_1">
                            <g id="Group">
                                <ellipse id="Oval" cx="32.9946872" cy="21.9661017" rx="10.0418613" ry="9.61016949"></ellipse>
                                <ellipse id="Oval" cx="44.4711001" cy="21.9661017" rx="10.0418613" ry="9.61016949"></ellipse>
                                <ellipse id="Oval" cx="38.7328936" cy="31.5762712" rx="10.0418613" ry="9.61016949"></ellipse>
                                <path d="M43.0365485,12.3559322 L43.0365485,4.11864407 C43.0365485,1.84377966 41.1099457,0 38.7328936,0 L38.7328936,0 C36.3558416,0 34.4292388,1.84377966 34.4292388,4.11864407 L34.4292388,12.3559322" id="Shape"></path>
                                <polyline id="Shape" points="25.5307151 28.3692203 10.0418613 76.8813559 10.0418613 81 15.7800678 76.8813559 29.2462038 34.7050678"></polyline>
                                <polyline id="Shape" points="51.9350722 28.3692203 67.4239259 76.8813559 67.4239259 81 61.6857195 76.8813559 48.2195835 34.7050678"></polyline>
                                <path d="M22.9528259,53.5423729 L54.5129614,53.5423729" id="Shape"></path>
                                <g transform="translate(43.036548, 4.118644)" id="Shape">
                                    <path d="M21.749237,64.4979661 C22.456471,63.8815424 23.1407521,63.2417797 23.7977768,62.578678"></path>
                                    <path d="M27.3095591,58.4902373 C31.7925329,52.441322 34.4292388,45.0497288 34.4292388,37.0677966 C34.4292388,19.8559831 22.1695607,5.38855932 5.5502802,1.21774576" stroke-dasharray="3.8586,3.8586"></path>
                                    <path></path>
                                </g>
                                <g transform="translate(17.214619, 71.985419)" id="Shape">
                                    <path d="M0.101853165,0.0853609172 C0.89659476,0.590581256 1.71142008,1.06971685 2.54632912,1.52002193"></path>
                                    <path d="M7.66480928,3.82371685 C11.965595,5.40253041 16.6364951,6.26881854 21.5182742,6.26881854 C27.402805,6.26881854 32.9789071,5.00988634 37.9725813,2.76247956" stroke-dasharray="3.9479,3.9479"></path>
                                    <path d="M40.4902194,1.51864905 C41.3251284,1.06834397 42.1399537,0.590581256 42.9346953,0.0839880359"></path>
                                </g>
                                <g transform="translate(0.000000, 4.118644)" id="Shape">
                                    <path></path>
                                    <path d="M26.2393836,1.97832203 C10.9786235,6.95089831 0,20.7799322 0,37.0677966 C0,45.9983898 3.30090327,54.1917458 8.79667051,60.5907458" stroke-dasharray="3.8586,3.8586"></path>
                                    <path d="M10.631462,62.5773051 C11.2899212,63.2404068 11.9727678,63.8815424 12.6800017,64.4965932"></path>
                                </g>
                            </g>
                        </g>
                    </g>
                </g>
            </g>
        </g>
    </g>
</svg>