<?xml version="1.0" encoding="UTF-8"?>
<svg width="83px" height="79px" viewBox="0 0 83 79" version="1.1" xmlns="http://www.w3.org/2000/svg" xmlns:xlink="http://www.w3.org/1999/xlink">
    <!-- Generator: Sketch 41.2 (35397) - http://www.bohemiancoding.com/sketch -->
    <title>Tree Lover</title>
    <desc>Created with Sketch.</desc>
    <defs></defs>
    <g id="Page-1" stroke="none" stroke-width="1" fill="none" fill-rule="evenodd">
        <g id="Resume-Copy" transform="translate(-694.000000, -735.000000)" stroke-width="2" stroke="#333333">
            <g id="Tree-Lover" transform="translate(697.000000, 737.000000)">
                <g id="FOREST">
                    <g>
                        <g id="Layer_1">
                            <g id="Group">
                                <path d="M48.0822128,75.0617845 L44.0753617,75.0617845 L34.7260426,75.0617845 L29.3835745,75.0617845 L29.3835745,75.0617845 C32.0053907,70.9684152 33.3904255,66.2858109 33.3904255,61.5118814 L33.3904255,53.7942789 L44.0753617,53.7942789 L44.0753617,61.5118814 C44.0753617,66.2858109 45.4603966,70.9684152 48.0822128,75.0617845 L48.0822128,75.0617845 L48.0822128,75.0617845 Z" id="Shape"></path>
                                <polygon id="Shape" points="60.102766 53.7942789 47.2474521 41.2839815 57.4315319 41.2839815 46.9135479 30.0247138 53.4246809 30.0247138 45.0289923 20.0164759 48.0822128 20.0164759 38.7328936 6.25514871 29.3835745 20.0164759 32.436795 20.0164759 24.0411064 30.0247138 30.5522394 30.0247138 20.0342553 41.2839815 30.2183351 41.2839815 17.3630213 53.7942789"></polygon>
                                <polygon id="Shape" points="23.791346 47.5391302 30.2183351 41.2839815 20.0342553 41.2839815 30.5522394 30.0247138 24.0411064 30.0247138 32.436795 20.0164759 29.3835745 20.0164759 30.9636094 17.6920626 27.665971 13.7613272 30.7191915 13.7613272 21.3698723 0 12.0205532 13.7613272 15.0737737 13.7613272 6.67808511 23.7695651 13.1892181 23.7695651 2.67123404 35.0288328 12.8553138 35.0288328 0 47.5391302"></polygon>
                                <polygon id="Shape" points="46.5021778 17.6920626 48.0822128 20.0164759 45.0289923 20.0164759 53.4246809 30.0247138 46.9135479 30.0247138 57.4315319 41.2839815 47.2474521 41.2839815 53.6757769 47.5391302 77.4657873 47.5391302 64.6104734 35.0288328 74.7945532 35.0288328 64.2765692 23.7695651 70.7877022 23.7695651 62.3920136 13.7613272 65.4452341 13.7613272 56.0959149 0 46.7465958 13.7613272 49.7998163 13.7613272"></polygon>
                                <path d="M26.7123404,55.2567327 L26.7123404,53.7942789 L17.3630213,53.7942789 L23.791346,47.5391302 L16.0274043,47.5391302 L16.0274043,55.2567327 C16.0274043,60.0294111 14.6423694,64.7132665 12.0205532,68.8066358 L17.3630213,68.8066358 L26.7123404,68.8066358 L30.7191915,68.8066358 C28.0973753,64.7132665 26.7123404,60.0294111 26.7123404,55.2567327 L26.7123404,55.2567327 Z" id="Shape"></path>
                                <path d="M61.438383,55.2567327 L61.438383,47.5391302 L53.6744413,47.5391302 L60.102766,53.7942789 L50.7534468,53.7942789 L50.7534468,55.2567327 C50.7534468,60.0294111 49.368412,64.7132665 46.7465958,68.8066358 L52.0890638,68.8066358 L61.438383,68.8066358 L65.4452341,68.8066358 C62.8234179,64.7132665 61.438383,60.0294111 61.438383,55.2567327 L61.438383,55.2567327 Z" id="Shape"></path>
                            </g>
                        </g>
                    </g>
                </g>
            </g>
        </g>
    </g>
</svg>