<?xml version="1.0" encoding="UTF-8"?>
<svg width="86px" height="83px" viewBox="0 0 86 83" version="1.1" xmlns="http://www.w3.org/2000/svg" xmlns:xlink="http://www.w3.org/1999/xlink">
    <!-- Generator: Sketch 41.2 (35397) - http://www.bohemiancoding.com/sketch -->
    <title>User Testing</title>
    <desc>Created with Sketch.</desc>
    <defs></defs>
    <g id="Page-1" stroke="none" stroke-width="1" fill="none" fill-rule="evenodd">
        <g id="Resume-Copy" transform="translate(-923.000000, -731.000000)" stroke-width="2" stroke="#333333">
            <g id="User-Testing" transform="translate(922.000000, 732.000000)">
                <g id="COMPARISON">
                    <g transform="translate(2.498896, 0.000000)">
                        <g id="Layer_1">
                            <g id="Group">
                                <path d="M49.8529824,81 L33.2353216,81 L39.9322389,41.8311 C40.0624106,41.06295 40.7451195,40.5 41.544152,40.5 L41.544152,40.5 C42.3431846,40.5 43.0258935,41.06295 43.1560651,41.8311 L49.8529824,81 L49.8529824,81 Z" id="Shape"></path>
                                <path d="M0,35.1 L24.9264912,35.1 L24.9264912,37.8 C24.9264912,39.29175 23.6870907,40.5 22.1568811,40.5 L2.76961014,40.5 C1.23940054,40.5 0,39.29175 0,37.8 L0,35.1 L0,35.1 Z" id="Shape"></path>
                                <path d="M4.63771217,35.1 L20.2887791,35.1 C23.1151662,32.8725 24.9264912,29.46915 24.9264912,25.65 C24.9264912,18.93915 19.3471116,13.5 12.4632456,13.5 C5.57937962,13.5 0,18.93915 0,25.65 C0,29.46915 1.81132503,32.8725 4.63771217,35.1 L4.63771217,35.1 Z" id="Shape"></path>
                                <path d="M6.92402534,31.05 L9.09263008,21.5352 C9.44437056,19.9962 10.8444085,18.9 12.4632456,18.9 L12.4632456,18.9 C14.0820827,18.9 15.4821207,19.9962 15.8338611,21.5352 L18.0024659,31.05" id="Shape"></path>
                                <path d="M8.30883041,25.65 L16.6176608,25.65" id="Shape"></path>
                                <path d="M58.1618129,21.6 L83.0883041,21.6 L83.0883041,24.3 C83.0883041,25.79175 81.8489035,27 80.3186939,27 L60.931423,27 C59.4012134,27 58.1618129,25.79175 58.1618129,24.3 L58.1618129,21.6 L58.1618129,21.6 Z" id="Shape"></path>
                                <path d="M62.799525,21.6 L78.4505919,21.6 C81.276979,19.3725 83.0883041,15.96915 83.0883041,12.15 C83.0883041,5.43915 77.5089245,0 70.6250585,0 C63.7411925,0 58.1618129,5.43915 58.1618129,12.15 C58.1618129,15.96915 59.9731379,19.3725 62.799525,21.6 L62.799525,21.6 Z" id="Shape"></path>
                                <path d="M66.4706433,16.2 L66.4706433,5.4 L72.0098635,5.4 C73.5400731,5.4 74.7794737,6.60825 74.7794737,8.1 L74.7794737,8.1 C74.7794737,9.59175 73.5400731,10.8 72.0098635,10.8 L67.8554483,10.8 L72.0098635,10.8 C73.5400731,10.8 74.7794737,12.00825 74.7794737,13.5 L74.7794737,13.5 C74.7794737,14.99175 73.5400731,16.2 72.0098635,16.2 L66.4706433,16.2 L66.4706433,16.2 Z" id="Shape"></path>
                                <path d="M12.4632456,40.5 L12.4632456,42.4818 C12.4632456,44.226 14.1333205,45.51255 15.8740205,45.1089 L68.4966131,32.8941 C69.7443224,32.60385 70.6250585,31.5171 70.6250585,30.267 L70.6250585,27" id="Shape"></path>
                            </g>
                        </g>
                    </g>
                </g>
            </g>
        </g>
    </g>
</svg>